<svg id="Object" xmlns="http://www.w3.org/2000/svg" viewBox="0 0 652 565.3"><defs><style>.cls-1{fill:#aad4c8;}.cls-2{fill:#616e7d;}</style></defs><title>autism</title><path class="cls-1" d="M910.4,396.71l-1.2-1.8-40.69-42.4a6.74,6.74,0,0,1,3.57-10.16,43,43,0,0,0,17.08-10c17-16.19,17.72-42.81,1.52-59-15.43-16.92-42-17.35-59-1.12A42.47,42.47,0,0,0,821,288.88a6.74,6.74,0,0,1-10.3,3.11l-40.55-42.56-1.76-1.27a6.7,6.7,0,0,0-9.3.13L712,293.4a6.34,6.34,0,0,1-6.68-4.54c-4-13.82-15.5-25.75-35-29.52a16.89,16.89,0,0,0-6.14,0c-39.93,7-50.21,48.52-28.75,71a39.13,39.13,0,0,0,15.87,10.12,6.29,6.29,0,0,1,4,7.31l-47.29,45.38a6.71,6.71,0,0,0-.35,9.52l42.77,44.59.76.59.26.27c3.63,3.8,10,1.79,11.3-3.43,3.92-15.07,16.37-28.52,37.17-32.61a41.88,41.88,0,0,1,11.61.77,41.62,41.62,0,0,1,31.75,33.24,40.73,40.73,0,0,1,.28,11.62c-5.05,20.59-19,32.43-34.27,35.65-5.26,1.12-7.56,7.36-3.93,11.14l.26.27.56.8,42.61,44.72a6.73,6.73,0,0,0,9.53.09l47.45-45.24a6.33,6.33,0,0,1,7.13,4.35,39.27,39.27,0,0,0,9.41,16.32c21.54,22.45,63.43,14,72.26-25.52a16.77,16.77,0,0,0,.21-6.15c-2.89-19.64-14.3-31.68-27.9-36.29a6.31,6.31,0,0,1-4.23-6.87l47.16-45A6.75,6.75,0,0,0,910.4,396.71Z" transform="translate(-260 -246.35)"/><path class="cls-2" d="M694.31,811.24h.35l1,.14,61.76.27a6.75,6.75,0,0,0,6.68-6.82l.26-65.56a6.32,6.32,0,0,1,8.07-2.13,39.22,39.22,0,0,0,18.28,4.52c31.1,0,54.07-36,31.65-69.79a17.22,17.22,0,0,0-4.27-4.41c-16.18-11.52-32.74-11.63-45.5-5a6.37,6.37,0,0,1-7.89-1.73l.26-65.16a6.71,6.71,0,0,0-6.32-6.82l-2.14-.41-58.76,0a6.74,6.74,0,0,1-4.85-9.61,42.91,42.91,0,0,0,4.62-19.22c.11-23.45-18.57-42.45-41.45-42-22.91-.61-41.66,18.31-41.69,41.76a42.63,42.63,0,0,0,4.56,19.25,6.76,6.76,0,0,1-4.92,9.59l-58.78-.27-2.12.39a6.64,6.64,0,0,0-5.69,3.93,9.86,9.86,0,0,1,.58,3.27l-.11,67.28-3.68-.73a6.1,6.1,0,0,1-5.41-.11l-1.14-.5a45.11,45.11,0,0,0-6.13.46l-.53.07-.54-.09a35.73,35.73,0,0,0-6.39-.8c-18.85,0-34.45,14.59-36.81,33.5a38.62,38.62,0,0,0-.36,5,45.43,45.43,0,0,0,5.74,21.38c.85,1.59,1.69,3.19,2.75,4.8a13.51,13.51,0,0,0,3.43,3.52c8.65,6.12,17.15,8.59,25.06,8.61a42.55,42.55,0,0,0,6.22-.52l.54-.11.54.09c1.71.29,3.05.55,4.29.7a33.24,33.24,0,0,0,3.11-1.4,6.06,6.06,0,0,1,6.23.45l3-.59-.11,68.29a10.83,10.83,0,0,1-.35,2.56,6.57,6.57,0,0,0,5.91,3.87l61.78,0,.94-.13h.38c5.26,0,8.18-5.94,5.35-10.53-8.15-13.25-9.21-31.54,2.26-49.38a40.76,40.76,0,0,1,8.59-7.84,41.64,41.64,0,0,1,46,.11,41.59,41.59,0,0,1,8.56,7.89c11.37,17.89,10.2,36.18,2,49.4C686.16,805.26,689.05,811.24,694.31,811.24Z" transform="translate(-260 -246.35)"/><path class="cls-2" d="M475.68,579.77l-.14.35-.06.13-.35,1.41a3.53,3.53,0,0,0,2.68,3.3l58.33-.1a9,9,0,0,1,2.27.41v0a9.71,9.71,0,0,1,5.46,2l.38-1.84.26-65.56a6.34,6.34,0,0,1,8.07-2.13,39.13,39.13,0,0,0,18.28,4.52c31.11,0,54.07-36,31.65-69.79a17.06,17.06,0,0,0-4.27-4.41c-16.17-11.53-32.74-11.63-45.5-5a6.35,6.35,0,0,1-7.89-1.73l.28-65.15a6.75,6.75,0,0,0-6.34-6.82l-2.14-.41-58.76,0a6.73,6.73,0,0,1-4.86-9.6A42.82,42.82,0,0,0,477.67,340c.11-23.47-18.57-42.45-41.47-42-22.89-.61-41.65,18.3-41.68,41.75a42.64,42.64,0,0,0,4.56,19.26,6.73,6.73,0,0,1-4.91,9.57l-58.78-.25-2.13.39a6.72,6.72,0,0,0-6.36,6.81l0,65.15a6.34,6.34,0,0,1-7.9,1.67c-12.73-6.68-29.3-6.66-45.53,4.79a17.26,17.26,0,0,0-4.3,4.39c-22.6,33.67.2,69.82,31.31,69.94a39.09,39.09,0,0,0,18.3-4.43,6.3,6.3,0,0,1,8,2.18l-.06,65.56a6.88,6.88,0,0,0,.45,2.32,9.89,9.89,0,0,1,5.43-1.91v0a9,9,0,0,1,2.27-.41l58.34.1a3.5,3.5,0,0,0,2.67-3.28l-.35-1.43-.06-.16-.08-.16-.08-.2a45.79,45.79,0,0,1-4.73-20h0v-.34a46.23,46.23,0,0,1,2-12.75c5.36-18.59,22-32.38,42-32.38l1.06,0,.88,0c20,0,36.62,13.79,42,32.38a46.26,46.26,0,0,1,2,12.77v.09A45.65,45.65,0,0,1,475.68,579.77Z" transform="translate(-260 -246.35)"/><path class="cls-2" d="M495.94,664.76a43.11,43.11,0,0,1,28.7-11.09l0,3.29v-3.29a40.1,40.1,0,0,1,7.18.84,55,55,0,0,1,6.64-.5c1.09,0,2.18,0,3.28.16l.08-59.33a3.34,3.34,0,0,0-2.9-3.41l-.22,0-.5,0-.49-.18-1-.19-59.06.1-.29-.05a10.11,10.11,0,0,1-8.23-9.09l-.17-.89a9.69,9.69,0,0,1,1-4.2h0l.14-.34.07-.11a39.15,39.15,0,0,0,4.14-17.52v-.09a39.3,39.3,0,0,0-1.72-10.89C468,532,453.87,520.39,437.08,520.39h-1.94a35.68,35.68,0,0,0-21.15,7,38.59,38.59,0,0,0-14.35,20.52,45.37,45.37,0,0,0-1.32,6.16,32,32,0,0,0-.42,4.7h0v.11a38.88,38.88,0,0,0,4.16,17.5l.08.15.06.16.08.19,0,0a10,10,0,0,1,1,4.16l-.15.81a10.11,10.11,0,0,1-8.23,9.16l-.28.05-59.06-.1-.48.09-.52.1-.48.18-.52,0a3.38,3.38,0,0,0-3.13,3.45l.11,66.36-.77.95a9.9,9.9,0,0,1-7.58,3.62,9.57,9.57,0,0,1-4.47-1.11A36.09,36.09,0,0,0,301,660.56c-8,0-16.6,2.58-25.32,8.77a13.36,13.36,0,0,0-3.43,3.52c-6,8.95-8.49,17.9-8.49,26.17,0,21.28,16.7,38.43,37.14,38.46h.06a35.86,35.86,0,0,0,16.7-4.09,9.46,9.46,0,0,1,4.33-1.07,10,10,0,0,1,8,4.23l.64.9.1,66.63a3.37,3.37,0,0,0,3.27,3.46l61.53-.1,1-.15h.61a2.85,2.85,0,0,0,2.18-.92,3.69,3.69,0,0,0,.88-2.42l-.58-2.05a45.75,45.75,0,0,1-6.82-24.11c0-9.3,2.77-19.24,8.94-28.88l.12-.18.12-.14a44.94,44.94,0,0,1,9.3-8.5l.08-.05.07-.06a49.45,49.45,0,0,1,24.67-7.41h.1A49.38,49.38,0,0,1,460.82,740l.08,0,.09.07a44.89,44.89,0,0,1,9.29,8.5l.12.16.12.16c6.16,9.64,8.94,19.58,8.92,28.9a45.66,45.66,0,0,1-6.81,24.11l-.59,2a3.65,3.65,0,0,0,.89,2.42,2.86,2.86,0,0,0,2.19.92h.59l.23,0,.74.11,61.55.1a3.37,3.37,0,0,0,3.27-3.46l.11-60.17a33.26,33.26,0,0,1-4.32.31h0a34.88,34.88,0,0,1-6.23-.86,44.47,44.47,0,0,1-6.58.55c-9,0-18.57-2.86-27.91-9.2l-1.06-.64a20.62,20.62,0,0,1-5.12-5.29,58.25,58.25,0,0,1-7.52-16c-.48-1.66-.84-3.32-1.15-5a48.09,48.09,0,0,1-.94-9A45.55,45.55,0,0,1,495.94,664.76Z" transform="translate(-260 -246.35)"/></svg>