<?xml version="1.0" encoding="utf-8"?>
<!-- Generator: Adobe Illustrator 24.0.0, SVG Export Plug-In . SVG Version: 6.00 Build 0)  -->
<svg version="1.1" id="Capa_1" xmlns="http://www.w3.org/2000/svg" xmlns:xlink="http://www.w3.org/1999/xlink" x="0px" y="0px"
	 viewBox="0 0 1300 812.5" style="enable-background:new 0 0 1300 812.5;" xml:space="preserve">
<style type="text/css">
	.st0{display:none;}
	.st1{display:inline;fill:url(#SVGID_1_);}
	.st2{fill:#FFFFFF;}
	.st3{display:inline;}
	.st4{display:inline;clip-path:url(#SVGID_3_);}
	.st5{fill:#F9ADA0;}
	.st6{fill:url(#SVGID_4_);}
	.st7{fill:url(#SVGID_5_);}
	.st8{fill:url(#SVGID_6_);}
	.st9{fill:url(#SVGID_7_);}
	.st10{fill:url(#SVGID_8_);}
	.st11{fill:url(#SVGID_9_);}
	.st12{fill:url(#SVGID_10_);}
	.st13{fill:url(#SVGID_11_);}
	.st14{fill:url(#SVGID_12_);}
	.st15{fill:url(#SVGID_13_);}
	.st16{fill:url(#SVGID_14_);}
	.st17{fill:url(#SVGID_15_);}
	.st18{fill:url(#SVGID_16_);}
	.st19{fill:url(#SVGID_17_);}
	.st20{fill:url(#SVGID_18_);}
	.st21{fill:url(#SVGID_19_);}
	.st22{fill:url(#SVGID_20_);}
	.st23{fill:url(#SVGID_21_);}
	.st24{fill:url(#SVGID_22_);}
	.st25{fill:url(#SVGID_23_);}
	.st26{fill:url(#SVGID_24_);}
	.st27{fill:url(#SVGID_25_);}
	.st28{fill:url(#SVGID_26_);}
	.st29{fill:url(#SVGID_27_);}
	.st30{fill:url(#SVGID_28_);}
	.st31{fill:url(#SVGID_29_);}
	.st32{fill:url(#SVGID_30_);}
	.st33{fill:url(#SVGID_31_);}
	.st34{fill:url(#SVGID_32_);}
	.st35{fill:url(#SVGID_33_);}
	.st36{fill:url(#SVGID_34_);}
	.st37{fill:url(#SVGID_35_);}
	.st38{fill:url(#SVGID_36_);}
	.st39{fill:url(#SVGID_37_);}
	.st40{fill:url(#SVGID_38_);}
	.st41{fill:url(#SVGID_39_);}
	.st42{fill:url(#SVGID_40_);}
	.st43{fill:#D25B5C;}
	.st44{fill:#3C3C3D;}
	.st45{fill:#F7E3BB;}
	.st46{fill:url(#XMLID_7_);}
	.st47{fill:url(#XMLID_27_);}
	.st48{fill:url(#XMLID_28_);}
	.st49{fill:#4A5DA5;}
	.st50{fill:url(#XMLID_29_);}
	.st51{fill:url(#XMLID_30_);}
	.st52{fill:url(#XMLID_35_);}
	.st53{fill:url(#XMLID_37_);}
	.st54{fill:url(#XMLID_38_);}
	.st55{fill:url(#SVGID_41_);}
	.st56{fill:#92C9C2;}
	.st57{fill-rule:evenodd;clip-rule:evenodd;fill:url(#SVGID_42_);}
	.st58{fill:url(#SVGID_43_);}
	.st59{fill:url(#SVGID_44_);}
	.st60{fill:url(#XMLID_42_);}
	.st61{fill:url(#XMLID_47_);}
	.st62{fill:#3B3B65;}
	.st63{fill:url(#SVGID_45_);}
	.st64{fill:url(#SVGID_46_);}
	.st65{fill-rule:evenodd;clip-rule:evenodd;fill:url(#XMLID_48_);}
	.st66{fill:url(#SVGID_47_);}
	.st67{fill:url(#XMLID_56_);}
	.st68{fill:url(#XMLID_57_);}
	.st69{fill:url(#XMLID_64_);}
	.st70{fill:url(#SVGID_48_);}
	.st71{fill:url(#XMLID_126_);}
	.st72{fill:url(#XMLID_128_);}
	.st73{fill:#79A8CC;}
	.st74{fill:#418AB7;}
	.st75{fill:#FCC27C;}
	.st76{fill:#EFA554;}
	.st77{fill:#D7D8DA;}
	.st78{fill:#E8E8E9;}
	.st79{fill:#FFD7A8;}
	.st80{fill:#484849;}
	.st81{fill:#FDDDBF;}
	.st82{fill:#FBD57D;}
	.st83{fill:#F9C350;}
	.st84{fill:#3E3E3F;}
	.st85{fill:#EF9DAD;}
	.st86{fill:#F7F7F8;}
	.st87{fill:#CACCCE;}
	.st88{opacity:0.32;fill:#FFF7A6;}
	.st89{opacity:0.32;fill:#8EBEDC;}
	.st90{opacity:0.64;fill:#8EBEDC;}
</style>
<g id="BACKGROUND" class="st0">
	
		<linearGradient id="SVGID_1_" gradientUnits="userSpaceOnUse" x1="407.8511" y1="627.7628" x2="892.7026" y2="183.1295" gradientTransform="matrix(1 0 0 -1 0 812)">
		<stop  offset="0" style="stop-color:#FBCEC6"/>
		<stop  offset="1" style="stop-color:#4B5DA5"/>
	</linearGradient>
	<rect x="400" y="156.3" class="st1" width="500" height="500"/>
</g>
<image style="overflow:visible;opacity:0.9;enable-background:new    ;" width="5796" height="3767" xlink:href="21465F90.png"  transform="matrix(0.2396 0 0 0.2396 -44.4522 -45.055)">
</image>
<g>
	<g>
		<g>
			<rect class="st2" width="1300" height="812.5"/>
		</g>
	</g>
</g>
<g class="st0">
	<defs>
		<rect id="SVGID_2_" width="1300" height="812.5"/>
	</defs>
	<clipPath id="SVGID_3_" class="st3">
		<use xlink:href="#SVGID_2_"  style="overflow:visible;"/>
	</clipPath>
	<g class="st4">
		<g id="XMLID_125_">
			<path class="st5" d="M1196.1,116.2c-5.4-0.2-15,1.3-19.8,3.3c-13.8,5.9-10.8,24.4-2.1,35.4c8.8,11.1,21.7,21.2,22.1,34.6
				c0.8,24.4-36.7,33.1-64.4,31.3c-64-4.1-126.5-21.6-190.7-22.8c-64.2-1-154.3,19-184.3,68.9c-13.1,21.9-15.4,48-8.9,72.1
				c10.4,38.6,30.6,68.3,20.7,107.1c-14.8,58.3-87.3,78.5-116.6,87.6c-54.6,16.9-101.2,49.5-142.8,84.9
				c-47.3,40.2-92.3,90.5-91,148.4c0.4,18.6,12.9,36.9,21.4,53.1H1310c0-59.3,0-486.3,0-541.6c0-46.1,0-136.9,0-135.8
				C1310,142.6,1282,118.8,1196.1,116.2z"/>
		</g>
		<g id="XMLID_349_">
			
				<linearGradient id="SVGID_4_" gradientUnits="userSpaceOnUse" x1="977.4603" y1="-278.7051" x2="1187.7548" y2="-278.7051" gradientTransform="matrix(0.9167 0.3995 0.3995 -0.9167 -262.2723 32.3952)">
				<stop  offset="0" style="stop-color:#84A47F"/>
				<stop  offset="1" style="stop-color:#3B3B64"/>
			</linearGradient>
			<path class="st6" d="M527.6,666.5c8.7,1.2,17.1,4.4,25.1,7.9c23.9,10.4,46.6,25.3,65.3,43.5c8.8,8.6,16.9,18.2,22.4,29.2
				c2.4,4.8,4.3,9.9,5.2,15.1c0.5,2.6,2.3,22.1,5.7,23.6c11.2,5.1,27.7-3.2,40-4c5.2-0.4,10.7-0.8,14.9-3.8c9.7-6.8,7.1-24.3,4-34
				c-2.3-7.3-7.4-14.1-14.6-16.6c-6.4-2.2-13.7-0.9-19.7-3.8c-14.1-6.9-11.8-31.1-26.1-37.5c-8.2-3.7-18,0.7-26.6-1.5
				c-10.3-2.6-15.1-14-23-21.1C580.2,645.2,549.3,651.3,527.6,666.5z"/>
		</g>
		<g id="XMLID_124_">
			
				<linearGradient id="SVGID_5_" gradientUnits="userSpaceOnUse" x1="2127.4031" y1="-234.5796" x2="2337.6785" y2="-234.5796" gradientTransform="matrix(-0.3554 0.9347 0.9347 0.3554 2248.1387 -1507.9155)">
				<stop  offset="0" style="stop-color:#84A47F"/>
				<stop  offset="1" style="stop-color:#3B3B64"/>
			</linearGradient>
			<path class="st7" d="M1284.9,401.8c-0.8,8.7-3.6,17.3-6.7,25.5c-9.2,24.4-23,47.8-40.3,67.3c-8.1,9.2-17.4,17.8-28.1,23.8
				c-4.7,2.6-9.6,4.7-14.9,5.9c-2.6,0.6-21.9,3.4-23.3,6.8c-4.5,11.4,4.5,27.5,5.9,39.7c0.6,5.2,1.3,10.6,4.5,14.7
				c7.2,9.3,24.6,5.9,34.1,2.4c7.2-2.7,13.7-8,15.9-15.4c1.9-6.5,0.2-13.7,2.9-19.9c6.2-14.4,30.5-13.2,36.2-27.8
				c3.3-8.4-1.5-17.9,0.3-26.7c2.1-10.4,13.2-15.8,20-24C1308.7,453.4,1301.1,422.8,1284.9,401.8z"/>
		</g>
		<g id="XMLID_289_">
			<g id="XMLID_123_">
				
					<linearGradient id="SVGID_6_" gradientUnits="userSpaceOnUse" x1="651.5734" y1="468.3597" x2="707.6804" y2="468.3597" gradientTransform="matrix(0.9002 -0.4355 -0.4355 -0.9002 274.1809 1338.0667)">
					<stop  offset="0" style="stop-color:#84A47F"/>
					<stop  offset="1" style="stop-color:#3B3B64"/>
				</linearGradient>
				<path class="st8" d="M752.3,726.1c4,10.3,5.7,42.5,2.7,70.2c4.2-1.5,8.3-3,12.5-4.5c-0.1-26.3-3-60.2-6.2-69.4
					c-8.2-23.4-21.3-45.6-40.8-60.9c-7-5.5-14.7-10.1-22-15.2c-42-30-67.3-82-64.8-133.6c0.6-12.9,2.8-26.2-0.7-38.6
					c-3.6-12.9-13.8-22.7-24.4-30.8l-1.4,2.3c-12.6,20.5-11,45.4,0.5,66.5c6.2,11.3,15.6,21,19.4,33.4c1.6,5.1,2.1,10.5,2.7,15.8
					c2.8,27.7,14.5,49.5,32.9,70.3C692.7,665.5,731.2,672,752.3,726.1z"/>
			</g>
			<g id="XMLID_122_">
				
					<linearGradient id="SVGID_7_" gradientUnits="userSpaceOnUse" x1="663.0754" y1="560.0838" x2="716.8625" y2="560.0838" gradientTransform="matrix(0.9002 -0.4355 -0.4355 -0.9002 274.1809 1338.0667)">
					<stop  offset="0" style="stop-color:#84A47F"/>
					<stop  offset="1" style="stop-color:#3B3B64"/>
				</linearGradient>
				<path class="st9" d="M642.7,572.5c-0.2-6.9,11.8-18,14.2-21.5c10.6-15,11.1-40.3,5-57.6c-15,11.3-25,28.9-27,47.6l3,26.3
					L642.7,572.5z"/>
			</g>
			<g id="XMLID_121_">
				
					<linearGradient id="SVGID_8_" gradientUnits="userSpaceOnUse" x1="662.2699" y1="520.617" x2="711.4482" y2="520.617" gradientTransform="matrix(0.9002 -0.4355 -0.4355 -0.9002 274.1809 1338.0667)">
					<stop  offset="0" style="stop-color:#84A47F"/>
					<stop  offset="1" style="stop-color:#3B3B64"/>
				</linearGradient>
				<path class="st10" d="M652.3,593.1c9.2,0.2,13.7-3.7,18.9-10.1c5.4-6.6,7.3-15.3,8.4-23.8c0.6-4.7,1-9.5,1.2-14.3
					c-11.8,4.2-35.8,14-37.5,29.2l4.3,15.1C647.6,589.1,651,593,652.3,593.1z"/>
			</g>
			<g id="XMLID_120_">
				
					<linearGradient id="SVGID_9_" gradientUnits="userSpaceOnUse" x1="620.9563" y1="550.452" x2="659.0734" y2="550.452" gradientTransform="matrix(0.9002 -0.4355 -0.4355 -0.9002 274.1809 1338.0667)">
					<stop  offset="0" style="stop-color:#84A47F"/>
					<stop  offset="1" style="stop-color:#3B3B64"/>
				</linearGradient>
				<path class="st11" d="M629.7,559.9c-1.2-4.8-8.1-9.7-12.1-10.7c-18.7-4.7-30.7-2.6-34.8-0.2c4,14.5,19.3,24.6,23.1,27.3
					c7.7,5.5,19.5,6.7,27.7,4.7c0,0,0.5-8.8,0.5-9.2C634.1,571.2,629.7,559.9,629.7,559.9z"/>
			</g>
			<g id="XMLID_119_">
				
					<linearGradient id="SVGID_10_" gradientUnits="userSpaceOnUse" x1="604.0353" y1="513.2768" x2="655.369" y2="513.2768" gradientTransform="matrix(0.9002 -0.4355 -0.4355 -0.9002 274.1809 1338.0667)">
					<stop  offset="0" style="stop-color:#84A47F"/>
					<stop  offset="1" style="stop-color:#3B3B64"/>
				</linearGradient>
				<path class="st12" d="M648.6,612.7c-12.1,10.5-40.5,2.8-50.6-6.7c-4.7-4.5-9.7-7.5-13.3-12.9c7.6-7.2,20.9-12.8,31.2-11.3
					c6.3,0.9,20,6,22.2,12c0,0,7,5.3,7.6,7.6C646.5,603.6,648.6,612.7,648.6,612.7z"/>
			</g>
			<g id="XMLID_118_">
				
					<linearGradient id="SVGID_11_" gradientUnits="userSpaceOnUse" x1="592.7008" y1="453.5663" x2="684.8839" y2="453.5663" gradientTransform="matrix(0.9002 -0.4355 -0.4355 -0.9002 274.1809 1338.0667)">
					<stop  offset="0" style="stop-color:#84A47F"/>
					<stop  offset="1" style="stop-color:#3B3B64"/>
				</linearGradient>
				<path class="st13" d="M656.7,624.5c-20.7-10-54.4-4-66.5,5.8c8.8,12.1,20.4,21.1,35.2,23.6c27.2,4.7,55.7-4.5,56.7-3.9
					c-16.7,2.8-44.7,13.3-54.9,31.3c31.5,16.7,68.5,6.9,83.1-10.4c0,0-0.7-6.3-1.5-7C708.2,663.1,656.7,624.5,656.7,624.5z"/>
			</g>
			<g id="XMLID_117_">
				
					<linearGradient id="SVGID_12_" gradientUnits="userSpaceOnUse" x1="607.5382" y1="387.4622" x2="698.1573" y2="387.4622" gradientTransform="matrix(0.9002 -0.4355 -0.4355 -0.9002 274.1809 1338.0667)">
					<stop  offset="0" style="stop-color:#84A47F"/>
					<stop  offset="1" style="stop-color:#3B3B64"/>
				</linearGradient>
				<path class="st14" d="M732.7,690c-8.7,27.8-34.5,36.5-50.5,36c-9.1-0.3-21.5-0.9-29.8-1.2c3.3-15.5,14.2-29.4,28.7-36.1
					c5.6-2.6,11.6-3.8,17.3-6.6c0,0,13-9.3,27.5-3.5C738.3,683.5,732.7,690,732.7,690z"/>
			</g>
			<g id="XMLID_116_">
				
					<linearGradient id="SVGID_13_" gradientUnits="userSpaceOnUse" x1="667.1597" y1="481.3342" x2="698.9222" y2="481.3342" gradientTransform="matrix(0.9002 -0.4355 -0.4355 -0.9002 274.1809 1338.0667)">
					<stop  offset="0" style="stop-color:#84A47F"/>
					<stop  offset="1" style="stop-color:#3B3B64"/>
				</linearGradient>
				<path class="st15" d="M685.1,635.6c-1.1-2.8,1.8-8.2,3.3-12.2c2.3-6.1,3.6-12.5,3.9-19c0.1-3,0.1-6.1-1-8.9
					c-1.4-3.7-4.3-6.7-7.1-9.5c-2.8-2.7-5.5-5.5-8.3-8.2c-10.9,7.6-15.1,22.3-11.4,35.1c0.1,0.4,8,11.2,9.1,13.2
					C674.6,628.2,685.8,637.2,685.1,635.6z"/>
			</g>
			<g id="XMLID_317_">
				
					<linearGradient id="SVGID_14_" gradientUnits="userSpaceOnUse" x1="683.0677" y1="448.1085" x2="710.1216" y2="448.1085" gradientTransform="matrix(0.9002 -0.4355 -0.4355 -0.9002 274.1809 1338.0667)">
					<stop  offset="0" style="stop-color:#84A47F"/>
					<stop  offset="1" style="stop-color:#3B3B64"/>
				</linearGradient>
				<path class="st16" d="M718.1,660c1.8-1.6,5.3-8.6,5.6-10c1.3-7.4-0.2-13.7-3.4-20.4c-3.2-6.8-8.1-12.5-13.6-17.3
					c-3.9-3.3-8.1-6.2-11.3-10.3c-7.8,14.4-5.5,34.1,5.4,46l8.6,11.8L718.1,660z"/>
			</g>
			<g id="XMLID_313_">
				
					<linearGradient id="SVGID_15_" gradientUnits="userSpaceOnUse" x1="701.1166" y1="415.954" x2="729.032" y2="415.954" gradientTransform="matrix(0.9002 -0.4355 -0.4355 -0.9002 274.1809 1338.0667)">
					<stop  offset="0" style="stop-color:#84A47F"/>
					<stop  offset="1" style="stop-color:#3B3B64"/>
				</linearGradient>
				<path class="st17" d="M743.6,686.9c0-5.8,2.9-10.2,5.1-15.6c5.5-13.4,1-29.5-8.7-40.3c-3.8-4.2-8.4-7.9-10.9-13.1
					c-4.7,5-5.1,12.5-5,19.3c0.2,14,2.5,28.1,11.7,38.7c0,0,0.6,8.5,1.2,8.9C737.7,685.2,743.6,686.9,743.6,686.9z"/>
			</g>
			<g id="XMLID_310_">
				
					<linearGradient id="SVGID_16_" gradientUnits="userSpaceOnUse" x1="703.2374" y1="375.2444" x2="736.4111" y2="375.2444" gradientTransform="matrix(0.9002 -0.4355 -0.4355 -0.9002 274.1809 1338.0667)">
					<stop  offset="0" style="stop-color:#84A47F"/>
					<stop  offset="1" style="stop-color:#3B3B64"/>
				</linearGradient>
				<path class="st18" d="M760.9,723.6c2.3-4.4,5.7-8.1,8.2-12.4c4.9-8.3,6.3-18.4,4.6-27.9s-6.5-18.2-13.1-25.3
					c-2.1-2.2-4.4-4.4-5.5-7.3c-9.6,16.4-11.1,37.1-1.4,53.5c0,0,0.7,11.4,0.9,11.9C754.7,716.7,760.9,723.6,760.9,723.6z"/>
			</g>
			<g id="XMLID_302_">
				
					<linearGradient id="SVGID_17_" gradientUnits="userSpaceOnUse" x1="695.3361" y1="332.0257" x2="740.4596" y2="332.0257" gradientTransform="matrix(0.9002 -0.4355 -0.4355 -0.9002 274.1809 1338.0667)">
					<stop  offset="0" style="stop-color:#84A47F"/>
					<stop  offset="1" style="stop-color:#3B3B64"/>
				</linearGradient>
				<path class="st19" d="M766.9,757.6c6.8-2.7,13.7-6.5,17.4-12.8c2.7-4.6,3.6-10,3.8-15.4c0.3-7.6-0.7-15.3-3-22.5
					c-0.6-2-1.3-4-1.4-6.1c-0.1-2.1,0.5-4.3,2.1-5.7c-8.8,2.7-15.7,10-19.1,18.5c-3.4,8.5-1.6,17.9-1.3,27.1c0,1-2.2,11.3-2.2,11.3
					L766.9,757.6z"/>
			</g>
			<g id="XMLID_298_">
				
					<linearGradient id="SVGID_18_" gradientUnits="userSpaceOnUse" x1="623.653" y1="350.2016" x2="699.67" y2="350.2016" gradientTransform="matrix(0.9002 -0.4355 -0.4355 -0.9002 274.1809 1338.0667)">
					<stop  offset="0" style="stop-color:#84A47F"/>
					<stop  offset="1" style="stop-color:#3B3B64"/>
				</linearGradient>
				<path class="st20" d="M753.1,728.4c-2.1,4.4-4.8,8.6-8.6,11.6c-1.9,1.6-4.2,2.8-6.3,4c-3.4,1.8-6.7,3.7-10.1,5.5
					c-2.8,1.5-5.6,3-8.6,3.6c-2.9,0.6-6,0.3-9-0.1c-10.8-1.4-21.4-4.7-31.2-9.6c10.5-3.3,18.7-11.2,26.8-18.6
					c8.1-7.4,16.9-14.9,27.7-17.1c3.1-0.6,6.5-0.8,9.5,0.1l1.6,0.9l8.3,12.9L753.1,728.4z"/>
			</g>
			<g id="XMLID_295_">
				
					<linearGradient id="SVGID_19_" gradientUnits="userSpaceOnUse" x1="640.2148" y1="318.028" x2="694.1816" y2="318.028" gradientTransform="matrix(0.9002 -0.4355 -0.4355 -0.9002 274.1809 1338.0667)">
					<stop  offset="0" style="stop-color:#84A47F"/>
					<stop  offset="1" style="stop-color:#3B3B64"/>
				</linearGradient>
				<path class="st21" d="M756.4,766.9c-7.2,5.2-16.6,6.2-25.3,4.6c-8.7-1.6-16.7-5.5-24.5-9.7c4,0.4,8-1.1,11.5-3.3
					c3.4-2.2,6.4-4.9,9.6-7.4c5.6-4.3,11.8-7.7,18.5-10.1c3.5-1.2,7.8-2,10.5,0.6c0,0,2.1,3.2,2.4,6c0.3,2.9,0.2,14.4,0.2,14.4
					L756.4,766.9z"/>
			</g>
			<g id="XMLID_290_">
				
					<linearGradient id="SVGID_20_" gradientUnits="userSpaceOnUse" x1="631.3364" y1="583.0038" x2="664.4517" y2="583.0038" gradientTransform="matrix(0.9002 -0.4355 -0.4355 -0.9002 274.1809 1338.0667)">
					<stop  offset="0" style="stop-color:#84A47F"/>
					<stop  offset="1" style="stop-color:#3B3B64"/>
				</linearGradient>
				<path class="st22" d="M623.2,534.5c0-0.1-0.1-0.2-0.1-0.3c-0.9-3.1-2.6-5.9-4.8-8.3c-4.5-4.9-11.2-7.4-17.8-8.1
					c-6.6-0.8-13.3,0-19.9,0.8c0.3,4.8,2.5,9.3,5.6,12.9c3.1,3.7,6.9,6.6,10.9,9.2c4.5,3,9.4,5.8,14.8,6.6
					c5.4,0.7,11.4-0.9,14.6-5.4L623.2,534.5z"/>
			</g>
		</g>
		<g id="XMLID_207_">
			<g id="XMLID_226_">
				<g id="XMLID_284_">
					
						<linearGradient id="SVGID_21_" gradientUnits="userSpaceOnUse" x1="797.6487" y1="357.05" x2="861.1754" y2="357.05" gradientTransform="matrix(1 0 0 -1 0 812)">
						<stop  offset="0" style="stop-color:#84A47F"/>
						<stop  offset="1" style="stop-color:#3B3B64"/>
					</linearGradient>
					<path class="st23" d="M832.1,653.6c-10.4-10.3-33.4-77.2-34.2-91.7c-1.3-24.1,2.3-49.1,14.2-70.1c4.3-7.6,9.5-14.5,14.2-21.9
						c26.8-42.7,30.2-99,8.8-144.6c-5.4-11.4-12.3-22.5-13.8-35.1c-1.5-13,4-25.6,10.6-36.9l2.1,1.5c19,13.8,26.8,36.9,24.2,60.2
						c-1.4,12.5-6.3,24.8-5.1,37.3c0.5,5.2,2,10.2,3.4,15.2c7.8,26.1,5.3,50-3.5,75.7c-14.4,41.7-46.7,62-45.6,118.6
						c0.3,16.8,25.5,79.6,46.6,94.8"/>
				</g>
				<g id="XMLID_281_">
					
						<linearGradient id="SVGID_22_" gradientUnits="userSpaceOnUse" x1="802.4" y1="461.6" x2="851.5571" y2="461.6" gradientTransform="matrix(1 0 0 -1 0 812)">
						<stop  offset="0" style="stop-color:#84A47F"/>
						<stop  offset="1" style="stop-color:#3B3B64"/>
					</linearGradient>
					<path class="st24" d="M849.1,382.5c-2.4-6.3-17.3-11.9-20.8-14.1c-15.2-9.5-25-32.2-25.9-50.1c17.7,4.6,33.4,16.8,42.1,32.9
						l7,24.9L849.1,382.5z"/>
				</g>
				<g id="XMLID_278_">
					
						<linearGradient id="SVGID_23_" gradientUnits="userSpaceOnUse" x1="804.4309" y1="422.9277" x2="850.8944" y2="422.9277" gradientTransform="matrix(1 0 0 -1 0 812)">
						<stop  offset="0" style="stop-color:#84A47F"/>
						<stop  offset="1" style="stop-color:#3B3B64"/>
					</linearGradient>
					<path class="st25" d="M848.1,404.6c-8.2,3.6-13.7,1.8-20.8-2.1c-7.3-4-12.3-11.1-16.4-18.3c-2.3-4-4.5-8.2-6.4-12.4
						c12.2-0.6,37.5-0.7,44.7,12.4l1.7,15.2C850.9,399.3,849.3,404.1,848.1,404.6z"/>
				</g>
				<g id="XMLID_275_">
					
						<linearGradient id="SVGID_24_" gradientUnits="userSpaceOnUse" x1="856.1064" y1="449.2298" x2="894.6136" y2="449.2298" gradientTransform="matrix(1 0 0 -1 0 812)">
						<stop  offset="0" style="stop-color:#84A47F"/>
						<stop  offset="1" style="stop-color:#3B3B64"/>
					</linearGradient>
					<path class="st26" d="M856.2,366.2c-0.8-4.8,3.7-11.8,6.9-14.1c15.1-11.2,26.7-13.7,31.3-13.2c1.8,14.5-8.3,29.4-10.7,33.2
						c-4.9,7.8-15.1,13.3-23.3,14.6c0,0-3.8-7.7-3.9-8.1C856.4,378.2,856.2,366.2,856.2,366.2z"/>
				</g>
				<g id="XMLID_272_">
					
						<linearGradient id="SVGID_25_" gradientUnits="userSpaceOnUse" x1="857.085" y1="412.6399" x2="909.0679" y2="412.6399" gradientTransform="matrix(1 0 0 -1 0 812)">
						<stop  offset="0" style="stop-color:#84A47F"/>
						<stop  offset="1" style="stop-color:#3B3B64"/>
					</linearGradient>
					<path class="st27" d="M858.7,421c14.8,5,37.6-12.5,43.1-24.9c2.6-5.8,6-10.3,7.2-16.6c-9.5-3.7-23.6-3.8-32.4,1.4
						c-5.3,3.2-15.8,12.9-15.5,19.1c0,0-4.3,7.4-4,9.7C857.3,412,858.7,421,858.7,421z"/>
				</g>
				<g id="XMLID_266_">
					
						<linearGradient id="SVGID_26_" gradientUnits="userSpaceOnUse" x1="823.3102" y1="354.4174" x2="917.8712" y2="354.4174" gradientTransform="matrix(1 0 0 -1 0 812)">
						<stop  offset="0" style="stop-color:#84A47F"/>
						<stop  offset="1" style="stop-color:#3B3B64"/>
					</linearGradient>
					<path class="st28" d="M855.8,434.6c15-16.7,47.6-23.9,62.2-19.5c-3.5,14.2-10.5,26.6-22.9,34.4c-22.8,14.3-52,16.7-52.6,17.5
						c16.1-3.7,45.3-4.6,61.2,7.9c-22.2,26.8-59.3,31.7-78.9,21.5c0,0-1.7-5.9-1.3-6.9C823.7,488.6,855.8,434.6,855.8,434.6z"/>
				</g>
				<g id="XMLID_262_">
					
						<linearGradient id="SVGID_27_" gradientUnits="userSpaceOnUse" x1="808.7886" y1="291.2485" x2="897" y2="291.2485" gradientTransform="matrix(1 0 0 -1 0 812)">
						<stop  offset="0" style="stop-color:#84A47F"/>
						<stop  offset="1" style="stop-color:#3B3B64"/>
					</linearGradient>
					<path class="st29" d="M811.6,522c18.2,21.9,44.7,20.1,59,13.7c8.1-3.6,19-8.9,26.4-12.2c-8.8-12.8-23.8-21.3-39.3-21.9
						c-6-0.2-11.9,0.9-18,0.5c0,0-15.1-3.5-26.1,7.1C804.1,518.3,811.6,522,811.6,522z"/>
				</g>
				<g id="XMLID_253_">
					
						<linearGradient id="SVGID_28_" gradientUnits="userSpaceOnUse" x1="813.8414" y1="384.5197" x2="844.4584" y2="384.5197" gradientTransform="matrix(1 0 0 -1 0 812)">
						<stop  offset="0" style="stop-color:#84A47F"/>
						<stop  offset="1" style="stop-color:#3B3B64"/>
					</linearGradient>
					<path class="st30" d="M834.3,455.2c0-3-4.6-6.7-7.5-9.8c-4.3-4.6-7.9-9.9-10.5-15.7c-1.2-2.6-2.3-5.4-2.4-8.4
						c-0.2-3.9,1.4-7.6,2.9-11.2c1.5-3.5,2.9-7,4.4-10.5c12.7,2.8,22,14.5,23.3,27.4c0,0.4-3.1,13.1-3.2,15.3
						C841,444.6,834.3,456.9,834.3,455.2z"/>
				</g>
				<g id="XMLID_250_">
					
						<linearGradient id="SVGID_29_" gradientUnits="userSpaceOnUse" x1="800.235" y1="352.8" x2="826.8797" y2="352.8" gradientTransform="matrix(1 0 0 -1 0 812)">
						<stop  offset="0" style="stop-color:#84A47F"/>
						<stop  offset="1" style="stop-color:#3B3B64"/>
					</linearGradient>
					<path class="st31" d="M813.6,489.6c-2.2-0.8-8-5.8-8.7-6.9c-3.9-6.2-4.9-12.4-4.5-19.7c0.4-7.3,2.6-14.3,5.9-20.7
						c2.2-4.4,5-8.6,6.3-13.5c12.4,10.1,17.6,28.7,12.3,43.5l-3.4,13.9L813.6,489.6z"/>
				</g>
				<g id="XMLID_247_">
					
						<linearGradient id="SVGID_30_" gradientUnits="userSpaceOnUse" x1="780.5536" y1="322.55" x2="805.817" y2="322.55" gradientTransform="matrix(1 0 0 -1 0 812)">
						<stop  offset="0" style="stop-color:#84A47F"/>
						<stop  offset="1" style="stop-color:#3B3B64"/>
					</linearGradient>
					<path class="st32" d="M800.6,523.2c-2.2-5.2-6.5-8.2-10.4-12.1c-10-10-11.9-26.3-7.2-39.6c1.9-5.2,4.6-10.3,5-15.8
						c6.1,2.8,9.3,9.4,11.7,15.6c5.1,12.7,8.2,26.3,3.8,39.3c0,0,2.7,7.9,2.2,8.5C805.3,519.5,800.6,523.2,800.6,523.2z"/>
				</g>
				<g id="XMLID_244_">
					
						<linearGradient id="SVGID_31_" gradientUnits="userSpaceOnUse" x1="771.1881" y1="283" x2="801.6464" y2="283" gradientTransform="matrix(1 0 0 -1 0 812)">
						<stop  offset="0" style="stop-color:#84A47F"/>
						<stop  offset="1" style="stop-color:#3B3B64"/>
					</linearGradient>
					<path class="st33" d="M798.6,562.9c-3.7-3.1-8.1-5.2-12-8.1c-7.5-5.7-12.6-14.3-14.5-23.4c-1.9-9.2-0.9-18.9,2.4-27.7
						c1-2.8,2.3-5.6,2.3-8.6c14.8,11.2,23.8,29.3,21.2,47.8c0,0,3.6,10.5,3.6,11C801.7,554.3,798.6,562.9,798.6,562.9z"/>
				</g>
				<g id="XMLID_240_">
					
						<linearGradient id="SVGID_32_" gradientUnits="userSpaceOnUse" x1="765.6" y1="240.9471" x2="807.2001" y2="240.9471" gradientTransform="matrix(1 0 0 -1 0 812)">
						<stop  offset="0" style="stop-color:#84A47F"/>
						<stop  offset="1" style="stop-color:#3B3B64"/>
					</linearGradient>
					<path class="st34" d="M805.9,595.8c-7.2,0.1-14.7-0.8-20.5-5.1c-4.2-3.1-7-7.7-9.1-12.5c-3.1-6.8-5-14-5.7-21.5
						c-0.2-2-0.3-4.1-1-6s-2-3.7-4-4.3c8.9-0.8,17.9,3.2,24.2,9.6c6.2,6.4,8.1,15.6,11.2,24c0.3,0.9,6.2,9.3,6.2,9.3L805.9,595.8z"
						/>
				</g>
				<g id="XMLID_237_">
					
						<linearGradient id="SVGID_33_" gradientUnits="userSpaceOnUse" x1="804.8" y1="255.9605" x2="879.5999" y2="255.9605" gradientTransform="matrix(1 0 0 -1 0 812)">
						<stop  offset="0" style="stop-color:#84A47F"/>
						<stop  offset="1" style="stop-color:#3B3B64"/>
					</linearGradient>
					<path class="st35" d="M807.5,564.2c3.5,3.1,7.5,6,12,7.3c2.3,0.7,4.8,1,7.2,1.2c3.7,0.4,7.4,0.8,11.1,1.2
						c3,0.3,6.1,0.7,9.1,0.1c2.9-0.6,5.5-1.9,8.1-3.4c9.2-5.3,17.6-12.2,24.6-20.3c-10.7,0.9-21.1-3.1-31.1-6.8
						c-10.1-3.7-20.8-7.2-31.3-5.1c-3.1,0.6-6.1,1.7-8.6,3.6l-1.1,1.4l-2.7,14.7L807.5,564.2z"/>
				</g>
				<g id="XMLID_233_">
					
						<linearGradient id="SVGID_34_" gradientUnits="userSpaceOnUse" x1="808.9164" y1="224.9596" x2="861.9" y2="224.9596" gradientTransform="matrix(1 0 0 -1 0 812)">
						<stop  offset="0" style="stop-color:#84A47F"/>
						<stop  offset="1" style="stop-color:#3B3B64"/>
					</linearGradient>
					<path class="st36" d="M818.8,600.3c8.4,2,17.3-0.6,24.6-5.2c7.2-4.6,13-11.2,18.5-17.9c-3.5,1.9-7.7,2-11.6,1.3
						c-3.9-0.7-7.6-2.1-11.4-3.1c-6.6-1.8-13.6-2.6-20.4-2.2c-3.6,0.2-7.8,1.1-9.3,4.4c0,0-0.7,3.6,0.1,6.3s5.2,13,5.2,13
						L818.8,600.3z"/>
				</g>
				<g id="XMLID_227_">
					
						<linearGradient id="SVGID_35_" gradientUnits="userSpaceOnUse" x1="852.2932" y1="481.3545" x2="885.9888" y2="481.3545" gradientTransform="matrix(1 0 0 -1 0 812)">
						<stop  offset="0" style="stop-color:#84A47F"/>
						<stop  offset="1" style="stop-color:#3B3B64"/>
					</linearGradient>
					<path class="st37" d="M852.6,340.9c0-0.1,0-0.2,0-0.3c-0.3-3.1,0.1-6.3,1.2-9.2c2.3-6.1,7.3-10.8,13-14s12-4.9,18.3-6.7
						c1.5,4.4,1.2,9.3-0.2,13.7c-1.4,4.4-3.8,8.5-6.4,12.4c-3,4.4-6.3,8.7-10.9,11.4c-4.6,2.7-10.7,3.4-15.2,0.6L852.6,340.9z"/>
				</g>
			</g>
		</g>
		<g id="XMLID_204_">
			
				<linearGradient id="SVGID_36_" gradientUnits="userSpaceOnUse" x1="2765.9673" y1="1266.63" x2="2967.2859" y2="1266.63" gradientTransform="matrix(-0.5808 0.814 -0.814 -0.5808 3531.0972 -893.8723)">
				<stop  offset="0" style="stop-color:#84A47F"/>
				<stop  offset="1" style="stop-color:#3B3B64"/>
			</linearGradient>
			<path class="st38" d="M804.4,709.4c-8.7,8.6-15.5,19.5-18.6,31.3c-1.6,6.1-1.2,11.8-1.5,17.9c-0.3,6.2-4.7,10.3-10.6,13.1
				c-4.7,2.3-10.5,2.8-15.3,0.7c-7.3-3.2-11-11.5-12.5-19.4c-2.1-10.6-3.8-23.7,5.2-29.9c13.8-9.6,4.5-22.7,20.1-38.9
				c5.9-6.1,22.3-8.4,29.3-13.1c8.6-5.7,11.4-17.1,18.5-24.5c9.6-9.9,26.3-10.7,38-3.4c3.4,2.1,6.5,4.9,10.3,5.9
				c7,1.9,14-2.1,20.7-4.8c10-4,21.4-5.1,31.7-1.7c10.3,3.4,19.1,11.5,22.1,21.9c-28.7-10.2-60.2,1.5-87.9,14.1
				C836.2,686.8,818.2,695.6,804.4,709.4z"/>
		</g>
		<g id="XMLID_201_">
			
				<linearGradient id="SVGID_37_" gradientUnits="userSpaceOnUse" x1="2565.7542" y1="1010.451" x2="2776.1675" y2="1010.451" gradientTransform="matrix(-0.4297 0.9029 -0.9029 -0.4297 2813.6001 -1284.1799)">
				<stop  offset="0" style="stop-color:#84A47F"/>
				<stop  offset="1" style="stop-color:#3B3B64"/>
			</linearGradient>
			<path class="st39" d="M787.1,592.7c-5.7,6.6-10,14.6-13.8,22.5c-11.2,23.5-18.6,49.7-20.8,75.7c-1,12.2-0.8,24.8,2.2,36.8
				c1.3,5.2,3.2,10.2,6,14.8c1.3,2.3,12.7,18.2,11.2,21.5c-5.1,11.2-23,15.8-32.8,23.2c-4.2,3.1-8.6,6.4-13.8,6.9
				c-11.7,1.2-21.3-13.7-25.3-23c-3-7-3.7-15.5,0.1-22.1c3.4-5.8,9.8-9.6,12.4-15.8c6.1-14.4-11.5-31.2-4.9-45.4
				c3.8-8.1,14-11.3,19.1-18.6c6-8.7,2.3-20.5,3.5-31C733.4,611.2,760.8,595.5,787.1,592.7z"/>
		</g>
		<g id="XMLID_197_">
			
				<linearGradient id="SVGID_38_" gradientUnits="userSpaceOnUse" x1="447.6484" y1="382.6739" x2="627.7001" y2="382.6739" gradientTransform="matrix(0.9002 -0.4355 -0.4355 -0.9002 274.1809 1338.0667)">
				<stop  offset="0" style="stop-color:#84A47F"/>
				<stop  offset="1" style="stop-color:#3B3B64"/>
			</linearGradient>
			<path class="st40" d="M474.2,723.6c9.9-0.6,20.1,0.9,29.8,2.9c29,5.9,57.7,17.2,82.6,33.1c11.7,7.5,23,16.3,31.7,27.2
				c3.8,4.8,7,9.9,9.3,15.6c1.1,2.8,1.3,6.3,2.6,8.8c2,4,7.5,6,11.5,6.9c13.6,3,27.7-0.8,41.2-4.6c5.7-1.6,11.6-3.4,15.7-7.7
				c9.1-9.8,2.2-28.7-3.5-38.7c-4.3-7.5-11.5-14-20.1-15c-7.6-1-15.4,2.2-22.8,0.4c-17.2-4.4-20.3-31.8-37.7-35.6
				c-10-2.1-19.8,4.9-29.9,4.5c-12-0.5-20.1-12-30.4-18.1C527.6,687.7,494.7,701.7,474.2,723.6z"/>
		</g>
		<g id="XMLID_194_">
			
				<linearGradient id="SVGID_39_" gradientUnits="userSpaceOnUse" x1="1300.0248" y1="-1135.8679" x2="1478.5099" y2="-1135.8679" gradientTransform="matrix(0.9582 0.286 0.286 -0.9582 -423.4272 -694.5635)">
				<stop  offset="0" style="stop-color:#84A47F"/>
				<stop  offset="1" style="stop-color:#3B3B64"/>
			</linearGradient>
			<path class="st41" d="M662.2,815.8c-10.2-9.6-25.9-8.3-39.8-6.8c-16.8,1.7-31.9,6.8-48.8,5.9c-16.9-0.9-38.4-8.1-51.8-18.5
				c-25.6-19.9-20.9-42.5-20.9-42.5c3.5-1.2,9.6,22,27.5,25.1c10.5,1.8,22-2,30.2,4.9c2.2,1.9,3.7,4.4,6,6.2
				c5.4,4.1,13.2,2.4,19.5-0.2c9.2-3.7,17.9-8.8,27.4-11.6c9.5-2.9,20.4-3.4,28.9,1.8c3.8,2.3,7,5.6,10.8,7.9
				c5.2,3.1,11.5,4.1,16.2,8c4.6,3.8,6.1,12.6,0.6,15.2"/>
		</g>
		<g id="XMLID_112_">
			
				<linearGradient id="SVGID_40_" gradientUnits="userSpaceOnUse" x1="2486.3386" y1="162.2829" x2="2664.6636" y2="162.2829" gradientTransform="matrix(-0.2527 0.9676 -0.9676 -0.2527 2042.5988 -2017.8707)">
				<stop  offset="0" style="stop-color:#84A47F"/>
				<stop  offset="1" style="stop-color:#3B3B64"/>
			</linearGradient>
			<path class="st42" d="M1214.7,513.8c-2.9-13.7,6.4-26.4,14.8-37.6c10.2-13.5,22.3-23.8,30.4-38.7c8-14.9,13-37,11-53.8
				c-3.7-32.2-25.5-39.9-25.5-39.9c-2.8,2.4,13.8,19.6,7.2,36.5c-3.9,10-13.1,17.8-11.4,28.4c0.4,2.8,1.9,5.5,2.2,8.3
				c0.7,6.8-4.8,12.5-10.3,16.5c-8,6-16.8,10.8-24.2,17.4c-7.4,6.6-13.4,15.7-13.5,25.6c0,4.5,1.2,8.9,1.1,13.4
				c-0.1,6-2.5,12-1.6,17.9c0.9,6,7.6,11.7,12.6,8.4"/>
		</g>
		<g id="XMLID_168_">
			<path class="st43" d="M878.4,480.2c-5.9,0.4-33.3-1-40.8-2.8c-0.4-0.8,0-1.8,0.5-2.6c3.3-5.7,6.7-11.4,10-17
				c9.6,0.7,19.8-0.2,29.4,0.5L878.4,480.2z"/>
		</g>
		<path id="XMLID_182_" class="st43" d="M846.2,470.6l-60.5,24.1c0,0-8.4,0-14,12.7c-1.5,3.4-15.5,87.2-15.5,87.2s13.3-4.3,29.8-3.4
			c16.4,0.9,23.6,5.1,23.6,5.1v41.1h162.7l46.7-55.1l-40-92.6l-73.6-21.4L846.2,470.6z"/>
		<path id="XMLID_200_" class="st44" d="M873.5,321.4c-1.3,1.6-2.8,3-4.5,4.1c-0.3-0.3-0.7-0.4-1.3-0.4c-11.5,1-24.9,0.2-31.6,11.5
			c-2.9,5-3.6,10.9-2.9,16.6c0.8,6,3.1,13.5,6.2,18.7c0.2,0.4,0.5,0.7,0.8,0.9c1.4,2.1,4.8,2.2,5.6-0.6c1.2-4.6-0.2-8.7-0.8-13
			c1.1-0.2,2-0.9,2.4-2.2c1.9-6.8,5.7-12.2,11.3-16.5c0,0,0,0-0.1-0.1c1.1-1.3,0.9-3.2,0-4.3c6.7-3,13.3-6,17-13.1
			C876.3,321.7,874.5,320.1,873.5,321.4z"/>
		<path id="XMLID_111_" class="st44" d="M929.5,329.9c-1-0.5-2.1,0-2.4,0.9c-1.6,0-3.2,0.4-4.8,0.9c-2,0.6-3.2,3.5-1.3,5.1
			c10,8.2,9.3,26.1,6.9,37.6c-0.8,3.9,5.3,5.6,6,1.7c1.8-9.8,4.1-19.6,5.3-29.5C940.1,338.6,936.4,333.3,929.5,329.9z"/>
		<path id="XMLID_179_" class="st45" d="M849.6,474.9l1.8-51.9l-4.9-17.8c0,0-7.3,1.8-9.3-11.8c-1.6-10.9-1.5-12.5-1.5-12.5
			s-1.2-8.3,8.9-8.3l10.7-31c0,0,10.4-8.3,39.9-8.3s33.5,6.4,33.5,6.4l4,25.8l-0.9,6.8c0,0,6.4,0.7,6.4,7.1s-2.3,16.6-2.3,16.6
			s-0.9,6.4-5.5,5.1c0,0-3.9,15.4-4.8,20.7c-0.9,5.3-1.6,26-1.6,26s-7.4,8.1-20.3,8.1l7.6,22.6c0,0,4.2,34.7-22.5,34.7
			C862.2,513.2,849.6,474.9,849.6,474.9z"/>
		
			<linearGradient id="XMLID_7_" gradientUnits="userSpaceOnUse" x1="897.3465" y1="499.105" x2="889.8792" y2="437.0333" gradientTransform="matrix(1 0 0 -1 0 812)">
			<stop  offset="0" style="stop-color:#F7E2BB"/>
			<stop  offset="1" style="stop-color:#D2B795"/>
		</linearGradient>
		<path id="XMLID_108_" class="st46" d="M859.1,397.7c0,0,2.9,0.6,3.6-2.4c0.7-3-4.6-8.9,2.2-15.2c6.9-6.3,1.5-19.9,1.5-19.9
			s21.5-10,41.2-8.9s23.4,1.9,23.4,1.9s0.2-17.8-1.7-20.1c-1.9-2.2-8.2-5-15.2-5.4c-7.1-0.4-36.4,4.8-38.6,5.9
			c-2.2,1.1-19.7,16.5-19.7,16.5l-3.2,14.7L859.1,397.7z"/>
		<path id="XMLID_183_" class="st45" d="M761.8,605c-2,8.9-4.1,34.2,15.3,34.2c0,0,37,7.1,37-30.7c0-3.4,0.4-7.6-0.3-10.1
			c-7.3-25.7-49.4-8.4-49.4-8.4S762.6,601.6,761.8,605z"/>
		<path id="XMLID_3509_" class="st45" d="M1218.1,476.1l-9.4-27.4l5-26.9c0,0,11.3-2.2,12.5-6.9c1.3-4.7,7.5-22.5,3.1-25.7
			c-4.4-3.1-5.6-4.7-5.6-4.7l7.2-33.8c0,0-24.4-21.3-56.6-21.3s-34.4,19.7-34.4,19.7l-3.8,23.1l1.6,9.4c0,0-5,3.1-5,5.6
			s7.2,24.1,7.2,24.1l0.6,25.3c0,0,7.2,15,8.4,16.9c1.3,1.9,16.3,3.5,16.3,3.5l-11.6,38.9c0,0,25.3,23,29.1,21.1
			C1186.5,515.4,1218.1,476.1,1218.1,476.1z"/>
		
			<linearGradient id="XMLID_27_" gradientUnits="userSpaceOnUse" x1="2097.4868" y1="362.6805" x2="2161.8247" y2="362.6805" gradientTransform="matrix(-1 0 0 -1 3305.9868 812)">
			<stop  offset="0" style="stop-color:#F7E2BB"/>
			<stop  offset="1" style="stop-color:#D2B795"/>
		</linearGradient>
		<path id="XMLID_3823_" class="st47" d="M1165.3,457.2l23.5-3.5l19.7-23.9c0,0-3.9,29.7-17.1,35.4c-13.3,5.7-29.3,3-29.3,3
			L1165.3,457.2z"/>
		<path id="XMLID_3843_" class="st44" d="M1217.1,386.6c-1.4,2.1-3.3,10.4-4.5,16.5l-5.5-5l-0.9-14.7l-7-4.5l0.8-21.1
			c0,0-9.4-12.2-33.6-12.4c-24.2-0.2-26.3,3.9-26.3,3.9s-7.6-2-10.8-11.7c-2.3-7.2-1.6-22.1,9.9-27.3c0,0,18.6,6.8,28.4,2.1
			c17.4-8.3,43.6-3.4,49.3,8.1c0.6,1.2,3.5,9.5,3.5,9.5s11-2.6,15.2,2.4c8.6,10.2,6.3,19.6,6.3,19.6l-15,35.4
			C1226.8,387.4,1219.8,382.7,1217.1,386.6z"/>
		
			<linearGradient id="XMLID_28_" gradientUnits="userSpaceOnUse" x1="2084.2383" y1="423.2988" x2="2094.5613" y2="389.749" gradientTransform="matrix(-1 0 0 -1 3305.9868 812)">
			<stop  offset="0" style="stop-color:#F7E2BB"/>
			<stop  offset="1" style="stop-color:#D2B795"/>
		</linearGradient>
		<path id="XMLID_3844_" class="st48" d="M1215.1,392.2l-5.7,22.5c0,0,4.3,4.5,8.7-0.7c4.5-5.2,6.3-17.4,6.3-17.4s1.2-5.5-8.5-7.5
			L1215.1,392.2z"/>
		<path id="XMLID_3299_" class="st49" d="M1218.1,476.1c0,0-26.7,24.6-44.6,20.2c-17.8-4.5-16-12.9-16-12.9s-10.2,23.7,4.3,26.2
			c14.5,2.6,56.1-15.5,57-33.5"/>
		<path id="XMLID_3508_" class="st45" d="M1304.8,637.1c0,0-6.3,24.2-6,26.5c0.2,2.3-8,27.7-27.2,25.1c-19.2-2.6-21.3-26-21.3-26
			l13.6-31.9C1263.8,630.7,1286.7,627.2,1304.8,637.1z"/>
		<path id="XMLID_99_" class="st49" d="M1309.8,642.2V537.4c0,0-0.3-9.5-0.7-13.9c-0.5-4.5-13.3-11.9-13.3-11.9l-54.4-28.6l-23.2-7
			c0,0-26.8,30.7-42,30s-18.1-22.5-18.1-22.5c0.4-2.1,0.8-3.7,0.8-3.7c-2.3-0.9-4.6,2.8-4.6,2.8l-42,13.1l-18.4,43.7l22.2,115.7
			L1082,775.5c0,0-25.3,28.9,26.6,37.5c6.6,1.1,14.1,1.8,22.2,2.2c50.5,13.4,132.4-7,133.2-7.2c0.9-0.3,11.4,0.9,9.1-12.5
			c-3.4-20-1.5-107-1.5-107s2.9,0.4,0,0l-7.7-57.9l8.1,0.2C1285.4,631.9,1309.8,642.2,1309.8,642.2z"/>
		
			<linearGradient id="XMLID_29_" gradientUnits="userSpaceOnUse" x1="1160.7986" y1="331.6923" x2="1198.4248" y2="59.3967" gradientTransform="matrix(1 0 0 -1 0 812)">
			<stop  offset="0" style="stop-color:#4B5DA5"/>
			<stop  offset="1" style="stop-color:#202853"/>
		</linearGradient>
		<path id="XMLID_100_" class="st50" d="M1310,642.1v-8.5c-0.2-0.2-0.3-0.4-0.5-0.6c-3.3-3.7-7.7-5.8-11.8-8.4c-3-1.9-6.3-3.7-7.9-7
			c-3.1-6.2-1.9-13.5-1.4-20.2c0.4-4.5,0.9-9.2,0.1-13.7c-0.3-1.8-0.7-3.8-1.3-5.5c-0.8-2.1-2.1-2.6-4.1-3.4
			c-5.6-2.3-11.1-5.9-11.1-12.6c0-5.5,4-10.2,7.7-14c3.7-3.9,8.6-7.1,11.6-11.6c3.2-4.8-4.1-2.3-6.4-1.6c-3.9,1.2-7.5,3.2-11.4,4.4
			c-1.8,0.6-4.5,1.4-5.7-0.6c-1-1.8,0.3-4.3,1-5.9c1.8-4.1,4.5-7.7,7-11.3c0.8-1.1,1.5-2.2,2.3-3.3c-5.1-3-10.5-5.5-15.9-7.8
			c-6.3-2.7-12.7-5.1-18.8-8.1c-5.1-2.5-12.7-5.7-15.6-10.8c-0.3-0.4-0.4-0.9-0.6-1.3c-1.2-1.3-2.4-2.3-3.8-2.6
			c-3-0.5-6.5,1.8-8.9,3.3c-3,1.8-8.1,8.1-20.2,13.1c-16.8,7-29.7-1.6-32.5-3.8c-4-3.2-7.5-7.8-10-12.4c-0.1,0.5-0.2,0.9-0.3,1.4
			c0.5,1.3,0.8,2.8,1.2,4.1c1.4,4.8,4.5,8.9,7.9,12.4c4,4.1,8.8,8.1,14.5,9.2c19.8,4,28.4-6.5,28-5.6c-3.6,6.9-7.1,13-13.7,17.6
			c-6.6,4.6-14,6-21.8,6.6c-4.3,0.4-9.1,0.4-12.9,2.6c-0.2,0.1-0.4,0.2-0.5,0.4c-3,5.6-3.1,12.3-8.5,16.7
			c-8.1,6.6-20.4,7.9-30.3,9.8c-5.4,1-11,1.8-16.6,2.1l17.3,89.8L1082,775.6c0,0-25.3,28.9,26.6,37.5c6.6,1.1,14.1,1.8,22.2,2.2
			c50.5,13.4,132.4-7,133.2-7.2c0.9-0.3,11.4,0.9,9.1-12.5c-3.4-20-1.5-107-1.5-107s2.9,0.4,0,0l-7.7-57.9l8.1,0.2
			C1285.6,631.9,1310,642.1,1310,642.1z"/>
		
			<linearGradient id="XMLID_30_" gradientUnits="userSpaceOnUse" x1="1079.7612" y1="315.85" x2="1313.8943" y2="315.85" gradientTransform="matrix(1 0 0 -1 0 812)">
			<stop  offset="0" style="stop-color:#4B5DA5"/>
			<stop  offset="1" style="stop-color:#202853"/>
		</linearGradient>
		<path id="XMLID_109_" class="st51" d="M1116.6,498.1c3.1-2.2,6.4-4,9.7-5.6l-10.2,3.2l-1.7,4.1
			C1115.2,499.2,1115.9,498.6,1116.6,498.1z"/>
		<path id="XMLID_178_" class="st44" d="M844.7,372.7c0,0,2.8-0.5,4.2,2.5c1.6,3.6,3.8,24.8,3.8,24.8l6.4-2.3l-1.4-19.8
			c0,0,11.5-6.9,11.1-7.6c-0.5-0.7-2.8-17.3-2.8-17.3l-21.4,9.7L844.7,372.7z"/>
		<path id="XMLID_177_" class="st44" d="M849.2,405c0,0-2.4,0.7-4.9,0c-0.2,0,6.8,23.6,6.8,23.6l2.1-3.5L849.2,405z"/>
		
			<linearGradient id="XMLID_35_" gradientUnits="userSpaceOnUse" x1="860.274" y1="361.8729" x2="906.8002" y2="361.8729" gradientTransform="matrix(1 0 0 -1 0 812)">
			<stop  offset="0" style="stop-color:#F7E2BB"/>
			<stop  offset="1" style="stop-color:#D2B795"/>
		</linearGradient>
		<path id="XMLID_175_" class="st52" d="M860.3,434.7c0,0,8.1,21.3,43.4,21.3l3.1,9C906.9,465,859,472.2,860.3,434.7z"/>
		
			<linearGradient id="XMLID_37_" gradientUnits="userSpaceOnUse" x1="799.0887" y1="421.1651" x2="807.9565" y2="392.3447" gradientTransform="matrix(0.9921 0.1251 0.1251 -0.9921 -2.3052 693.1006)">
			<stop  offset="0" style="stop-color:#F7E2BB"/>
			<stop  offset="1" style="stop-color:#D2B795"/>
		</linearGradient>
		<path id="XMLID_1400_" class="st53" d="M849.8,399.5c0.1-0.2,0.2-0.3,0.3-0.5c1.5-2.9-0.5-5.1-1.3-7.8c-1.3-4.5,0.1-11.6-5.6-12.9
			c-0.2,0-0.4-0.1-0.5-0.2c-1.9,1.8-1.7,4.1-1.7,4.1s0.5,9.4,3,14.6C845.3,399.8,847.8,399.9,849.8,399.5z"/>
		<path id="XMLID_173_" class="st44" d="M931.2,372.3l-0.1-19.1c0,0,2.8,8.2,3.2,10.6c0.4,2.5-1,5.4-0.7,9.1L931.2,372.3z"/>
		<path id="XMLID_161_" class="st43" d="M849.5,458.7c8.1,9.4,29.7,31,29.8,32.5c0.5,10.6,15.3,21.4,15.3,21.4s-2.7,3.3-6.8,3.8
			c-2.9,0.3-11.6-3-16.6-5c-2.7,6.3-5.8,12.1-9.4,5.7c-9.1-14.8-14.2-25.6-24.4-39.9L849.5,458.7z"/>
		<path id="XMLID_106_" class="st44" d="M922.9,334c-12.3-2.1-24.6-2.1-36.8,0.6c-4.7,1-10.6,2-14.5,4.9c-4.6,3.3-6.8,10.7-9.4,15.6
			c-1.5,2.9,2.9,5.4,4.3,2.5c2.1-4.4,4.1-11.7,8-14.7s10.7-3.9,15.4-4.9c10.8-2.2,21.8-2.7,32.7-1.7
			C923.9,336.4,924.2,334.2,922.9,334L922.9,334z"/>
		<path id="XMLID_243_" class="st44" d="M937.1,309.1c-4.3,2.1-9,0.9-13.4,0c-4.5-1-9.1-2-13.7-2.7c-7.4-1.1-15-1.7-22.4-0.5
			c-13.7,2.2-27.5,8.9-30.5,23.6c0,0.2,0,0.4,0,0.5c-1.4,1.9-2.8,3.8-4.2,5.8c-0.6,0.9-0.1,2,0.8,2.4c-0.5,0.3-0.9,0.6-1.4,0.9
			c-7.8,5.3-7.8,16.8-7.8,25.4c0,3,4.8,4.9,6.2,1.7c0.4-1,0.9-2,1.3-3c1.1,0.4,2.3,0.3,3.2-0.8c0.3-0.4,0.6-0.8,1-1.2
			c0.9,2,3.7,3.2,5.3,1.1c4.9-6.2,8.8-12.9,11.6-20.3c3.3-1.9,6.6-3.9,10-5.8c5.5-0.6,11.1-0.7,16.6-0.5c9.9,0.4,20.9,2.9,30.4-1.3
			c0.2-0.1,0.3-0.2,0.5-0.2c0.8,1.3,2.7,2.1,3.9,0.5c5.2-6.6,7.1-14.9,7-23.1C941.2,309.3,938.9,308.2,937.1,309.1z M916.1,331.8
			L916.1,331.8L916.1,331.8L916.1,331.8z"/>
		
			<linearGradient id="XMLID_38_" gradientUnits="userSpaceOnUse" x1="872.3909" y1="308.3133" x2="894.5517" y2="308.3133" gradientTransform="matrix(1 0 0 -1 0 812)">
			<stop  offset="0" style="stop-color:#D25C5C"/>
			<stop  offset="1" style="stop-color:#743131"/>
		</linearGradient>
		<path id="XMLID_98_" class="st54" d="M872.4,513.2c-0.3-0.2,6.9-22.3,6.9-22.3s0.1,9.8,15.3,21.7
			C894.5,512.6,883.2,520.9,872.4,513.2z"/>
		<path id="XMLID_97_" class="st43" d="M923.8,503.5c0,0-0.8-9.9-1.2-15.5c-0.5-6.9-5.7-12.1-5.7-12.1s-9.5-13-10-13.4l-1.1-0.1
			c0,0.1,1.2,2.8,1,4.1c-1.8,9.8-6.4,29.7-6.2,29.8c-4.9,5.5-11.2,11.8-11.2,11.8s9.1,11.7,15.1,4.9c0.1-0.1,4.7-8.5,4.8-8.7
			c2.1,1.8,4.4,3.9,6.8,6C924.4,517.6,923.8,503.5,923.8,503.5z"/>
		<g id="XMLID_80_">
			
				<linearGradient id="SVGID_41_" gradientUnits="userSpaceOnUse" x1="868.6456" y1="353.801" x2="852.8027" y2="222.1089" gradientTransform="matrix(1 0 0 -1 0 812)">
				<stop  offset="0" style="stop-color:#D25C5C"/>
				<stop  offset="1" style="stop-color:#743131"/>
			</linearGradient>
			<path class="st55" d="M844.7,483.1c-12.3,6.9-24.4,14.5-36,22.6c-0.7,0.5-1.3,1-1.6,1.7c-0.4,1.1,0.3,2.2,0.9,3.1
				c5.8,8.8,10.3,18.5,13.5,28.5c1.3,4,2.3,8.2,1.8,12.4c-0.5,4-2.6,7.7-3.4,11.6c-1.4,6.6,0.5,13.4,1.3,20.1
				c0.7,5.4,0.6,10.8,0.5,16.2c-0.1,7.1-0.2,14.2-0.2,21.3c-0.1,4.5-2.2,15,0.1,18.8c2.4,3.9,12.5,4.3,16.5,4.4
				c6.3,0.2,12.6-0.7,18.8-1.4c11.2-1.2,22.4-1.6,33.6-1.1c2.8,0.1,5.8,0.3,8.4-0.8c2.6-1.1,4.7-4,4-6.7c-0.4-1.6-1.8-2.9-3.1-3.9
				c-3.8-3-8-5.5-12.5-7.2c-1.6-0.6-3.5-1.2-4.4-2.7c-1.9-2.8,0.3-6.4,2.2-9.1c1.9-2.7,3.5-6.8,1.1-9c-0.7-0.6-1.6-1-2.5-1.2
				c-5.1-1.3-10.4,0.6-15.7,1.1c-4.7,0.4-9.5-0.3-13.8-2.1c-1.1-0.4-2.2-1-2.9-1.9c-1-1.2-1.2-2.8-1.3-4.3c-0.4-7.5,1.7-15.1,6-21.3
				c3.3-4.8,8.1-9.5,7.4-15.2c-0.5-4.5-4.3-7.8-7.6-11c-8.3-8.2-14.5-18.7-16.7-30.2s-0.1-23.9,6.5-33.5"/>
		</g>
		<path id="XMLID_265_" class="st44" d="M697.5,574.9c2.7,3.5,5.2,7.2,7.6,10.9c2.2,3.6,5.1,7.7,6.2,11.8c1.1,4.1,0.4,9,0.1,13.2
			c-0.3,5-0.8,9.9-1.5,14.8c-0.4,3,0.7,5.9,3.9,6.9c2.6,0.7,6.4-0.9,6.9-3.9c0.8-5.7,1.5-11.4,1.8-17.1c0.3-5.1,0.8-10.6-0.2-15.7
			c-1-4.8-0.4-13.8-2.9-17.9c-2.7-4.6-14.3-22.5-17.6-26.7c-1.8-2.4,0.5,14.4-2.4,16C697.1,568.6,695.7,572.5,697.5,574.9
			L697.5,574.9z"/>
		<path id="XMLID_76_" class="st44" d="M842.6,594.3c2.7-8.2,1.7-16.8,0-25.2c-2-5.5-3.2-11.3-3.9-17.3c-1.1-5-2.2-10.1-2.9-15.2
			c-2.6-19.2-2.3-38.5-3.6-57.8c-1-14.9-3.5-29.7-7.7-44.1c-3.2-10.7-7.4-21.7-14.3-30.6c-3.8-4.1-7.8-8.2-13.1-10.2
			c-5.9-2.1-11.9-0.7-17.8,0.3c-6.3,1.1-12.3,0.5-18.4-1.5c-1.5-0.5-2.8-0.4-3.8,0.1c-0.8-0.3-1.6-0.6-2.4-0.9
			c-7.5-2.7-15.7-3.8-23.7-3.3c-14.7,0.9-28.8,7.3-39.3,17.7c-11,11-16.8,25.9-19.3,41.1c-2.6,15.9-4.3,33.6,0.1,49.3
			c5.3,18.9,13.3,37.4,21,55.4c2.5,5.7,12.5,1.6,10.2-4.3c-8.8-22.5-9.2-49.1-4.4-72.6c2.4-11.7,8.6-20.7,18.2-27.8
			c9.2-6.8,20.2-11.6,31.8-11c6.8,0.3,13.1,3,19.7,4.3c3.5,0.7,7.7,1.3,10.9,0.3c0.1,0.1,0.2,0.1,0.3,0.2c3.9,2.5,6.9,4.4,9.4,8.4
			s4.7,8.3,6.5,12.7c1.8,4.5,3.3,9.1,4.4,13.8c1.1,4.6,1.4,9.3,2.3,14c0.5,2.4,1.7,4.6,3.5,6.1c0,6.7,1.2,13.7,1.4,20.3
			c0.4,14.1-1.8,28.1-5.3,41.7c-2.9,11.3-7.1,26.7,4.9,34.5c5.6,3.6,11.9,2.5,18.1,2c5.7-0.5,11.5-0.6,17.2-0.3
			C842.6,594.4,842.6,594.3,842.6,594.3z M789,415.8c-0.3-0.5-0.7-1-1.1-1.4c0.6,0.3,1.3,0.7,1.9,1.1
			C789.5,415.5,789.2,415.6,789,415.8z"/>
		<path id="XMLID_73_" class="st56" d="M942.1,616.3c-2.7-3.5-6.8-5.7-10.5-8.1c-4.7-3.1-9.4-6-14.3-8.6c-9.5-5-19.6-8.1-30.3-8.7
			c-12.9-0.7-26,0.4-39,0.3c-10.3-0.1-23.6,1.5-32.3-5.2c-2.4-1.8-6.2-0.3-7.6,2c-0.8,1.4-0.9,2.9-0.5,4.2c-0.3,0.1-0.7,0.3-1,0.4
			c-0.1,0-0.1,0-0.2,0.1c-16.4,6.1-33.9,7-51,10.1c-10.3,1.9-20.3,5.1-30,9.1c-1.6-1.3-3.8-1.8-6.1-0.6
			c-15.2,7.8-30.3,15.9-45.1,24.4c-14.1,8.1-28.8,16.1-42,25.8c-5.8,4.3-11.3,9.3-14.7,15.8c-3.7,7-4.9,14.9-5.4,22.7
			c-1.2,17.5-1.7,35-2.5,52.5c-0.5,10.2-1,20.5-1.4,30.7c-0.2,1.3-0.5,2.6-0.8,3.9c-0.8,4-0.8,7.9,0,11.6c-0.2,4.9-0.5,9.7-0.7,14.6
			c-0.1,2.9,2.7,5.6,5.6,5.6c36.7,0,269.3,0.5,269.3,0.5c1-11,3.1-30.5,7.1-40.8c4.2-10.6,9.5-20.7,13.6-31.3
			c8.6-22.1,16.2-44.5,24.3-66.8c4-11.1,8-22.1,12-33.2C942,637.9,949.2,625.4,942.1,616.3z M870.5,804.3L870.5,804.3L870.5,804.3
			C870.6,804.3,870.6,804.3,870.5,804.3z"/>
		<g id="XMLID_72_">
			<path class="st44" d="M728.1,601.6c0.2,3.9-6.2,4.1-8.3,7.4c-0.6,1-0.8,2.2-1,3.3c-0.8,5.1-1.5,10.3-2.3,15.4
				c-0.2,1.7-0.5,3.4-0.2,5.1c0.4,2.6,1.9,4.9,3.4,7.2c8.4,12.8,9.2,21.9,11.7,37c1.5,9.2,7.5,23.5,8.7,32.8
				c2.2,16.7,39,95.3,43,101.3c1.5,2.2,3.6,6.8,5.9,8.1h16.6c7.1-5.9,10.4-125.1,19-179.9c1-6.2,3.2-12.2,3.5-18.5s-1-12.6-3.1-18.5
				c-2.6-7.3-7.8-15-15.6-15.7c-5.3-0.5-10.2,2.4-15,4.8c-11.9,5.9-25.2,9-38.5,9c-11.7-0.1-24.7-2.2-34,5"/>
		</g>
		<path id="XMLID_286_" class="st45" d="M810.2,502.4c-0.1-6.2-0.2-12.5-1.7-18.7c-1.4-5.9-7.6-45.9-24.2-54.6
			c-10.7-5.7-23.6-2.2-35.1,0.3c-11.4,2.4-23.6,3.9-34.5,8.3c-10,4.1-18.6,10.7-22.9,20.9c-4.5,10.4-4.6,15.9-4.8,27.1
			c-0.1,5.8,4.3,13.2,6.5,22.8c2.3,9.8,0.8,20.4,3,26.9c2.9,8.8,6.1,16.1,8.1,22.2c5,12.6,10.8,25.5,15.5,30.9
			c8.1,7.9,19.6,12.3,30.8,14.9c10.9,2.5,22.5,1.5,31.9-4.8c8.5-5.7,14.6-14.1,19.6-22.9c2.8-5,8.1-25,8-31.2
			C809.9,531.4,810.4,515.4,810.2,502.4z"/>
		<path id="XMLID_420_" class="st45" d="M810.8,592c-2-3.4-3.5-7.2-4.3-11.1c0.1-1.3-1.3-12.2-1-14.3c0.3-2.3-2.6-2-2.9,0.4
			c-0.1,0.7-0.2,1.3-0.2,2c-0.9-0.8-2-1.3-3.4-1.3c-2.7,0-5.7,2.6-5.4,5.6c0.4,3.4,0.7,6.8,1.1,10.2c-1.8,0.4-3.4,1.6-4,3.7
			c-0.2,0.8-0.5,1.6-0.7,2.5c-1.6-3-5.5-4.6-8.3-1.3c-2,2.4-4.1,4.7-6.2,6.9c-2.5,1.3-4.9,2.9-7.1,4.6c-1.8,0.6-3.6,1-5.4,1.3
			c-1,0.1-2.1,0.2-3.1,0.3c0.1-0.8,0.3-1.7,0.4-2.6c0.5-3-0.8-6-3.8-6.9c-2.6-0.8-6.2,0.9-6.6,3.9c-0.2,1.4-0.5,2.7-0.7,4.1
			c-1.4-0.3-2.9-0.4-4.3,0.1c-0.1,0-0.3,0.1-0.4,0.1c-1-2.7-1.9-5.5-2.4-8.4c-1.1-5.6-9.5-5-10.5,0c-1.4-5.5-3.6-10.8-7-15.5
			c-1.8-2.4-4.6-3.6-7.4-2c-0.3,0.2-0.7,0.5-0.9,0.7c0.6,0.9,1,2,1.3,3.1c0.5,0.4,1,1,1.2,1.8c0.1,0.5,0.2,1,0.3,1.5
			c0.5,2.3,0.5,5,0.9,7.3c0.1,0.6,2.8,17,2.8,21.1c0,4.7-1.4,10.1-0.5,14.8c1,5.6,6.3,7.9,10.7,10.3c4.6,2.6,9.3,4.7,14.1,6.9
			c1.9,0.9,4.4,1.9,5.7,3.8c1.5,2,0.6,3.8-0.2,5.9c-2,5.2-2,9.6,1,14.3s6,9.5,8.7,14.4c6,11,10.6,22.7,14.1,34.8
			c0.1,0.3,0.2,0.6,0.3,0.8c0.7,3,1.7,6,3.1,8.8c0.8,1.7,1.7,3.9,3.7,4.3c1.9,0.3,3.2-1.2,3.8-2.9c1.1-2.7,1-6.2,1.3-9
			c0.4-3.5,0.7-6.9,0.9-10.4c0.1-0.4,0.1-0.8,0.1-1.2c0.6-7.9,0.8-15.8,0.9-23.8c0.1-7.7-0.1-15.5-0.3-23.2
			c-0.2-7.2-1.1-14.6-0.7-21.8c0.9-14.9,18.1-17,24.5-28.3C817.5,602.2,813.9,597.1,810.8,592z"/>
		<g id="XMLID_235_">
			<g>
				<path class="st44" d="M699.2,470.8C699.2,470.8,699.2,470.7,699.2,470.8C699.1,470.7,699.1,470.8,699.2,470.8L699.2,470.8z"/>
			</g>
		</g>
		<g id="XMLID_71_">
			<g>
				<path class="st44" d="M813.6,491.4c3.2,0,3.2-5,0-5C810.4,486.4,810.4,491.4,813.6,491.4L813.6,491.4z"/>
			</g>
		</g>
		<path id="XMLID_315_" class="st44" d="M680.4,423.5c-10.1,14.5-14.2,32.2-11.6,49.7c0.3,1.8,3.2,1.7,3.6,0
			c1.4-6.6,0.8-13.2,1.3-19.8c0.5-7,2.2-13.8,4.8-20.3c0.8-1.9-2.5-3.3-3.4-1.4c-0.2,0.4-0.4,0.9-0.6,1.3c-1,2.1,2.2,4,3.2,1.9
			c0.2-0.4,0.4-0.9,0.6-1.3c-1.1-0.5-2.3-1-3.4-1.4c-2.4,6-4,12.2-4.7,18.6c-0.8,7.2,0.1,14.4-1.4,21.5c1.2,0,2.4,0,3.6,0
			c-2.5-16.5,1.7-33.2,11.2-46.8C685,423.4,681.8,421.5,680.4,423.5L680.4,423.5z"/>
		<path id="XMLID_350_" class="st44" d="M680.4,479.6c1.1,1,2.4,1.1,3.8,0.6c1.8-0.5,3.6-1.2,5.4-1.9c-0.6-1-1.2-2.1-1.8-3.1
			c-1.2,1-2.5,1.8-3.9,2.4c-1.9,0.8-0.7,3.3,0.9,3.5c1.9,0.2,3.6-0.5,5.1-1.7c-0.9-0.9-1.8-1.8-2.6-2.6c-0.1,0.1-0.2,0.2-0.3,0.3
			c-1.7,1.6,0.9,4.3,2.6,2.6c0.1-0.1,0.2-0.2,0.3-0.3c1.8-1.7-0.8-4.2-2.6-2.6c-0.7,0.6-1.5,0.7-2.4,0.6c0.3,1.2,0.6,2.3,0.9,3.5
			c1.7-0.7,3.2-1.8,4.6-3c1.4-1.2-0.1-3.7-1.8-3.1c-1.2,0.4-2.3,0.8-3.5,1.2c-0.5,0.2-1.1,0.4-1.6,0.6c-0.2,0.1-0.4,0.1-0.6,0.2
			c-0.4,0-0.3,0.1,0.2,0.2C681.3,475.3,678.6,477.9,680.4,479.6L680.4,479.6z"/>
		<path id="XMLID_271_" class="st45" d="M815.3,479.5c-4.3-2.2-8.4,1.2-11.2,4.2c-1.6,1.8,1,4.4,2.6,2.6c0.7-0.7-0.3,1.6,0.4,1
			c-0.6,2.9,0.5,2.9,0.1,5.9c-0.1,1,0.5,1.9,1.2,2.2c0,1.7,0.1,3.4,0.2,5.1c0,3.6,0,7.2,0,10.7c0,0.5,0.2,0.8,0.4,1.1
			c0,0.2-0.1,0.4-0.1,0.6c-0.2,0.3-0.3,0.6-0.3,0.9c0,0.3,0,0.6,0,0.9c0,0.9,0.5,1.5,1.2,1.7c-0.5,0.5-1.1,1-1.7,1.4
			c-1.4-1.5-4.2,0.3-3,2.2c0.2,0.4,0.5,0.7,0.7,1.1c0.4,0.6,1.3,1.2,2.1,0.9c4.8-1.9,8.8-3.6,10.3-8.3c1.8-6,1.6-14.9,1.6-21.1
			C819.9,488.6,819.5,481.7,815.3,479.5z"/>
		<path id="XMLID_185_" class="st45" d="M703.2,540.4c-1.6-5.3-3.1-10.5-4.7-15.8c-0.4-6-1.1-11.9-2.2-17.8c-0.2-1-0.9-1.4-1.6-1.3
			c-2-2.9-5.7-4.2-9.1-2.7c-4.1,1.9-4.5,6.9-4.1,10.9c0.6,6.1,2,12.7,4.1,18.5c1.9,5.1,6.4,13.3,11.7,12.5c1.2-0.2,3.1-0.1,3.6-0.9
			C702.1,544.8,703.7,542.3,703.2,540.4z M697.9,538.3c0.2-0.5,0.3-1,0.4-1.5C698.5,537.7,697.8,538.4,697.9,538.3z"/>
		<path id="XMLID_294_" class="st44" d="M712.4,640.5c-5.7-20.1-4.1-41.3-5.4-62c0.3-3,0.4-6,0.3-9c-0.2-0.5-0.5-1.1-0.7-1.6
			c-1.3-2.9-1.1-5.7-1.9-8.7c-1.2-4.3-2.9-9-3.7-13.5c-0.2-0.1-0.5-0.2-0.7-0.3c-0.5-0.6-5.7-0.7-7.2-1.4c-0.6-1-1.5-1.6-2.4-1.9
			c-2-2.6-3.9-5.9-5.4-9.9c-1.7-4.4-3.6-9.1-4.3-13.7c-1.5-9.6,1.7-19.2-0.2-28.8c-0.9-4.7-7.3-5.1-9.9-1.8
			c-0.5-9.7-1.2-19.4-1.9-29c-0.2-2.4-2.7-5.9-2.5-3.5c2.1,30.2,3,64.1,0.7,94.4c-0.6,7.9-1.5,15.8-2.8,23.6
			c-1.2,7.2-3.1,14.2-4.3,21.3c-2.2,12.3-0.2,26,7.8,36c4.5,5.6,10.4,7.1,17.1,8.4c5.8,1.1,11.5,2.2,17.3,3.3
			c1.5,1.4,3.7,1.7,5.6,1.1c0.6,0.1,1.1,0.2,1.6,0.3C709.7,644.1,713.5,640.9,712.4,640.5z"/>
		<path id="XMLID_267_" class="st44" d="M698.8,475.7c-3.3,3.6-5,7.9-5.6,12.7c-0.4,2.7-0.3,5.3-0.4,8c0,0.4,0.2,2.3-0.2,2.6
			c-1.1,0.8-2.1-1.6-2.5-2.4c-1.1-2.1-4.3-0.3-3.2,1.9c1.8,3.6,7.4,8.1,9.2,1.9c0.8-2.9,0.3-6.2,0.5-9.1c0.3-4.8,1.5-9.3,4.8-12.9
			C703.1,476.6,700.5,474,698.8,475.7L698.8,475.7z"/>
		<path id="XMLID_268_" class="st44" d="M690.5,481.1V481c-0.3-0.8-0.9-1.3-1.8-1.4c-0.1,0-0.1,0-0.2,0c-0.6-0.1-1.4,0.4-1.6,0.9
			c-1.7,3.6-1.4,10.2,0.6,13.7c1,1.7,3.3,0.8,3.5-0.9c0.3-3.6,0.2-7.1-0.3-10.6c-0.3-2.3-3.6-2.5-3.7,0c-0.2,6.2,0.1,12.3,3.8,17.4
			c1,1.4,3.5,1,3.5-0.9c0-1.8-1.3-3.2-1.2-5.1c0.1-3.7,0.2-7.3,0.3-11c-1.2,0-2.5,0-3.7,0c0.4,4.5-0.6,9,0.5,13.4
			c0.4,1.6,2.6,1.8,3.4,0.4c2-3.3,0-7.8,1.7-11.1c-1.1-0.1-2.3-0.3-3.4-0.4c0.2,1.1,0.3,2.2,0.3,3.4c0,2.4,3.7,2.4,3.7,0
			c0-1.5-0.2-2.9-0.4-4.4c-0.3-1.6-2.7-1.8-3.4-0.4c-1.8,3.3,0.2,8-1.7,11.1c1.1,0.1,2.3,0.3,3.4,0.4c-1-4.1,0-8.3-0.4-12.5
			c-0.2-2.4-3.6-2.4-3.7,0c-0.1,3.7-0.2,7.3-0.3,11c0,1-0.1,1.9,0.2,2.9c0.2,0.7,1,1.5,1,2.2c1.2-0.3,2.3-0.6,3.5-0.9
			c-3.3-4.7-3.4-10-3.3-15.6c-1.2,0-2.5,0-3.7,0c0.5,3.6,0.6,7.1,0.3,10.6c1.2-0.3,2.3-0.6,3.5-0.9c-1-1.6-1-3.4-1-5.2
			c0-1.3-0.2-3.5,0.3-4.7c-0.5,0.3-1.1,0.6-1.6,0.9c0.1,0,0.1,0,0.2,0c-0.6-0.5-1.2-0.9-1.8-1.4v0.1
			C687.7,484.4,691.3,483.4,690.5,481.1L690.5,481.1z"/>
		<path id="XMLID_223_" class="st44" d="M694.2,506.9c7.2-6.6,4.3-17.8,5.5-26.4c0.3-1.9-2.1-2.6-2.8-0.8
			c-3.2,8.2,2.5,18.7-4.1,25.8C692,506.5,693.3,507.8,694.2,506.9L694.2,506.9z"/>
		<path id="XMLID_69_" class="st44" d="M806.8,480.9c1.3,0,2.5-0.5,3.6-1.7c1.7-1.7-1-4.4-2.6-2.6c-0.1,0.1-0.1,0.1-0.2,0.2
			c0.2-0.5,0.2-1.1,0.3-1.6c0.3-0.3,0.5-0.7,0.5-1.2c0.2-2.4-0.1-4.4-1-6.7c-0.2-0.6-0.7-1-1.3-1.2c-0.5-2.2-0.9-4.5-1.4-6.7
			c-0.2-0.9-1.1-1.4-1.9-1.3c-0.3-1-0.6-2.1-0.8-3.2c0.2-2.9,0.4-5.9-0.6-8.6c-0.3-0.7-0.8-1.1-1.4-1.1c-0.1-1.1-0.2-2.1-0.1-3
			c0.5-0.4,0.7-1,0.5-1.8c0-0.1,0-0.2-0.1-0.2c-0.2-0.8-1-1.3-1.8-1.4c-0.1,0-0.2,0-0.3,0c-0.6,0-1.2,0.3-1.5,0.8
			c-0.6,0.2-1.1,0.6-1.3,1.1c-1.8-5.4-4.5-10.4-8.6-14.5c-1.7-1.7-4.3,0.9-2.6,2.6c8.9,9.1,9.9,22,11.6,34c0.6,4.1,1.6,8.5,3.6,12.3
			c1.7,4.7,4.5,8.8,8.9,11.7c1.2,0.8,2.6-1,1.6-2C808.8,483.6,807.7,482.3,806.8,480.9z"/>
		<g id="XMLID_68_">
			
				<linearGradient id="SVGID_42_" gradientUnits="userSpaceOnUse" x1="722.1" y1="218.6974" x2="805.5428" y2="218.6974" gradientTransform="matrix(1 0 0 -1 0 812)">
				<stop  offset="0" style="stop-color:#F7E2BB"/>
				<stop  offset="1" style="stop-color:#D2B795"/>
			</linearGradient>
			<path class="st57" d="M722.1,589.6c3.3,7.8,15.8,30.9,39.8,30.5c24.5-0.4,44.7-28.3,43.6-53.6c-10.8,20.2-22.7,33-44.7,36.4
				C739.6,606.2,722.1,589.6,722.1,589.6z"/>
		</g>
		<g id="XMLID_67_">
			
				<linearGradient id="SVGID_43_" gradientUnits="userSpaceOnUse" x1="685.0871" y1="290.6762" x2="698.9359" y2="290.6762" gradientTransform="matrix(1 0 0 -1 0 812)">
				<stop  offset="0" style="stop-color:#F7E2BB"/>
				<stop  offset="1" style="stop-color:#D2B795"/>
			</linearGradient>
			<path class="st58" d="M690.5,506.9c2.4-0.1,4.3,2.2,5.1,4.4c0.6,1.6,5.8,25.7,1.9,24.4c-8.5-2.8-11-15.1-11.9-19.9
				C685.1,512.6,683.6,507.1,690.5,506.9z"/>
		</g>
		<g id="XMLID_392_">
			
				<linearGradient id="SVGID_44_" gradientUnits="userSpaceOnUse" x1="773.987" y1="128.3153" x2="798.9067" y2="128.3153" gradientTransform="matrix(1 0 0 -1 0 812)">
				<stop  offset="0" style="stop-color:#F7E2BB"/>
				<stop  offset="1" style="stop-color:#D2B795"/>
			</linearGradient>
			<path class="st59" d="M783.1,728.4c1.3,0.3,2.5-0.4,3.7-1.6c4.7-4.6,6.2-12.2,6.8-18.5s2.2-12.5,2.5-18.8
				c0.4-6.8-0.6-13.5-1.4-20.2c-0.8-6.4-1.4-12.9-3.2-19.1c-0.6-2.2-2.5-7.6-2-11.3c-4.2,6.1-8.3,12.1-12.5,18.2
				c-1.1,1.7-2.3,3.4-2.8,5.3c-0.5,2.1-0.2,4.2,0.1,6.4c0.5,4,1.1,8,1.7,12c1.5,10.7,3,21.4,4.5,32.1
				C781.2,718,781.9,723.3,783.1,728.4z"/>
		</g>
		
			<linearGradient id="XMLID_42_" gradientUnits="userSpaceOnUse" x1="838.9818" y1="96.4483" x2="880.5709" y2="96.4483" gradientTransform="matrix(1 0 0 -1 0 812)">
			<stop  offset="0" style="stop-color:#92C9C2"/>
			<stop  offset="1" style="stop-color:#658781"/>
		</linearGradient>
		<path id="XMLID_62_" class="st60" d="M877.6,738.9c-0.5-0.4-1.1-0.9-1.6-1.3c0.2-0.3,0.4-0.7,0.4-1.2c0.4-0.4,0.7-1,0.7-1.6
			c0.2-0.3,0.3-0.7,0.3-1.1c0-3.9,0.1-7.9,0.1-11.8c0.8-0.3,1.5-1,1.5-2.2c0.3-8.7,0.6-17.4,0.8-26.1c0.2-2,0.3-3.9,0.5-5.9
			c0.1-0.3,0.1-0.6,0.1-1c-0.1-1-0.2-1.9-0.3-2.9c-0.1-0.8-0.5-1.4-1-1.8c0.3-0.9,0.6-1.9,0.8-2.9c0.1-0.3,0-0.5,0-0.7
			c0.1-0.2,0.3-0.4,0.4-0.7c2.3-4.1,3.5-7.9,1.7-12.4c-1.9-4.8-4.9-9.2-7.5-13.6c-3-4.9-6.2-9.6-9.6-14.2
			c-6.5-8.9-13.6-17.4-21.2-25.4c-0.6-0.6-1.6,0.3-1,1c13.7,15.1,25.2,31.9,34.7,49.8c1.5,2.9,3.1,5.8,2.1,9.2
			c-0.7,2.5-2.3,4.8-3.6,6.9c-2.6,4.4-5.3,8.7-8.2,13c-6,8.7-12.5,16.9-19.5,24.8c-0.6,0.7-0.8,1.9,0,2.6c8,6.6,16,13.2,24,19.7
			c1.5,1.2,4.7,3,5.5,4.8c0.9,1.9-1.7,4.7-2.7,6.2c-2.8,4.3-5.6,8.6-8.4,13c-3.6,5.8-7.1,11.6-10.6,17.6c-0.2,0.2-0.4,0.4-0.5,0.7
			s-0.2,0.5-0.3,0.8c-6.4,11-13.3,25.6-19,37h27.2c1.2-0.1,1.2,0.1,1.4-1.1c2-17,4.9-33.8,8.7-50.4c0.3-1.1,0.6-2.3,0.8-3.5
			c0.2-1.5-1-2.6-2.2-2.6c0.4-0.6,0.8-1.3,1.2-1.9c2.5-3.9,6.1-8,7.8-12.3C882.5,743.5,880.4,741.2,877.6,738.9z M852.2,717.7
			c0,0.2,0.1,0.4,0.2,0.6c-0.1-0.1-0.3-0.2-0.4-0.3C852,717.9,852.1,717.8,852.2,717.7L852.2,717.7z M842.2,815.5
			c-0.2,0-0.3-0.1-0.5-0.1c0.2-0.4,0.4-0.8,0.6-1.2C842.3,814.6,842.2,815.1,842.2,815.5z"/>
		
			<linearGradient id="XMLID_47_" gradientUnits="userSpaceOnUse" x1="677.6137" y1="74.1577" x2="781.6203" y2="74.1577" gradientTransform="matrix(1 0 0 -1 0 812)">
			<stop  offset="0" style="stop-color:#92C9C2"/>
			<stop  offset="1" style="stop-color:#658781"/>
		</linearGradient>
		<path id="XMLID_63_" class="st61" d="M781.1,817.3c-13.2-3.6-23.6-12.6-34.1-20.9c-5-3.9-10-7.7-15.5-10.9
			c-6.1-3.5-12.5-6.4-18.3-10.5c3.3-6,6.7-12,10-18c1.7-3,3.6-6,5-9.1c0.6-1.4,1.3-2.8,0.6-4.3c-0.8-1.8-2.9-2.3-4.7-2.9
			c-3.4-1.2-6.8-2.4-10.2-3.8c-6.2-2.4-12.2-5.1-18.2-8c-2.8-1.4-5.6-2.9-8.4-4.4c-2.5-1.3-7.7-2.9-7.7-6.4c0-1.6,1.4-3.9,2-5.3
			c0.6-1.6,1.2-3.2,1.8-4.8c1.3-3.5,2.6-6.9,3.9-10.4c5-13.4,9.9-26.7,14.7-40.2c0.3-0.8-1-1.2-1.3-0.4
			c-5.4,13.2-10.8,26.5-16.1,39.8c-2.5,6.4-5.4,12.7-7.5,19.3c-1.7,5.3,1.3,6.9,5.6,9.5c2.2,1.3,4.4,2.5,6.6,3.7
			c-0.1,0.3-0.1,0.8,0.2,1c1.6,1.4,3.2,2.7,4.8,4.1c-0.2,0.8,0.1,1.7,1,2.2c1.6,0.8,3.1,1.7,4.7,2.5c1.5,1.3,3.1,2.5,4.7,3.7
			c3.9,3,6.8,5.2,4.4,10.5c-1.4,3-3,5.9-4.5,8.9c-3.1,6.2-6.4,12.3-9.3,18.6c-0.8,1.8-1.5,3.6-1.3,5.6c0.3,2.7,2.9,4.1,3.3,6.6
			c0.8,4.2-3,8.9-3.9,13s0.1,8.1,3.4,10.8c3.4,2.7,10.4,2.3,14.3,2.3c0,0,18.7,0,19.3,0h47.2C777.6,819.2,783.3,817.9,781.1,817.3z"
			/>
		<path id="XMLID_60_" class="st44" d="M1118.4,397.6c-1.1-7.8-3.8-15.3-10.8-19.6c-5.5-3.3-12.7-6.5-16.3-14
			c-0.4-0.8-0.5-1.5-1.1-1.8c-2.2-5.8-11.4-8.2-16.6-10.1c-13.7-4.9-28.5-6.9-43-6c-28.1,1.7-60.1,14.1-74.6,39.9
			c-2.1,3.7-3.9,7.5-3,11.9c0.9,4.2,2.9,8.4,4.5,12.3c-0.1,3-0.3,5.9-0.5,8.8c-0.6,6.4-2.5,12.6-2.6,19.1c-0.1,6.7,2.2,11,6.7,15.8
			c3.9,4.2,8,7.6,13.3,9.8c3.8,1.5,7.7-3,6.6-6.6c-2-6-3.5-12.2-4.7-18.5c2-1.2,3.3-3.7,2.1-6.4c-1.4-3.2-1.9-6.8-3.2-10.1
			c-0.7-1.9-1.5-3.8-2.3-5.7c-0.4-1.7-0.7-3.3-1.1-5c-0.4-2.4-0.7-4.9-0.9-7.3c14.5-10.4,30.3-18.6,48.2-21.3
			c8.8-1.3,17.9-1.3,26.8-0.6c5.2,0.4,10.6,1.1,15.5,3.2c4.7,2,8.9,5.2,12.7,8.6c4.3,3.7,8.7,6.7,10.6,2c2.6,12.8,3.7,20.1,7.2,32.7
			c0.1,0.6,8.7,15.8,9,21.2c0.3,6.5,10,8.4,11.7,1.6C1117,434,1120.9,415.7,1118.4,397.6z"/>
		<g id="XMLID_59_">
			<path class="st62" d="M1004.3,573.8c-16.8,12.9-34,26.1-54.1,32.9c-20.1,6.8-44.4,8.2-57.3,25.2c-4.6,6.1-7.1,13.6-8.9,21.1
				c-4.5,18.6-5.4,37.9-6.8,57.1c-2.6,35.9-7.6,73.6-13.9,109.1c0,0,347.3,0,413.9,0c3.1,0,6.5-2.9,9.5-3.7c3.2-0.8,6-2.9,8.2-5.2
				c10.3-10.7,11.7-27,11.2-41.8c-1.3-36.4-11.2-71.9-21-107c-4.4-15.7-8.8-31.4-13.1-47.1c-1.5-5.3-2.5-11.4-6.9-14.8
				c-8.5-6.5-21.1-8.7-33-9.1c-31-1-55.8-23.2-81.3-40.9c-6.9-4.8-18.6-12.2-22.7-9.2c-5.1,3.7-4.7,18.3-9.2,22.7
				c-3.6,3.5-9,3.8-14,4c-25,1.3-49.9,6-73.6,14c-3.2,1.1-6.7,2.3-10,1.5c-4-0.8-6.9-4.1-10.4-6.2c-3.5-2.1-8.9-2.4-10.7,1.2"/>
		</g>
		<g id="XMLID_82_">
			
				<linearGradient id="SVGID_45_" gradientUnits="userSpaceOnUse" x1="777.2094" y1="121.9471" x2="923.7573" y2="-93.4191" gradientTransform="matrix(1 0 0 -1 0 812)">
				<stop  offset="0" style="stop-color:#3B3B64"/>
				<stop  offset="0.9995" style="stop-color:#312E3C"/>
				<stop  offset="1" style="stop-color:#312E3C"/>
			</linearGradient>
			<path class="st63" d="M864.3,816c-0.2,1.1-0.4,2.1-0.6,3.2c0,0,0.2,0,0.7,0C864.4,818.1,864.4,817,864.3,816z"/>
		</g>
		<g id="XMLID_96_">
			
				<linearGradient id="SVGID_46_" gradientUnits="userSpaceOnUse" x1="966.1465" y1="250.5066" x2="1112.691" y2="35.1455" gradientTransform="matrix(1 0 0 -1 0 812)">
				<stop  offset="0" style="stop-color:#3B3B64"/>
				<stop  offset="0.9995" style="stop-color:#312E3C"/>
				<stop  offset="1" style="stop-color:#312E3C"/>
			</linearGradient>
			<path class="st64" d="M1301.9,783.2c-0.6-10.2-3.4-21.9-10.1-29.9c-4.9-5.9-12.8-7-19.2-10.8c-7.9-4.6-10.1-11.9-8.7-20.6
				c0.3-2.2,0.9-4.9,1.1-7.6c-1-0.1-2.3,0-2.9,0c-2,0-3.9,0.1-5.9,0.3c-4.2,0.5-8.3,1.4-12.3,2.6c-6.6,1.9-12.7,4.7-18.8,7.7
				c6.1-0.7,12.5-0.2,17.3,2.3c1.5,0.8,0.6,2.8-0.8,2.9c-4.1,0.4-8.3-0.5-12.4-0.5s-8.4,0.4-12.4,1.2c-8.6,1.7-16.5,5.9-22.6,12.1
				c-0.3,0.3-0.9-0.1-0.6-0.5c5.2-7.8,12.7-12.8,21.6-15.5c1.6-0.5,3.2-0.9,5-1.3c3.3-3.4,7.3-6.4,11.6-9c7.4-5.1,15.5-9,24-11.9
				c2.3-0.8,4.6-1.5,6.9-2.1c-0.4-0.5-0.8-0.9-1.4-1.3c-6.5-4.8-17.1-0.9-24.4-0.8c-7.3,0.1-16-2.5-19-9.9
				c-1.9-4.7-0.4-9.8,2.4-13.9c7-10.1,18.4-17.3,28.3-24.1c5-3.4,10.1-6.8,14.6-10.7c1.8-1.6,3.5-3.2,5.1-5c0.5-0.6-0.1,0.3,0.5-0.7
				c0.2-0.3,0.4-0.7,0.6-1c0.1-0.1,0.1-0.1,0.1-0.2c0,0,0.1-0.1,0.1-0.2c0-0.1,0-0.1,0-0.2c0-1-0.1-1.9-0.2-2.2
				c-0.1-0.5-0.2-0.9-0.4-1.4c0-0.1,0-0.1-0.1-0.2c0,0-0.1-0.2-0.2-0.4c-0.1-0.1-0.2-0.3-0.3-0.5c-0.1-0.1-0.4-0.4-0.5-0.5
				c-0.2-0.1-0.4-0.2-0.5-0.3c-0.1,0-0.3-0.1-0.4-0.1c-0.2-0.1-0.8-0.2-1-0.2c-0.3,0-0.6-0.1-0.9-0.1c-1,0-2,0-3,0.2
				c0,0-0.6,0.1-1.2,0.2c-0.6,0.1-1.2,0.3-1.8,0.4c-1.2,0.3-2.4,0.6-3.6,1c-10.4,3.2-20.1,8.7-30.6,11.4c-4,1.1-8.9,1.9-12.7-0.3
				c-4.9-2.8-5.5-8.5-4-13.4c-0.3-3,0.4-6.1-0.2-9.1c-0.7-3.8-4.1-5.5-7.6-6c-2.5-0.4-5-0.6-7.5-0.8c-2.9,0.4-5.8,0.6-8.7,0.4
				c-10.5-0.7-19.5-6.1-26-14.3s-7.5-17.3-9.2-27.3c-1.1-6.4-2.6-12.7-5.3-18.4c-2.2-2.3-4.4-4.5-6.7-6.7c-2.6-2.1-5.3-4.2-8-6.1
				c-0.2,0.1-0.3,0.2-0.4,0.3c-5.1,3.7-4.7,18.3-9.2,22.7c-3.6,3.5-9,3.8-14,4c-25,1.3-49.9,6-73.6,14c-3.2,1.1-6.7,2.3-10,1.5
				c-4-0.8-6.9-4.1-10.4-6.2c-1.2-0.7-2.5-1.2-3.9-1.4c-2.9,8.5-11.1,15-15.7,23c-7.2,12.2-2.2,28.7,2.4,41c1.8,4.7,5,6.3,8.8,9.5
				c4.7,3.8,7.1,9,7.2,15c0.1,6.4-2.7,12.7-2.4,19.1c0.3,5.3,4.6,10,6.8,14.7c2.4,5.2,4.2,11,2.6,16.7c-1.6,5.5-6.6,10.1-12.2,11.3
				c-10.7,2.2-21.7-5.1-30-11c-10.5-7.4-16.8-18-21.7-29.7c-2.4-5.8-4.3-11.7-6.4-17.5c-1.9-5.4-4.6-9.7-9.7-12.6
				c-6-3.4-12.4-6-18.4-9.4c-1.7-0.5-3.4-1.2-5.2-2c-1.2-0.6-2.4-1.2-3.6-1.8c-2.1-0.3-4.1-0.5-6.2-0.7c5,3.9,10.3,7.4,15.1,11.7
				c6.1,5.4,17.1,17.6,8.8,25.7c-3.9,3.8-11.5,3.6-16.7,4.6c-2.8,0.5-5.5,1.1-8.3,1.8c-1.6,0.4-3.1,0.8-4.7,1.3
				c-0.6,0.2-1.3,0.4-1.9,0.7c-0.2,0.1-0.4,0.2-0.6,0.2c0,0-0.1,0.1-0.3,0.1c-0.6,0.3-1.3,0.6-1.9,1c-0.3,0.2-1.3,0.8-1.3,0.8
				c-0.2,0.2-0.5,0.5-0.7,0.8c0,0.2,0,0.3,0,0.3c0.1,0.7,0.5,1.2,1.3,2.3c4.7,6.2,12.6,9.3,14.6,17.5c2.3,9.9-4.7,19.1-9.2,27.3
				c-4.7,8.6-8.2,18.4-9.1,28.2c-1.1,11.7-0.2,23.5-1.2,35.2c-0.5,6.4-1.2,12.9-1.9,19.3h391.9c3.1,0,6.5-2.9,9.5-3.7
				c3.2-0.8,6-2.9,8.2-5.2c3-3.2,5.3-6.8,7-10.8C1302.4,794,1302.2,788.5,1301.9,783.2z"/>
		</g>
		<path id="XMLID_58_" class="st56" d="M1128.3,531.4c-3.4-3.7-8.2-6.6-12.4-9.5c-6-4-11.5,5.6-5.6,9.6c1.9,1.3,3.7,2.6,5.5,3.9
			c0.8,0.6,1.8,1.2,2.7,1.9c-0.3,0.5-0.5,1-0.7,1.6c-8.2,26.3-16.4,52.6-22.7,79.5c-3.1,13.4-5.3,26.9-8,40.4
			c-2.6,12.8-7.1,24.8-12.1,36.8c-1.4-6.6-3.6-13.1-5.6-19.3c-3.8-11.7-8.3-23.2-13.3-34.4c-10.5-23.4-24-44.8-39.1-65.5
			c-0.9-1.2-2.4-2.2-4-2.5c1.8-7.7,2.2-15.7,1.4-23.4c-0.3-3-2.3-5.6-5.6-5.6c-2.8,0-5.9,2.6-5.6,5.6c1,9.1,0.2,18.1-2.8,26.8
			c-2.9,8.6-8.7,15.9-11.6,24.6c-2.7,7.9-2.4,17.3,3.1,24c5,6.2,13.3,7.5,18.8,13c6.7,6.6,4.8,15,5.8,23.4c1,7.8,5.3,13.9,10.8,19.3
			c5,4.9,11.3,9.2,14.1,15.8c1.7,3.8,2.3,8.1,3.2,12.1c1.1,5.2,2.2,10.5,3.3,15.7c4.8,22.7,9.4,45.4,13.8,68.1
			c0.4,1.8,1.3,3,2.6,3.5c1.2,1.7,3.5,2.6,5.5,2.4c3-0.4,4.5-2.7,4.8-5.5c2.5-19.9,7.2-39.6,12.3-59c2.6-9.7,5.1-19.5,8.1-29.1
			c2.7-8.7,7.1-15.8,11.7-23.6c4.4-7.5,7.1-15.2,7-24c-0.1-7.4-2.4-16.5,2.8-22.7c2.7-3.2,5.8-5.9,7.4-9.9c1.8-4.6,2-9.8,2.6-14.7
			c1.3-10.1,2.3-20.3,3.2-30.5c1-11.6,1.8-23.3,2.3-35C1132.2,540.1,1131.9,535.3,1128.3,531.4z"/>
		<path id="XMLID_254_" class="st45" d="M1120.6,540.7c-1.7-14.7-5.9-30.4-5.9-30.4c-2.7-2.7-16.7-7.3-18.7-4.4
			c-9.8,14.5-22.3,29-37.1,38.5c-3.4,2.2-7,4.1-10.9,5.2c-4.1,1.2-7.8,1.1-12,0.8c-4.5-0.3-7.3,2-9.3,5.4c-2-0.2-4.1,0.6-5.4,2.6
			c-0.3-4.3-1.1-8.5-2.7-12.6c-2.5-6.6-13.3-3.8-10.7,3c1.2,3.1,2.1,6.3,2.4,9.7c0.1,0.8,0.9,15.8,12.5,41.9
			c4.8,9.3,9.7,18.5,14.9,27.6c6.7,11.8,14.7,25.9,19,36.7c2.7,6.6,13.9,29.8,15.1,35.8c0.8,4.5,2.4,6.2,5.1,3.2
			c1.5-1.7,12.8-27.1,14.4-34.7c1.6-7.5,8.5-38.6,9.5-46.5c0,0,0.8-13.1,3-20.4c2-6.7,9.1-17.8,11.1-24.5
			C1118.4,565.1,1122.3,554.6,1120.6,540.7z M1104.8,526.2c-4.2,5.8-5.8,12.8-9.4,19s-10,9.4-16.5,12c-14.3,5.7-29.3,9.4-44.6,10.9
			c0.9-2.4,1.8-5,2.2-6.4c0.2,0,0.3,0,0.5,0.1c1,0.1,2,0.2,3,0.2c2.1,0,4.2-0.2,6.3-0.5c8.4-1.3,16.1-5.6,22.8-10.6
			c12.3-9.2,23-20.7,32.2-33.1c1.8,2.3,3.4,4.7,4.7,7.3C1105.5,525.3,1105.1,525.7,1104.8,526.2z"/>
		<path id="XMLID_55_" class="st45" d="M1127.2,466.6c0.7-9.5,4.9-19.9-4.4-26.6c-3.3-2.4-7.5-3.6-11.6-2.9
			c-2.5,0.4-4.5,1.8-6.9,2.3c-3.2,0.7-4.8-1.7-5.9-4.4c-2.3-5.5-3.2-11.9-4.5-17.6c-1.4-6.3-2.7-12.6-4.1-18.8
			c-1-4.5-2.7-8.8-6.4-11.7c-3.9-3.1-8.9-4.4-13.6-5.5c-13-3.2-26.4-4.5-39.8-3.8c-6.7,0.3-13.3,1.1-19.9,2.4c-2.8,0.5-5.6,1-8.2,2
			c-0.2-0.1-0.5-0.1-0.7,0.1c-0.2,0.1-0.4,0.3-0.5,0.4c-1.3,0.6-2.5,1.4-3.5,2.4c-5,2.9-10.8,4.3-16,6.9c-3,1.4-10.9,7.7-15.4,22.1
			c-1.4,4.5-3.2,38.7-0.7,42.7c3,5,5.1,10.3,6.4,16c0.1,0.3,0.2,0.5,0.3,0.7c1,9,2.8,17.9,5.3,26.6c1,3.4,2.2,6.8,3.5,10
			c1.1,3.9,2.9,7.6,5.1,11.1c2,4,4,7.9,6,12c1.4,2.8,2.6,5.7,3.5,8.6c0.7,2.2,22.3,26.7,27.2,30.8c3.8,3.1,12,1.8,17.1,2
			c3,0.1,6.2-0.1,9.3-0.6c1.9-0.1,3.8-0.4,5.5-0.9c1.8-0.3,3.5-0.7,5.2-1c7.2-1.5,14.2-3.6,21-6.4c0.3-0.1,0.6-0.3,0.8-0.5
			c7.5-1.3,12.8-7.3,16.1-14.3c2.4-5.2,4-10.7,6.6-15.8c2.4-4.6,5.7-8.7,8-13.4c2.4-5,2.9-10.3,2.8-15.7c0-2.9-0.4-5.9,0-8.8
			c0.5-3.4,3.5-3.1,6-4.4C1130.6,487.5,1126.5,475.1,1127.2,466.6z"/>
		<g id="XMLID_54_">
			<g>
				<path class="st45" d="M1045.6,557.8c9.7,0,9.7-15,0-15S1035.9,557.8,1045.6,557.8L1045.6,557.8z"/>
			</g>
		</g>
		<path id="XMLID_53_" class="st44" d="M1091.8,395.8c1.3,0.6,2.7,1.3,4,1.8c1.3,0.4,2.6,0.6,3.9,0.9c3.2,0.7,4.8-3.4,2.2-5.2
			c-1.1-0.7-2.2-1.6-3.4-2.2c-1.3-0.7-2.7-1.1-4.1-1.7c-1.6-0.6-3.5,0.6-4.1,2C1089.8,392.9,1090.2,395,1091.8,395.8L1091.8,395.8z"
			/>
		<path id="XMLID_52_" class="st44" d="M945.8,385.9c-3.3,8.1-2.5,16.6,0.9,24.6c2.8,6.7,8.8,13.1,16.6,13c2.5,0,3.3-4.2,0.6-4.5
			c-14-1.9-18.7-20.5-15.6-32.4C948.8,385,946.4,384.4,945.8,385.9L945.8,385.9z"/>
		<path id="XMLID_51_" class="st44" d="M946.6,385.8c-1.9,4.3,3.9,6.5,7.2,6.9c3.8,0.4,11.2-0.8,11.7-5.5c0.1-0.9-0.8-1.6-1.6-1.6
			c-2.5-0.1-4.5,2.3-7,2.7c-2.1,0.4-8,0.5-8.6-2.3C948.1,385.3,946.9,385.1,946.6,385.8L946.6,385.8z"/>
		<path id="XMLID_50_" class="st44" d="M947.1,390.2c-1.5,4.2-1,8.4,1.3,12.2c0.8,1.4,2.6,0.9,3.1-0.4c1.3-3.4,0.8-6.9,0.2-10.4
			c-0.4-2-3.5-1.5-3.6,0.5c0,5.8,0.1,11.5,1.6,17.1c0.6,2.2,3.9,1.7,3.9-0.5c0.1-4-0.5-7.8-1.7-11.5c-0.5-1.7-3.4-2-3.8,0
			c-1,5.5-0.8,13.7,4.6,17c1.1,0.7,2.6,0,2.9-1.2c0.9-3.5-0.2-6.5-1.8-9.6c-1.1-2.2-4.1-0.6-3.7,1.6c0.6,3.2,1.9,5.9,3.9,8.5
			c1.4,1.8,4.5-0.6,3.2-2.4c-1.6-2.2-2.6-4.4-3.2-7.1c-1.2,0.5-2.5,1-3.7,1.6c1.1,2.1,2.1,4.1,1.5,6.5c1-0.4,2-0.8,2.9-1.2
			c-3.7-2.2-3.5-8.9-2.9-12.4c-1.3,0-2.5,0-3.8,0c1.1,3.5,1.5,6.8,1.5,10.5c1.3-0.2,2.6-0.4,3.9-0.5c-1.5-5.3-1.7-10.6-1.8-16.1
			c-1.2,0.2-2.4,0.3-3.6,0.5c0.6,2.9,1,5.6,0,8.5c1-0.1,2.1-0.3,3.1-0.4c-2.1-3-2.5-6.2-1.5-9.7
			C950.4,389.1,947.7,388.4,947.1,390.2L947.1,390.2z"/>
		<path id="XMLID_45_" class="st44" d="M969.8,373.8c-5.8,5.2-13.8,13.3-22.1,8.1c-0.9-0.6-2.5-0.3-2.9,0.8
			c-3.7,8.7-3,22.9,6.3,28.1c1.3,0.7,3-0.8,2.1-2.1c-2.3-3.6-4.8-6.5-5.8-10.7c-1.1-4.3-0.8-8.9,1.1-13c-1,0.3-2,0.5-2.9,0.8
			c10.2,6.8,20.6-2,25.9-10.5C972.1,374,970.7,373,969.8,373.8L969.8,373.8z"/>
		<path id="XMLID_43_" class="st44" d="M949.5,386.5c1.3,2.2,5.7,2.4,8,2.3c2.1-0.1,2.4-2.9,0.5-3.6c-2.1-0.7-4.4-1.1-6.6-1.1
			c-1.5,0-2.4,1.7-1.7,2.9c1.2,2.2,3.2,3.7,5.7,4.2c0.2-1.3,0.4-2.7,0.5-4c-2.1,0-4.2,0-6.2-0.1c-2.7,0-2.7,4.2,0,4.2
			c1.4,0,2.9,0,4.3,0.1c1.3,0,2.5,0.1,3.5-0.9c0.7-0.7,0.7-1.7,0.3-2.6c0-0.1-0.1-0.1-0.1-0.2c-0.9-1.9-3.9-0.9-3.9,1.1
			c0,0.1,0,0.1,0,0.2c0.4-0.6,0.7-1.2,1.1-1.8c-0.2,0.2-2,0-2.3,0c-1,0-1.9,0-2.9,0c0,1.4,0,2.8,0,4.2c2.1,0,4.2,0,6.2-0.1
			c2.2,0,2.9-3.6,0.5-4c-1.5-0.3-2.6-0.9-3.4-2.2c-0.6,1-1.1,2-1.7,2.9c2,0,3.8,0.2,5.7,0.7c0-1.2,0-2.3,0-3.5
			c-1.2,0.2-2.5,0.2-3.7,0c-1.1-0.1-2.1-0.6-3.2-0.3C949.5,385.2,949.1,386,949.5,386.5L949.5,386.5z"/>
		<path id="XMLID_219_" class="st45" d="M1025.1,817.3L1025.1,817.3c0.1-8.2-8.2-13.1-14.2-17.4c-8.5-6.1-18-14.2-28.4-16.5
			c-3.6-0.8-7.7-0.6-10.7,1.9c-3.1,2.5-3.7,6.4-3.6,10.2c0,2.4,0.4,5.1-0.3,7.4c-0.9,2.7-3.3,4.1-5.5,5.6c-3.3,2.2-6,4.9-6.1,9
			c0,1,0.9,1.8,1.9,1.9l66.8-0.1c0-0.1,0.1-0.5,0.1-0.6C1025.1,818.2,1025.2,817.7,1025.1,817.3z"/>
		<path id="XMLID_41_" class="st45" d="M1268.9,794.3c0.5-2.9-0.3-5.9-2.1-8.3c-1.5-2-3.6-3.3-6-4c-1.4-0.4-2.8-0.6-4.1-1.1
			c-2.7-0.8-3.6-2.5-5.1-4.6c-4.5-6.4-12.6-4.4-19.4-3.7c-7.6,0.8-15.1,2-22.6,3.4c1.4-4.7-2.6-10-8.3-8.6
			c-4.6,1.1-7.9,5.3-11.9,7.6c-4.1,2.3-9.2,2.4-13.1,5.4c-1,0.8-1.8,1.7-2.4,2.8c-1.7,1.9-3.3,4-5.5,5.5c-0.5,0.3-0.9,0.6-1.4,0.9
			l0,0c-4.7,2-9.3,4.1-13.7,6.6c-4,2.3-6.4,4.6-8.6,8.7c-2.4,4.7-4.6,9.6-6.6,14.5c0,0,43.7-0.5,52.2-0.4c8.3,0.2,69.2,0.1,69.2,0.1
			c1.9-0.7,4.5-2.8,5.4-4.8c1.4-3.1-0.3-6.6,0.1-9.8C1265.5,801.5,1268.4,797.5,1268.9,794.3z"/>
		
			<linearGradient id="XMLID_48_" gradientUnits="userSpaceOnUse" x1="1020.7" y1="263.7511" x2="1112.3999" y2="263.7511" gradientTransform="matrix(1 0 0 -1 0 812)">
			<stop  offset="0" style="stop-color:#F7E2BB"/>
			<stop  offset="1" style="stop-color:#D2B795"/>
		</linearGradient>
		<path id="XMLID_291_" class="st65" d="M1020.7,566.3c1.5,1.5,15.6,14.5,15.6,14.5s7.1,8.9,29.7,2.2c18.5-5.5,34.4-18.2,39.7-31.9
			c5.3-13.6,6.7-40.1,6.7-40.1s-12.3,39-17.8,44.9c-5.6,5.9-31.2,10.8-31.2,10.8l-29.7,4.8L1020.7,566.3z"/>
		<g id="XMLID_299_">
			
				<linearGradient id="SVGID_47_" gradientUnits="userSpaceOnUse" x1="1063.9921" y1="168.6501" x2="1113.2" y2="168.6501" gradientTransform="matrix(1 0 0 -1 0 812)">
				<stop  offset="0" style="stop-color:#F7E2BB"/>
				<stop  offset="1" style="stop-color:#D2B795"/>
			</linearGradient>
			<path class="st66" d="M1113.2,579.3c-4.5,15.5-17.4,28.3-32.9,32.7c-4.1,1.2-8.5,1.9-12,4.3c-3.5,2.5-5.7,7.5-3.3,11.1
				c1,1.5,2.6,2.5,4,3.6c6,4.7,9,12.8,7.6,20.3c-0.7,3.9-2.5,7.4-4,11.1c-5.3,13.3-4.6,31.3-0.4,45c3.9-2.1,7.8-9.3,9.5-13.4
				c2.6-6.3,4.7-11.4,7.6-17.6c3-6.4,4.5-16.6,5.4-23.6c1.5-11.8,0.8-21.5,3.2-33.1c2.4-11.6,6.4-23.2,13.5-32.7"/>
		</g>
		<g id="XMLID_34_">
			
				<linearGradient id="XMLID_56_" gradientUnits="userSpaceOnUse" x1="995.1652" y1="188.6468" x2="1010.9412" y2="188.6468" gradientTransform="matrix(1 0 0 -1 0 812)">
				<stop  offset="0" style="stop-color:#92C9C2"/>
				<stop  offset="1" style="stop-color:#658781"/>
			</linearGradient>
			<path id="XMLID_40_" class="st67" d="M1006.8,627c-3.2-5.5-0.7-11.8-3.2-17.3c-1.9-4.2-6.7-2.3-8.1,1.3
				c-1.8,4.9,1.2,9.3,4.2,12.9c3.2,3.8,7.6,8.5,9.3,13.6c0.9,0.5,1.8,1.1,2.5,1.9c0.1-4.1-2-8.3-4.5-12.1
				C1007,627.3,1006.9,627.2,1006.8,627z"/>
			
				<linearGradient id="XMLID_57_" gradientUnits="userSpaceOnUse" x1="1105.7295" y1="189.7099" x2="1117.3671" y2="189.7099" gradientTransform="matrix(1 0 0 -1 0 812)">
				<stop  offset="0" style="stop-color:#92C9C2"/>
				<stop  offset="1" style="stop-color:#658781"/>
			</linearGradient>
			<path id="XMLID_39_" class="st68" d="M1115.7,624.3c0.7-2.3,1.5-4.5,1.9-6.9c0.9-4.6-1-13.7-7.5-13.2c-6.8,0.5-4.4,11.9-3,15.7
				c1.4,3.9,3.1,7.6,4.2,11.6c0.8,2.9,1.2,6.2,2.6,8.9c0.3-0.7,0.7-1.4,1.1-2.1c0.2-0.6,0.5-1.3,0.9-1.9c-0.4-1.9-0.7-3.8-1.1-5.6
				c0-0.3,0-0.6,0-0.9c0-1.8,0.4-3.5,0.8-5.2C1115.6,624.6,1115.6,624.4,1115.7,624.3z"/>
			
				<linearGradient id="XMLID_64_" gradientUnits="userSpaceOnUse" x1="1017.8146" y1="115.5373" x2="1104.283" y2="115.5373" gradientTransform="matrix(1 0 0 -1 0 812)">
				<stop  offset="0" style="stop-color:#92C9C2"/>
				<stop  offset="1" style="stop-color:#658781"/>
			</linearGradient>
			<path id="XMLID_36_" class="st69" d="M1106.1,593.9c-9.9,19.3-9.5,41.9-13.3,62.8c-1.9,10.5-4.6,21-9.2,30.7
				c-2.2,4.7-4.9,9-7.9,13.1c-1.2,1.7-2.2,3.3-2.9,5c-1.2-5.5-3.1-10.9-5.1-16c-3.2-8-5.2-16.3-8.6-24.2
				c-3.3-7.6-7.7-14.7-12.1-21.7c-2.3-3.8-4.8-7.5-7.2-11.3c-0.1-0.4-0.1-0.7-0.1-1.1c-0.1-1.1-0.9-1.7-1.7-1.9
				c-0.7-1.2-1.4-2.4-2.1-3.6c-1.1-3.1-2.9-6-5.5-8.5c-0.8-0.7-1.9,0.4-1.2,1.2c8.2,9.9,4.3,24.1,2.9,35.6c-0.8,6.4-0.9,13,1.4,19
				c1.8,4.7,5.1,8.6,8.8,12c4,3.7,8.4,6.8,12.3,10.6c4.8,4.7,8.1,10.6,9.6,17.2c1.1,4.8,0.3,10.5,0.2,15.9c-0.4-1.2-0.8-2.4-1.2-3.6
				c-1.9-5.8-3.8-11.6-7.3-16.5s-8-8.7-12.6-12.5c-5.6-4.7-8.1-7.6-12.5-12.9c-4.3-5.1-8.9-12.5-11.5-18.7c-0.4-0.8-2.6-1.3-2.3-0.5
				l0.6,2.3c3.8,11.9,9.4,21,19.2,28.8c2.4,1.9,5,3.8,7.4,5.7c0,0.2,0.1,0.3,0.3,0.5c6.6,5.5,8.1,14.1,8.3,22.3
				c0.2,4.8,0.1,9.5,0.8,14.2c0.7,4.8,2.7,9.1,3.8,13.8c1.1,5,0.4,10.2,0.7,15.3c0.2,4.6,0.7,9.1,1.5,13.7c0.4,2.4,0.9,4.8,1.5,7.2
				c0,2,0.5,4.1,1.3,5.6c0.2,0.4,0.5,0.8,0.8,1.2c1.1,2.8,3.2,5.1,6.5,4.8c0.2,0,0.5-0.1,0.7-0.2c0,0.1,0,0.1,0,0.2
				c0.2,0,0.4-0.1,0.5-0.1c0.6-0.2,1.2-0.5,1.8-0.7c-1.1-7.1-2.1-14.3-3.2-21.4c-0.7-4.7-0.8-8.5,1.6-12.7c1.3-2.3,2.9-4.4,3.8-7
				c1.3-3.5,1.5-7.1,0.5-10.4c-0.3-5.5-0.6-10.9-0.8-16.4c-0.2-3.8-0.2-7.7-0.2-11.5c0-4-0.4-8.4,1.3-12.1
				c2.5-5.6,6.9-10.4,9.7-15.9c2.8-5.6,5-11.4,6.8-17.4c7.6-25.9,5.7-54.1,15.6-79.3C1107.8,593.6,1106.5,593.1,1106.1,593.9z
				 M1055.2,713.2c0-0.1-0.1-0.3-0.1-0.4c0.3,0.4,0.5,0.9,0.7,1.3C1055.6,713.8,1055.4,713.5,1055.2,713.2z M1057.2,677.3
				c0.4,0.9,0.7,1.9,1.1,2.8c-0.3-0.7-0.6-1.5-0.9-2.2C1057.3,677.7,1057.2,677.5,1057.2,677.3z"/>
		</g>
		<g id="XMLID_33_">
			
				<linearGradient id="SVGID_48_" gradientUnits="userSpaceOnUse" x1="698.8" y1="355.5358" x2="792.25" y2="355.5358" gradientTransform="matrix(1 0 0 -1 0 812)">
				<stop  offset="0" style="stop-color:#F7E2BB"/>
				<stop  offset="1" style="stop-color:#D2B795"/>
			</linearGradient>
			<path class="st70" d="M698.8,481.3c2.5-7.8,3.8-11.6,8.7-18.1c4.9-6.4,11.7-11,18.5-15.4c14.9-9.7,30.6-19.3,48.2-21.9
				c5-0.7,10.3-0.9,14.9,1.3c0,0,1.9,2.9,2.6,10.1c0.4,3.5,1.4,8.3-1,10.9c-3.9,4-7.7,8.1-12.2,11.5c-3.5,2.6-7.3,4.8-11.1,6.8
				c-21.8,11.6-42.8,21.3-67.5,21L698.8,481.3z"/>
		</g>
		<g id="XMLID_32_">
			<path id="XMLID_44_" class="st44" d="M801.1,409.1c-0.2-2.1-2.6-4.3-4.1-5.6c-1.8-1.6-4-2.8-6.1-0.9c-0.1,0.1-0.1,0.1-0.2,0.2
				c-1.1,0.5-1.6,1.9-0.6,3c0.6,0.7,1.3,1.3,1.9,1.9c-0.8,1.4-1.3,3.2-1.3,4.9c-0.2,0.3-0.4,0.5-0.5,0.8c-4.5-1.8-6.4,5.8-1.8,5.5
				c1.6-0.1,2.9-1.3,4-2.6c2.7,1.8,6.2-1.5,6.3-4.5c0.3,0,0.5,0,0.8-0.2C800.6,411.2,801.2,410.2,801.1,409.1z"/>
			<path id="XMLID_87_" class="st44" d="M671.4,446.3c2.5-11.2,7.2-22.3,14.8-31.1c3.7-4.3,8.1-7.8,12.8-10.8c0.2,0,0.5-0.1,0.7-0.3
				c4.6-3.1,9.4-5.7,14.5-7.9c0,0,0,0,0,0.1c-1.4,1.8,0.3,4.5,2.5,3.3c4.9-2.8,8.9-5.2,14.7-5.6c5.4-0.4,11-0.1,16.4,0
				c5.5,0,10.9,0,16.3,1.4c3.8,0.9,7.4,2.3,11,3.7c0.3,0.4,0.6,0.8,0.9,1.2c0.9,1.2,2.4,0.9,3.1,0.1c1-0.1,1.4-1.6,0.4-2.2
				c-0.4-0.2-0.7-0.5-1.1-0.7c-8.9-11.5-24.7-12.8-38.3-11.6c-7.8,0.7-15.5,2.5-22.8,5.1c-0.2,0-0.4,0-0.7,0.1
				c-6.5,2-12.3,5.6-18,9.2c-5.6,3.4-10.8,7.4-15.1,12.4c-8,9.3-13,20.9-15.7,32.7c-4.8,21.2-0.8,43.5,10.5,61.8c0,0,0-0.1,0.1-0.1
				c0.2-0.4,0.6-0.7,1-1c0.2-0.6,0.4-1.2,0.5-1.9c0.1-0.3,0.2-0.6,0.4-0.9C670.3,486.3,667,465.7,671.4,446.3z"/>
			<path id="XMLID_105_" class="st44" d="M786.5,423.5c0.2-1.2-0.8-2-1.8-2.2c0.2-0.7,0.5-1.3,0.7-2c0.3-0.9-0.4-2-1.3-2.3
				c-2.4-0.6-3.9,0.9-5,2.8c-0.7-1.2-2.6-1.6-3.7-0.1c-1.3,1.8-2.4,3.7-3.5,5.6c-0.2-0.2-0.5-0.4-0.8-0.6c0.3-0.7,0.1-1.4-0.5-1.9
				c0.2-0.4,0.5-0.8,0.7-1.1c1.1-1.8-1.5-3.8-2.9-2.2c-0.8,0.8-1.6,1.7-2.3,2.5c0.4-2.1-2.7-3.6-4.1-1.4c-1.5,2.3-3.2,4.3-5,6.3
				c-0.4-0.9-1.4-1.4-2.6-0.9c-1.5,0.7-2.9,1.5-4.4,2.4c0-1.3-1.3-2.5-2.7-1.6c-2.2,1.4-4.4,2.9-6.6,4.3c0.9-0.8,1.8-1.5,2.7-2.3
				c1.7-1.5-0.5-3.8-2.3-2.9c-4.4,2.1-8.5,4.4-12.5,7c0.5-1.4-1.3-3.3-2.7-2.2c-1.2,0.9-2.3,1.8-3.5,2.7c0.2-0.4,0.5-0.8,0.7-1.3
				c0.4-0.4,0.8-0.8,1.3-1.2c0.7-0.7,0.7-1.4,0.4-2.1c0.1-0.2,0.2-0.5,0.3-0.7c0.7-1.5-0.8-3.7-2.5-2.5c-8.1,5.4-15.1,12-21.8,18.9
				c-2,0.4-3.9,3.1-5,4.3c-4.6,5-8.6,10.5-11.9,16.3c-1,1.8,1.6,4,2.9,2.2c0.1-0.2,0.3-0.4,0.4-0.6c-0.2,0.6-0.1,1.2,0.3,1.6
				c-0.2,0.2-0.3,0.4-0.5,0.7c-0.4,0-0.9-0.1-1.3-0.1c-2.5-0.2-2.9,3.1-1.1,4.2c-0.4,0.8-0.7,1.6-1,2.4c-1.1,0-2.2,0-3.4,0
				c-2.4-0.1-2.4,3.6,0,3.7c0.3,0,0.7,0,1,0c-0.6,0.9-0.3,2.2,0.6,2.7c0.3,0.6,0.8,1,1.5,1.1c1.8,0.2,3.5,0.3,5.2,0.1
				c7.8,1.1,15.8-1.9,23-4.9c6-2.6,11.9-5.5,17.6-8.7c1.3-0.5,2.6-0.9,3.9-1.4c1.8-0.7,3.6-1.4,5.4-2.1c-3.6,2.1-7.2,4.1-10.8,6.1
				c-7.6,4.4-15.1,9.2-23.7,11.3c-1,0.3-0.9,2.1,0.3,1.9c8.2-1,20-5.1,27.3-8.6c32.3-15.4,53.5-35.2,59.2-46.2
				C791.5,429.6,787.4,423.9,786.5,423.5z"/>
		</g>
		
			<linearGradient id="XMLID_126_" gradientUnits="userSpaceOnUse" x1="1106.125" y1="348.3571" x2="1122.476" y2="348.3571" gradientTransform="matrix(1 0 0 -1 0 812)">
			<stop  offset="0" style="stop-color:#F7E2BB"/>
			<stop  offset="1" style="stop-color:#D2B795"/>
		</linearGradient>
		<path id="XMLID_31_" class="st71" d="M1106.1,452.8l2.2,28.7c0,0,8.9,2,9.7-2.4c0.7-4.5-1.5-5.8,0.2-10.8s7.2-11.1,2.2-18
			C1115.4,443.4,1106.5,443.2,1106.1,452.8z"/>
		
			<linearGradient id="XMLID_128_" gradientUnits="userSpaceOnUse" x1="969.095" y1="384.2414" x2="1105.0781" y2="384.2414" gradientTransform="matrix(1 0 0 -1 0 812)">
			<stop  offset="0" style="stop-color:#F7E2BB"/>
			<stop  offset="1" style="stop-color:#D2B795"/>
		</linearGradient>
		<path id="XMLID_46_" class="st72" d="M971.5,413c0,0-2.2,11.8-2.4,16.9c-0.6,11.7,52.7-15.4,85-5c32.3,10.4,26.4,35.4,49.6,38.4
			c10,1.3-37.7-71.1-37.7-71.1l-86.9,16.7L971.5,413z"/>
		<path id="XMLID_49_" class="st44" d="M1115.1,427.4c0-2.1-1.7-3.7-3.8-3.8c-3-0.1-4.7,1.6-6.9,3.4l0,0c0.6-2,0.4-4.4-1-6
			c-0.7-0.8-1.3-1.7-1.9-2.6c-0.5-4.4-2.8-9-5.1-12.5c-0.6-0.9-1.4-1.6-2.2-2c0.1-1.8,0.1-3.5,0-5.3c0.5-0.5,0.9-1.2,0.9-2.1
			c0-0.2,0-0.3,0-0.5c0-0.7-0.2-1.3-0.5-1.9c-0.2-1.3-0.7-2.5-1.9-3.7c-1.1-1.1-2.2-2.1-3.3-3.2c0-0.2,0.1-0.5,0.1-0.7
			c0.3-2-2.2-3.9-3.7-2.7c-0.7-0.7-1.4-1.3-2-2c-0.7-0.7-1.3-1.4-2.1-2c-2.5-2.3-5.5-2.1-7.8-0.8c-0.5-1.3-1.4-2.4-2.8-3.1
			c-2-1-4.1-2-6.1-3c-3.1-1.5-6.6-0.3-8.5,1.9c-0.7,0-1.3,0-2,0c-1-1.3-2.6-2.2-4.9-2.3c-8.9-0.2-18.1-0.3-26.8,1.6
			c0-0.3,0-0.6-0.1-0.9c-0.4-2.8-3.1-5.9-6.3-5.5c-16.8,2-33.6,5.1-48.9,12.6c-6.3,3.1-16.1,7.7-18.1,15c-1.3,4.5,1,8.9,2.3,13.1
			c1.5,4.7,2.7,9.5,4,14.2c1.1,4.2,6.6,3.2,7.4-0.5c0.5-0.1,1.2-0.1,1.5-0.5c17-24.3,64.7-13,88.9-23.7c2.9-1.3,6.5-1.1,11,1.6
			c4.3,2.6,9.5,6.6,12.2,10.2c2.4,7.6,5,15.2,7.2,22.9c0.9,3.2,1.6,6.6,4.4,8.7c1.8,1.4,4,2.1,6.1,2.9c2.3,6.5,5.2,12.7,8.7,18.5
			c0.3,0.5,1,0.6,1.5,0.4c0.3,0,0.6-0.2,0.8-0.6c0.1-0.1,0.1-0.3,0.2-0.4c0.4-5.2,0.3-10.5,0.1-15.7c-0.3-6.4,4.6-10.3,7-10
			c1.1,0.2,0.6-3.2,0.1-4.1C1114.1,431.3,1115.1,429.6,1115.1,427.4z M961.4,402.7c-0.4-1.1-0.8-2.3-0.8-3.3
			c0.2-1.8,3.9-3.7,5.9-4.8C964.7,397.2,963,399.9,961.4,402.7z"/>
	</g>
</g>
<g>
	<rect id="XMLID_2_" x="0.4" class="st73" width="1299.9" height="812.5"/>
	<g>
		<path id="XMLID_147_" class="st74" d="M650,800.9l162.4-13l-1.6-3.1l0,0L779.4,726l-4.6,0.3l-0.9-1.6c-10-0.5-20-0.8-30-0.8
			c-27.8,0-55.5,2.1-82,6.2l-8.2,1.3l-3.6,0.6l-3.4-0.5l-8.4-1.3c-26.5-4.1-54.2-6.2-82-6.2c-10,0-20,0.3-30,0.8l-0.9,1.6l-4.6-0.3
			l-31.4,58.8l0,0l-1.6,3.1L650,800.9L650,800.9L650,800.9L650,800.9L650,800.9z"/>
		<g id="XMLID_19_">
			<polygon id="XMLID_26_" class="st75" points="650,766 487.6,737.8 520.6,603.5 650,621.2 			"/>
			<polygon id="XMLID_25_" class="st75" points="650,766 812.4,737.8 779.4,603.5 650,621.2 			"/>
			<path id="XMLID_84_" class="st76" d="M650,626.4v134.7l-6.7-1.1l-148.8-24l0-0.1c0,0,0,0,0,0l0-0.1c0,0,0,0,0,0l0-0.1
				c0,0,0,0,0,0l0-0.1h0l0-0.1h0l0-0.1h0l0-0.1h0l0-0.1h0l0-0.1h0l0-0.1h0l0-0.1h0l0-0.1h0l0-0.1h0l0-0.1h0l0-0.1h0l0-0.1h0l0-0.1h0
				l0-0.1c0,0,0,0,0,0l0-0.1h0l0-0.1h0l0-0.1h0l0-0.1h0l0-0.1h0l0-0.1c0,0,0,0,0,0l0-0.1h0l0-0.1h0l0-0.1h0l0-0.1h0l0-0.1h0l0-0.1
				c0,0,0,0,0,0l0-0.1h0l0-0.1h0l0-0.1h0l0-0.1h0l0-0.1h0l0-0.1h0l0-0.1h0l0-0.1h0l0-0.1h0l0-0.1h0l0-0.1h0l0-0.1h0l0-0.1h0l0-0.1h0
				l0-0.1h0l0-0.1h0l0-0.1c0,0,0,0,0,0l0-0.1h0l0-0.1h0l0-0.1h0l0-0.1h0l0-0.1h0l0-0.1c0,0,0,0,0,0l0-0.1h0l0-0.1h0l0-0.1h0l0-0.1h0
				l0-0.1h0l0-0.1c0,0,0,0,0,0l0-0.1h0l0-0.1h0l0-0.1h0l0-0.1h0l0-0.1h0l0-0.1c0,0,0,0,0,0l0-0.1h0l0-0.1h0l0-0.1h0l0-0.1h0l0-0.1h0
				l0-0.1h0l0-0.1h0l0-0.1h0l0-0.1h0l0-0.1h0l0-0.1h0l0-0.1h0l0-0.1h0l0-0.1h0l0-0.1h0l0-0.1h0l0-0.1c0,0,0,0,0,0l0-0.1h0l0-0.1h0
				l0-0.1h0l0-0.1h0l0-0.1h0l0-0.1c0,0,0,0,0,0l0-0.1h0l0-0.1h0l0-0.1h0l0-0.1h0l0-0.1h0l0-0.1c0,0,0,0,0,0l0-0.1h0l0-0.1h0l0-0.1h0
				l0-0.1h0l0-0.1h0l0-0.1c0,0,0,0,0,0l0-0.1l31.6-119.3c37.4-4.4,76.4-0.3,112.1,11.8l8.4,2.8L650,626.4z"/>
			<path id="XMLID_83_" class="st76" d="M805.4,730L805.4,730L805.4,730L805.4,730v0.1h0l0,0.1h0l0,0.1h0l0,0.1c0,0,0,0,0,0l0,0.1h0
				l0,0.1h0l0,0.1h0l0,0.1h0l0,0.1h0l0,0.1c0,0,0,0,0,0l0,0.1h0l0,0.1h0l0,0.1h0l0,0.1h0l0,0.1h0l0,0.1c0,0,0,0,0,0l0,0.1h0l0,0.1h0
				l0,0.1h0l0,0.1h0l0,0.1h0l0,0.1h0l0,0.1h0l0,0.1h0l0,0.1h0l0,0.1h0l0,0.1h0l0,0.1h0l0,0.1h0l0,0.1h0l0,0.1h0l0,0.1h0l0,0.1
				c0,0,0,0,0,0l0,0.1h0l0,0.1h0l0,0.1h0l0,0.1h0l0,0.1h0l0,0.1c0,0,0,0,0,0l0,0.1h0l0,0.1h0l0,0.1h0l0,0.1h0l0,0.1h0l0,0.1
				c0,0,0,0,0,0l0,0.1h0l0,0.1h0l0,0.1h0l0,0.1h0l0,0.1h0l0,0.1c0,0,0,0,0,0l0,0.1h0l0,0.1h0l0,0.1h0l0,0.1h0l0,0.1h0l0,0.1h0l0,0.1
				h0l0,0.1h0l0,0.1h0l0,0.1h0l0,0.1h0l0,0.1h0l0,0.1h0l0,0.1h0l0,0.1h0l0,0.1h0l0,0.1c0,0,0,0,0,0l0,0.1h0l0,0.1h0l0,0.1h0l0,0.1h0
				l0,0.1h0l0,0.1c0,0,0,0,0,0l0,0.1h0l0,0.1h0l0,0.1h0l0,0.1h0l0,0.1h0l0,0.1c0,0,0,0,0,0l0,0.1h0l0,0.1h0l0,0.1h0l0,0.1h0l0,0.1h0
				l0,0.1h0l0,0.1h0l0,0.1h0l0,0.1h0l0,0.1c0,0,0,0,0,0l0,0.1c0,0,0,0,0,0l0,0.1c0,0,0,0,0,0l0,0.1c0,0,0,0,0,0l0,0.1c0,0,0,0,0,0
				l0,0.1c0,0,0,0,0,0l0,0.1c0,0,0,0,0,0l0,0.1c0,0,0,0,0,0l0,0.1l-148.6,24v0l-6.9,1.1V626.4l3.6-1.2l8.2-2.8
				c26.3-8.9,54.5-13.5,82.5-13.5c9.9,0,19.8,0.6,29.6,1.7l31.6,119.3L805.4,730C805.4,729.9,805.4,729.9,805.4,730L805.4,730z"/>
			<g id="XMLID_22_">
				<g id="XMLID_78_">
					<g id="XMLID_24_">
						<path id="XMLID_77_" class="st77" d="M650,616.4v134.7l-6.7-1.1l-148.8-24l0-0.1c0,0,0,0,0,0l0-0.1c0,0,0,0,0,0l0-0.1
							c0,0,0,0,0,0l0-0.1h0l0-0.1h0l0-0.1h0l0-0.1h0l0-0.1h0l0-0.1h0l0-0.1h0l0-0.1h0l0-0.1h0l0-0.1h0l0-0.1h0l0-0.1h0l0-0.1h0
							l0-0.1h0l0-0.1c0,0,0,0,0,0l0-0.1h0l0-0.1h0l0-0.1h0l0-0.1h0l0-0.1h0l0-0.1c0,0,0,0,0,0l0-0.1h0l0-0.1h0l0-0.1h0l0-0.1h0
							l0-0.1h0l0-0.1c0,0,0,0,0,0l0-0.1h0l0-0.1h0l0-0.1h0l0-0.1h0l0-0.1h0l0-0.1h0l0-0.1h0l0-0.1h0l0-0.1h0l0-0.1h0l0-0.1h0l0-0.1
							h0l0-0.1h0l0-0.1h0l0-0.1h0l0-0.1h0l0-0.1c0,0,0,0,0,0l0-0.1h0l0-0.1h0l0-0.1h0l0-0.1h0l0-0.1h0l0-0.1c0,0,0,0,0,0l0-0.1h0
							l0-0.1h0l0-0.1h0l0-0.1h0l0-0.1h0l0-0.1c0,0,0,0,0,0l0-0.1h0l0-0.1h0l0-0.1h0l0-0.1h0l0-0.1h0l0-0.1c0,0,0,0,0,0l0-0.1h0
							l0-0.1h0l0-0.1h0l0-0.1h0l0-0.1h0l0-0.1h0l0-0.1h0l0-0.1h0l0-0.1h0l0-0.1h0l0-0.1h0l0-0.1h0l0-0.1h0l0-0.1h0l0-0.1h0l0-0.1h0
							l0-0.1c0,0,0,0,0,0l0-0.1h0l0-0.1h0l0-0.1h0l0-0.1h0l0-0.1h0l0-0.1c0,0,0,0,0,0l0-0.1h0l0-0.1h0l0-0.1h0l0-0.1h0l0-0.1h0
							l0-0.1c0,0,0,0,0,0l0-0.1h0l0-0.1h0l0-0.1h0l0-0.1h0l0-0.1h0l0-0.1c0,0,0,0,0,0l0-0.1l31.6-119.3
							c37.4-4.4,76.4-0.3,112.1,11.8l8.4,2.8L650,616.4z"/>
						<path id="XMLID_75_" class="st77" d="M805.4,720L805.4,720L805.4,720L805.4,720v0.1h0l0,0.1h0l0,0.1h0l0,0.1c0,0,0,0,0,0
							l0,0.1h0l0,0.1h0l0,0.1h0l0,0.1h0l0,0.1h0l0,0.1c0,0,0,0,0,0l0,0.1h0l0,0.1h0l0,0.1h0l0,0.1h0l0,0.1h0l0,0.1c0,0,0,0,0,0
							l0,0.1h0l0,0.1h0l0,0.1h0l0,0.1h0l0,0.1h0l0,0.1h0l0,0.1h0l0,0.1h0l0,0.1h0l0,0.1h0l0,0.1h0l0,0.1h0l0,0.1h0l0,0.1h0l0,0.1h0
							l0,0.1h0l0,0.1c0,0,0,0,0,0l0,0.1h0l0,0.1h0l0,0.1h0l0,0.1h0l0,0.1h0l0,0.1c0,0,0,0,0,0l0,0.1h0l0,0.1h0l0,0.1h0l0,0.1h0
							l0,0.1h0l0,0.1c0,0,0,0,0,0l0,0.1h0l0,0.1h0l0,0.1h0l0,0.1h0l0,0.1h0l0,0.1c0,0,0,0,0,0l0,0.1h0l0,0.1h0l0,0.1h0l0,0.1h0
							l0,0.1h0l0,0.1h0l0,0.1h0l0,0.1h0l0,0.1h0l0,0.1h0l0,0.1h0l0,0.1h0l0,0.1h0l0,0.1h0l0,0.1h0l0,0.1h0l0,0.1c0,0,0,0,0,0l0,0.1
							h0l0,0.1h0l0,0.1h0l0,0.1h0l0,0.1h0l0,0.1c0,0,0,0,0,0l0,0.1h0l0,0.1h0l0,0.1h0l0,0.1h0l0,0.1h0l0,0.1c0,0,0,0,0,0l0,0.1h0
							l0,0.1h0l0,0.1h0l0,0.1h0l0,0.1h0l0,0.1h0l0,0.1h0l0,0.1h0l0,0.1h0l0,0.1c0,0,0,0,0,0l0,0.1c0,0,0,0,0,0l0,0.1c0,0,0,0,0,0
							l0,0.1c0,0,0,0,0,0l0,0.1c0,0,0,0,0,0l0,0.1c0,0,0,0,0,0l0,0.1c0,0,0,0,0,0l0,0.1c0,0,0,0,0,0l0,0.1l-148.6,24v0l-6.9,1.1
							V616.4l3.6-1.2l8.2-2.8c26.3-8.9,54.5-13.5,82.5-13.5c9.9,0,19.8,0.6,29.6,1.7l31.6,119.3L805.4,720
							C805.4,720,805.4,720,805.4,720L805.4,720z"/>
						<path id="XMLID_94_" class="st77" d="M650,616.4v134.7l-6.7-1.1l-148.8-24l0-0.1c0,0,0,0,0,0l0-0.1c0,0,0,0,0,0l0-0.1
							c0,0,0,0,0,0l0-0.1h0l0-0.1h0l0-0.1h0l0-0.1h0l0-0.1h0l0-0.1h0l0-0.1h0l0-0.1h0l0-0.1h0l0-0.1h0l0-0.1h0l0-0.1h0l0-0.1h0
							l0-0.1h0l0-0.1c0,0,0,0,0,0l0-0.1h0l0-0.1h0l0-0.1h0l0-0.1h0l0-0.1h0l0-0.1c0,0,0,0,0,0l0-0.1h0l0-0.1h0l0-0.1h0l0-0.1h0
							l0-0.1h0l0-0.1c0,0,0,0,0,0l0-0.1h0l0-0.1h0l0-0.1h0l0-0.1h0l0-0.1h0l0-0.1h0l0-0.1h0l0-0.1h0l0-0.1h0l0-0.1h0l0-0.1h0l0-0.1
							h0l0-0.1h0l0-0.1h0l0-0.1h0l0-0.1h0l0-0.1c0,0,0,0,0,0l0-0.1h0l0-0.1h0l0-0.1h0l0-0.1h0l0-0.1h0l0-0.1c0,0,0,0,0,0l0-0.1h0
							l0-0.1h0l0-0.1h0l0-0.1h0l0-0.1h0l0-0.1c0,0,0,0,0,0l0-0.1h0l0-0.1h0l0-0.1h0l0-0.1h0l0-0.1h0l0-0.1c0,0,0,0,0,0l0-0.1h0
							l0-0.1h0l0-0.1h0l0-0.1h0l0-0.1h0l0-0.1h0l0-0.1h0l0-0.1h0l0-0.1h0l0-0.1h0l0-0.1h0l0-0.1h0l0-0.1h0l0-0.1h0l0-0.1h0l0-0.1h0
							l0-0.1c0,0,0,0,0,0l0-0.1h0l0-0.1h0l0-0.1h0l0-0.1h0l0-0.1h0l0-0.1c0,0,0,0,0,0l0-0.1h0l0-0.1h0l0-0.1h0l0-0.1h0l0-0.1h0
							l0-0.1c0,0,0,0,0,0l0-0.1h0l0-0.1h0l0-0.1h0l0-0.1h0l0-0.1h0l0-0.1c0,0,0,0,0,0l0-0.1l31.6-119.3
							c37.4-4.4,76.4-0.3,112.1,11.8l8.4,2.8L650,616.4z"/>
						<path id="XMLID_91_" class="st2" d="M650,616.4V745l-6.5-2.1l-13.5-4.4c-43.7-14.2-89.6-20.5-135.5-18.6h0l31.6-119.3
							c10-1.2,20-1.8,30-1.8c27.8,0,55.6,4.6,82,13.5l8.4,2.9L650,616.4z"/>
					</g>
				</g>
				<g id="XMLID_81_">
					<g id="XMLID_23_">
						<path id="XMLID_93_" class="st77" d="M805.4,720L805.4,720L805.4,720L805.4,720v0.1h0l0,0.1h0l0,0.1h0l0,0.1c0,0,0,0,0,0
							l0,0.1h0l0,0.1h0l0,0.1h0l0,0.1h0l0,0.1h0l0,0.1c0,0,0,0,0,0l0,0.1h0l0,0.1h0l0,0.1h0l0,0.1h0l0,0.1h0l0,0.1c0,0,0,0,0,0
							l0,0.1h0l0,0.1h0l0,0.1h0l0,0.1h0l0,0.1h0l0,0.1h0l0,0.1h0l0,0.1h0l0,0.1h0l0,0.1h0l0,0.1h0l0,0.1h0l0,0.1h0l0,0.1h0l0,0.1h0
							l0,0.1h0l0,0.1c0,0,0,0,0,0l0,0.1h0l0,0.1h0l0,0.1h0l0,0.1h0l0,0.1h0l0,0.1c0,0,0,0,0,0l0,0.1h0l0,0.1h0l0,0.1h0l0,0.1h0
							l0,0.1h0l0,0.1c0,0,0,0,0,0l0,0.1h0l0,0.1h0l0,0.1h0l0,0.1h0l0,0.1h0l0,0.1c0,0,0,0,0,0l0,0.1h0l0,0.1h0l0,0.1h0l0,0.1h0
							l0,0.1h0l0,0.1h0l0,0.1h0l0,0.1h0l0,0.1h0l0,0.1h0l0,0.1h0l0,0.1h0l0,0.1h0l0,0.1h0l0,0.1h0l0,0.1h0l0,0.1c0,0,0,0,0,0l0,0.1
							h0l0,0.1h0l0,0.1h0l0,0.1h0l0,0.1h0l0,0.1c0,0,0,0,0,0l0,0.1h0l0,0.1h0l0,0.1h0l0,0.1h0l0,0.1h0l0,0.1c0,0,0,0,0,0l0,0.1h0
							l0,0.1h0l0,0.1h0l0,0.1h0l0,0.1h0l0,0.1h0l0,0.1h0l0,0.1h0l0,0.1h0l0,0.1c0,0,0,0,0,0l0,0.1c0,0,0,0,0,0l0,0.1c0,0,0,0,0,0
							l0,0.1c0,0,0,0,0,0l0,0.1c0,0,0,0,0,0l0,0.1c0,0,0,0,0,0l0,0.1c0,0,0,0,0,0l0,0.1c0,0,0,0,0,0l0,0.1l-148.6,24v0l-6.9,1.1
							V616.4l3.6-1.2l8.2-2.8c26.3-8.9,54.5-13.5,82.5-13.5c9.9,0,19.8,0.6,29.6,1.7l31.6,119.3L805.4,720
							C805.4,720,805.4,720,805.4,720L805.4,720z"/>
						<path id="XMLID_90_" class="st2" d="M805.4,719.9L805.4,719.9c-45.9-1.9-91.8,4.4-135.5,18.6l-13.3,4.3L650,745V616.4l3.6-1.2
							l8.2-2.8c26.5-9,54.2-13.5,82-13.5c10,0,20,0.6,30,1.8L805.4,719.9z"/>
					</g>
				</g>
			</g>
			<polygon id="XMLID_89_" class="st78" points="656.7,742.8 650,745 643.5,742.9 646.6,615.3 646.6,615.2 650,616.4 653.6,615.1 
				653.6,615.2 			"/>
			<g id="XMLID_85_">
				<polygon id="XMLID_21_" class="st79" points="650,766 487.6,737.8 489.2,731.2 650,758.8 				"/>
				<polygon id="XMLID_20_" class="st79" points="650,766 812.4,737.8 810.8,731.2 650,758.8 				"/>
			</g>
		</g>
		<g id="XMLID_104_">
			<path id="XMLID_18_" class="st80" d="M662.5,626.5l-0.9-1.8c0.1-0.1,14.2-7.4,33.9-12.3c18.2-4.5,45.3-7.9,70.4,1.7l-0.7,1.9
				c-24.6-9.4-51.2-6.1-69.2-1.6C676.4,619.3,662.6,626.5,662.5,626.5z"/>
		</g>
		<g id="XMLID_16_">
			<path id="XMLID_17_" class="st80" d="M662.5,642.1l-0.9-1.8c0.1-0.1,14.2-7.4,33.9-12.3c18.2-4.5,45.3-7.9,70.4,1.7l-0.7,1.9
				c-24.6-9.4-51.2-6.1-69.2-1.6C676.4,634.8,662.6,642,662.5,642.1z"/>
		</g>
		<g id="XMLID_115_">
			<path id="XMLID_163_" class="st80" d="M732.2,639.1c-13.8-0.2-26.6,1.9-36.8,4.5c-19.7,4.9-33.8,12.2-33.9,12.3l0.9,1.8
				c0.1-0.1,14-7.2,33.5-12.1c10-2.5,22.8-4.6,36.3-4.4V639.1z"/>
		</g>
		<g id="XMLID_9_">
			<path id="XMLID_15_" class="st81" d="M750.8,623.2l-0.2,0.5l0,0l-11.4,12.1l-4.3,4.6c-0.4,0.4-0.9,0.7-1.5,0.8
				c-0.6,0.1-1.2,0.1-1.7-0.2c-1.1-0.5-1.8-1.6-1.7-2.8l0.4-6.4l1.2-16.5l0,0l0.2-0.5l16.3-11L750.8,623.2z"/>
			<polygon id="XMLID_14_" class="st82" points="789.5,535.5 750.6,623.7 750.5,623.7 744.7,628.5 744.3,620.7 743.5,621.4 
				738.3,625.6 737.9,617.9 737.9,617.9 731.9,622.8 731.5,615.3 731.5,615.3 770.4,527 			"/>
			<polygon id="XMLID_88_" class="st83" points="782.7,532.5 743.5,621.4 738.3,625.6 737.9,617.9 737.9,617.9 776.8,529.8 			"/>
			<path id="XMLID_95_" class="st84" d="M739.1,635.8l-4.3,4.6c-0.4,0.4-0.9,0.7-1.5,0.8c-0.6,0.1-1.2,0.1-1.7-0.2
				c-1.1-0.5-1.8-1.6-1.7-2.8l0.4-6.4c1.6,0,3.2,0.4,4.8,1.1C736.7,633.6,738,634.6,739.1,635.8z"/>
			<path id="XMLID_13_" class="st85" d="M787.9,539.1l-19.1-8.4l4.7-10.7c2.3-5.3,8.5-7.7,13.7-5.3l0,0c5.3,2.3,7.7,8.5,5.3,13.7
				L787.9,539.1z"/>
			
				<rect id="XMLID_12_" x="769.8" y="526" transform="matrix(0.9148 0.4039 -0.4039 0.9148 280.7605 -269.9071)" class="st86" width="20.8" height="9.3"/>
			<g id="XMLID_79_">
				<path id="XMLID_11_" class="st87" d="M789.3,531.9l-16.5-7.3c-0.3-0.1-0.4-0.4-0.3-0.7l0,0c0.1-0.3,0.4-0.4,0.7-0.3l16.5,7.3
					c0.3,0.1,0.4,0.4,0.3,0.7l0,0C789.9,531.9,789.6,532,789.3,531.9z"/>
				<path id="XMLID_86_" class="st87" d="M789.1,533.8l-17-7.5c-0.3-0.1-0.4-0.4-0.3-0.7l0,0c0.1-0.3,0.4-0.4,0.7-0.3l17,7.5
					c0.3,0.1,0.4,0.4,0.3,0.7l0,0C789.7,533.8,789.3,533.9,789.1,533.8z"/>
				<path id="XMLID_10_" class="st87" d="M788.3,535.5l-17-7.5c-0.3-0.1-0.4-0.4-0.3-0.7l0,0c0.1-0.3,0.4-0.4,0.7-0.3l17,7.5
					c0.3,0.1,0.4,0.4,0.3,0.7l0,0C788.9,535.5,788.6,535.6,788.3,535.5z"/>
				<path id="XMLID_92_" class="st87" d="M787.6,537.2l-17-7.5c-0.3-0.1-0.4-0.4-0.3-0.7l0,0c0.1-0.3,0.4-0.4,0.7-0.3l17,7.5
					c0.3,0.1,0.4,0.4,0.3,0.7l0,0C788.2,537.2,787.8,537.3,787.6,537.2z"/>
			</g>
		</g>
	</g>
	<polygon id="XMLID_8_" class="st88" points="229.4,123.9 238.2,134.6 252.1,133.4 244.6,145.2 250.1,158 236.6,154.5 226,163.7 
		225.2,149.7 213.2,142.5 226.2,137.4 	"/>
	<polygon id="XMLID_134_" class="st88" points="813.5,47.9 812,58.8 820.1,66.2 809.3,68.1 804.8,78.1 799.6,68.4 788.7,67.2 
		796.3,59.3 794.1,48.6 804,53.4 	"/>
	<polygon id="XMLID_101_" class="st88" points="903.6,112.9 905.6,121.3 913.6,124.4 906.2,128.8 905.8,137.4 899.3,131.8 891,134 
		894.3,126.1 889.6,118.9 898.2,119.6 	"/>
	<polygon id="XMLID_141_" class="st88" points="381.9,58.7 388,64.7 396.5,63.1 392.6,70.7 396.8,78.3 388.3,77 382.5,83.3 
		381,74.8 373.3,71.2 380.9,67.2 	"/>
	<polygon id="XMLID_102_" class="st88" points="759.7,352.9 760.9,357.8 765.6,359.6 761.3,362.2 761,367.2 757.2,363.9 
		752.4,365.2 754.3,360.6 751.6,356.4 756.6,356.8 	"/>
	<polygon id="XMLID_145_" class="st88" points="985.2,390.8 986.4,395.7 991.1,397.5 986.8,400.1 986.5,405.2 982.7,401.9 
		977.9,403.2 979.8,398.5 977.1,394.3 982.1,394.7 	"/>
	<polygon id="XMLID_127_" class="st88" points="506.3,81 509.9,84 514.5,82.7 512.8,87.1 515.4,91.1 510.7,90.8 507.7,94.5 
		506.5,89.9 502.1,88.3 506.1,85.7 	"/>
	<polygon id="XMLID_143_" class="st88" points="334.2,171.1 337.8,174.2 342.4,172.9 340.6,177.3 343.3,181.2 338.5,180.9 
		335.6,184.7 334.4,180.1 330,178.4 334,175.9 	"/>
	<polygon id="XMLID_103_" class="st88" points="590.8,331.3 594.7,333.9 599.1,332.2 597.8,336.8 600.8,340.4 596.1,340.6 
		593.5,344.6 591.9,340.1 587.3,339 591.1,336 	"/>
	<polygon id="XMLID_144_" class="st88" points="949.4,102.2 953.3,104.9 957.7,103.1 956.4,107.7 959.4,111.4 954.7,111.5 
		952.1,115.5 950.5,111.1 945.9,109.9 949.7,106.9 	"/>
	<polygon id="XMLID_142_" class="st88" points="353.8,360.2 358,363 362.7,361.1 361.3,366 364.5,369.8 359.5,370 356.8,374.2 
		355,369.5 350.2,368.3 354.1,365.2 	"/>
	<path id="XMLID_153_" class="st89" d="M1115.5,422.3c-1.3-10.1-1.1-41.7-19.3-35.7c-6.9,2.3-9.7,10.7-10.4,17.2
		c-0.8,8.1,1,16.2-0.1,24.2c-0.8,6,8.7,6,9.5,0c0.5-4,0.1-8.3-0.2-12.6c3.4-0.1,6.7-0.8,9.9-1.9c0.4,2.9,0.8,5.9,1.1,8.8
		C1106.8,428.2,1116.2,428.3,1115.5,422.3z M1096.7,398.7c3.6-7.5,6.1,0.6,6.9,5.1c-2.8,1.3-5.7,2-8.7,2.1
		C1095.1,403.4,1095.6,400.9,1096.7,398.7z"/>
	<path id="XMLID_156_" class="st89" d="M595.4,197c1.7-9.4-6.9-19.3-17.8-15.3c-3.2,1.2-3.8,4.6-2.7,7c-0.8,1-1.2,2.3-0.8,3.9
		c1.2,4.8,2.4,9.6,3.6,14.4c1,4,1.8,8.4,4,12c3.6,5.8,11.4,8.7,17.1,4.2C608.3,215.6,604.9,201,595.4,197z M585,197.4
		c-0.6-2.2-1.1-4.5-1.7-6.7C586.1,191.4,587.6,194.5,585,197.4z M595,211c-0.3,3.6-2.9,6.9-5.5,2.5c-1.4-2.3-2-5.4-2.6-8.2
		c0.8,0.2,1.6,0.3,2.5,0.1C592.9,204.7,595.2,207.9,595,211z"/>
	<path id="XMLID_148_" class="st89" d="M864.9,59.6c-1.9,2.9-7.2,2.5-9.2-0.1c-2.9-3.7,0-9.1,3.5-11c5.3-2.9,0.6-11.1-4.8-8.2
		c-8.8,4.8-12.6,17.6-5.7,25.6c6.5,7.5,18.8,6.6,24.3-1.5C876.5,59.3,868.3,54.6,864.9,59.6z"/>
	<path id="XMLID_160_" class="st90" d="M141.4,655.4c-6.4-5.6-17.1-9.5-25.3-6.4c-8.2,3.1-12.2,11.6-15.4,19.1
		c-1.4,3.2,1.1,5.4,3.9,5.6c6.7,7.3,12.8,15.1,18.2,23.5c1.1,1.7,3.3,2.8,5.3,2.2C144,694.4,155.4,667.6,141.4,655.4z M128.6,688.8
		c-5.2-7.6-11-14.9-17.2-21.7c1.6-3.4,3.6-6.8,6.7-8.6c4.9-2.9,12.5,0.3,16.6,3.6C142.4,668.3,136.5,683.5,128.6,688.8z"/>
	<path id="XMLID_146_" class="st89" d="M436.9,306.8c-2.4-8.1-9.3-17.2-17.9-19c-8.6-1.8-16.5,3.2-23.2,7.9c-2.9,2-2,5.2,0.3,6.8
		c1.7,9.8,2.6,19.6,2.8,29.6c0,2,1.3,4.1,3.3,4.7C418.2,341.1,442.2,324.7,436.9,306.8z M408.2,328.1c-0.3-9.2-1.3-18.4-2.9-27.5
		c3.2-2,6.7-3.8,10.3-3.7c5.7,0.2,10.4,7,12.1,12C430.9,318.3,417.7,327.9,408.2,328.1z"/>
	<path id="XMLID_150_" class="st89" d="M452.8,114.4c-0.8,3.2-3.5,4.5-6.6,4.5c-1.1,0-2.6-0.1-4.1-0.5c1.8-3.1,4.1-5.8,7.1-7.8
		c2.1-1.4,3.1-4.1,1.7-6.5c-1.2-2.1-4.4-3.2-6.5-1.7c-3.3,2.3-6.2,5-8.5,8.2c0-1.6,0.2-3.1,0.3-4.1c0.3-3,1.1-6.6,4.3-7.7
		c5.7-2,3.3-11.1-2.5-9.1c-6.3,2.2-9.9,7.4-10.9,13.8c-1,5.9-1.4,14.5,3.2,19.1c8.7,8.7,28.4,7.8,31.6-5.7
		C463.3,111,454.2,108.5,452.8,114.4z"/>
</g>
</svg>
