<svg xmlns="http://www.w3.org/2000/svg" viewBox="0 0 540.86 540.86"><defs><style>.cls-1{fill:#fac51d;stroke:#fff;stroke-miterlimit:10;stroke-width:4px;}</style></defs><title>Recurso 2</title><g id="Capa_2" data-name="Capa 2"><g id="Layer_1" data-name="Layer 1"><path class="cls-1" d="M466.89,265.89c13.05,0,30.9-5.86,47.41-14.25,11.25-5.71,24.56,2.65,24.56,15.27V418H388.91a17,17,0,0,0-15.13,24.54c8.05,16.51,13.47,34.37,13.47,47.42,0,31.8-25.14,48.94-56.14,48.94S275,521.72,275,489.92c0-13.05,5.86-30.9,14.25-47.41C294.93,431.26,286.56,418,274,418h-151v-151c0-12.62-13.31-21-24.55-15.27C81.83,260,64,265.89,50.94,265.89,19.14,265.89,2,240.75,2,209.75s17.14-56.14,48.94-56.14c13.05,0,30.9,5.42,47.42,13.47A17,17,0,0,0,122.9,152V2H274c12.61,0,21,13.31,15.27,24.55C280.83,43.07,275,60.92,275,74c0,31.8,25.13,48.94,56.14,48.94S387.25,105.76,387.25,74c0-13-5.42-30.9-13.47-47.42A17,17,0,0,1,388.91,2h150V151.94a17,17,0,0,1-24.54,15.14C497.8,159,480,153.61,466.89,153.61c-31.79,0-48.93,25.14-48.93,56.14S435.1,265.89,466.89,265.89Z"/></g></g></svg>