<svg xmlns="http://www.w3.org/2000/svg" viewBox="0 0 540.86 540.86"><defs><style>.cls-1{fill:#0277bd;stroke:#fff;stroke-miterlimit:10;stroke-width:4px;}</style></defs><title>Recurso 4</title><g id="Capa_2" data-name="Capa 2"><g id="Layer_1" data-name="Layer 1"><path class="cls-1" d="M74,265.89c-13,0-30.89-5.86-47.41-14.25C15.31,245.93,2,254.29,2,266.91V418H152a17,17,0,0,1,15.13,24.54C159,459,153.61,476.87,153.61,489.92c0,31.8,25.14,48.94,56.14,48.94s56.14-17.14,56.14-48.94c0-13.05-5.86-30.9-14.25-47.41C245.93,431.26,254.29,418,266.9,418H418v-151c0-12.62,13.3-21,24.55-15.27,16.51,8.39,34.36,14.25,47.41,14.25,31.8,0,48.94-25.14,48.94-56.14s-17.14-56.14-48.94-56.14c-13.05,0-30.91,5.42-47.42,13.47A17,17,0,0,1,418,152V2H266.9c-12.61,0-21,13.31-15.26,24.55C260,43.07,265.89,60.92,265.89,74c0,31.8-25.14,48.94-56.14,48.94S153.61,105.76,153.61,74c0-13,5.42-30.9,13.47-47.42A17,17,0,0,0,152,2H2V151.94a17,17,0,0,0,24.54,15.14C43.06,159,60.91,153.61,74,153.61c31.8,0,48.94,25.14,48.94,56.14S105.76,265.89,74,265.89Z"/></g></g></svg>