<svg xmlns="http://www.w3.org/2000/svg" viewBox="0 0 540.86 540.86"><defs><style>.cls-1{fill:#e14a39;stroke:#fff;stroke-miterlimit:10;stroke-width:4px;}</style></defs><title>Recurso 1</title><g id="Capa_2" data-name="Capa 2"><g id="Layer_1" data-name="Layer 1"><path class="cls-1" d="M74,275c-13,0-30.89,5.86-47.41,14.25C15.31,294.93,2,286.56,2,274v-151H152a17,17,0,0,0,15.13-24.54C159,81.84,153.61,64,153.61,50.94,153.61,19.14,178.75,2,209.75,2s56.14,17.14,56.14,48.94c0,13.05-5.86,30.89-14.25,47.41-5.71,11.24,2.65,24.55,15.26,24.55H418V274c0,12.61,13.3,21,24.55,15.27C459,280.83,476.87,275,489.92,275c31.8,0,48.94,25.13,48.94,56.14s-17.14,56.14-48.94,56.14c-13.05,0-30.91-5.42-47.42-13.47A17,17,0,0,0,418,388.91v150H266.9c-12.61,0-21-13.31-15.26-24.56,8.39-16.51,14.25-34.36,14.25-47.41,0-31.79-25.14-48.93-56.14-48.93s-56.14,17.14-56.14,48.93c0,13.06,5.42,30.91,13.47,47.43A17,17,0,0,1,152,538.86H2V388.91a17,17,0,0,1,24.54-15.13c16.52,8.05,34.37,13.47,47.42,13.47,31.8,0,48.94-25.14,48.94-56.14S105.76,275,74,275Z"/></g></g></svg>