<svg xmlns="http://www.w3.org/2000/svg" viewBox="0 0 540.86 540.86"><defs><style>.cls-1{fill:#1bbc9b;stroke:#fff;stroke-miterlimit:10;stroke-width:4px;}</style></defs><title>Recurso 3</title><g id="Capa_2" data-name="Capa 2"><g id="Layer_1" data-name="Layer 1"><path class="cls-1" d="M466.89,275c13.05,0,30.9,5.86,47.41,14.25,11.25,5.71,24.56-2.66,24.56-15.27v-151H388.91a17,17,0,0,1-15.13-24.54c8.05-16.52,13.47-34.37,13.47-47.42C387.25,19.14,362.11,2,331.11,2S275,19.14,275,50.94c0,13.05,5.86,30.89,14.25,47.41,5.71,11.24-2.66,24.55-15.27,24.55h-151V274c0,12.61-13.31,21-24.55,15.27C81.83,280.83,64,275,50.94,275,19.14,275,2,300.1,2,331.11s17.14,56.14,48.94,56.14c13.05,0,30.9-5.42,47.42-13.47a17,17,0,0,1,24.54,15.13v150H274c12.61,0,21-13.31,15.27-24.56C280.83,497.79,275,479.94,275,466.89,275,435.1,300.1,418,331.11,418s56.14,17.14,56.14,48.93c0,13.06-5.42,30.91-13.47,47.43a17,17,0,0,0,15.13,24.54h150V388.91a17,17,0,0,0-24.54-15.13c-16.52,8.05-34.37,13.47-47.43,13.47-31.79,0-48.93-25.14-48.93-56.14S435.1,275,466.89,275Z"/></g></g></svg>