<?xml version="1.0" encoding="utf-8"?>
<!-- Generator: Adobe Illustrator 24.0.0, SVG Export Plug-In . SVG Version: 6.00 Build 0)  -->
<svg version="1.1" id="Capa_1" xmlns="http://www.w3.org/2000/svg" xmlns:xlink="http://www.w3.org/1999/xlink" x="0px" y="0px"
	 viewBox="0 0 1094 811.4" style="enable-background:new 0 0 1094 811.4;" xml:space="preserve">
<style type="text/css">
	.st0{opacity:0.3;}
	.st1{fill:#F2F2F2;}
	.st2{opacity:0.1;fill:#6C63FF;enable-background:new    ;}
	.st3{opacity:0.1;}
	.st4{fill:#3F3D56;}
	.st5{opacity:0.1;enable-background:new    ;}
	.st6{fill:#6C63FF;}
	.st7{fill:#192534;}
	.st8{opacity:0.1;fill:#FFFFFF;enable-background:new    ;}
	.st9{fill:#FBBEBE;}
	.st10{fill:none;stroke:#000000;stroke-miterlimit:10;}
</style>
<g id="a7bd4c2a-60cb-483d-8f1a-f087731eba23">
	<title>toy car</title>
	<g class="st0">
		<path class="st1" d="M639.1,450.6H755c4.1,0,7.4,3.3,7.4,7.4v24.7c0,4.1-3.3,7.4-7.4,7.4H639.1c-4.1,0-7.4-3.3-7.4-7.4V458
			C631.6,453.9,635,450.6,639.1,450.6z"/>
		<path class="st1" d="M775.9,490.1h115.9c4.1,0,7.4,3.3,7.4,7.4v24.7c0,4.1-3.3,7.4-7.4,7.4H775.9c-4.1,0-7.4-3.3-7.4-7.4v-24.7
			C768.5,493.5,771.8,490.1,775.9,490.1z"/>
		<path class="st1" d="M912.7,529.7h115.9c4.1,0,7.4,3.3,7.4,7.4v24.7c0,4.1-3.3,7.4-7.4,7.4H912.7c-4.1,0-7.4-3.3-7.4-7.4v-24.7
			C905.3,533,908.6,529.7,912.7,529.7z"/>
		<path class="st1" d="M639.1,391.3H755c4.1,0,7.4,3.3,7.4,7.4v24.7c0,4.1-3.3,7.4-7.4,7.4H639.1c-4.1,0-7.4-3.3-7.4-7.4v-24.7
			C631.6,394.7,635,391.3,639.1,391.3z"/>
		<path class="st1" d="M775.9,430.9h115.9c4.1,0,7.4,3.3,7.4,7.4V463c0,4.1-3.3,7.4-7.4,7.4H775.9c-4.1,0-7.4-3.3-7.4-7.4v-24.7
			C768.5,434.2,771.8,430.9,775.9,430.9z"/>
		<path class="st1" d="M912.7,470.4h115.9c4.1,0,7.4,3.3,7.4,7.4v24.7c0,4.1-3.3,7.4-7.4,7.4H912.7c-4.1,0-7.4-3.3-7.4-7.4v-24.7
			C905.3,473.7,908.6,470.4,912.7,470.4z"/>
		<path class="st1" d="M639.1,312.3H755c4.1,0,7.4,3.3,7.4,7.4v24.7c0,4.1-3.3,7.4-7.4,7.4H639.1c-4.1,0-7.4-3.3-7.4-7.4v-24.7
			C631.6,315.6,635,312.3,639.1,312.3z"/>
		<path class="st1" d="M775.9,351.8h115.9c4.1,0,7.4,3.3,7.4,7.4v24.7c0,4.1-3.3,7.4-7.4,7.4H775.9c-4.1,0-7.4-3.3-7.4-7.4v-24.7
			C768.5,355.1,771.8,351.8,775.9,351.8z"/>
		<path class="st1" d="M912.7,391.3h115.9c4.1,0,7.4,3.3,7.4,7.4v24.7c0,4.1-3.3,7.4-7.4,7.4H912.7c-4.1,0-7.4-3.3-7.4-7.4v-24.7
			C905.3,394.7,908.6,391.3,912.7,391.3z"/>
		<path class="st1" d="M639.1,253H755c4.1,0,7.4,3.3,7.4,7.4v24.7c0,4.1-3.3,7.4-7.4,7.4H639.1c-4.1,0-7.4-3.3-7.4-7.4v-24.7
			C631.6,256.3,635,253,639.1,253z"/>
		<path class="st1" d="M775.9,292.5h115.9c4.1,0,7.4,3.3,7.4,7.4v24.7c0,4.1-3.3,7.4-7.4,7.4H775.9c-4.1,0-7.4-3.3-7.4-7.4v-24.7
			C768.5,295.8,771.8,292.5,775.9,292.5z"/>
		<path class="st1" d="M912.7,332h115.9c4.1,0,7.4,3.3,7.4,7.4v24.7c0,4.1-3.3,7.4-7.4,7.4H912.7c-4.1,0-7.4-3.3-7.4-7.4v-24.7
			C905.3,335.4,908.6,332,912.7,332z"/>
		<path class="st2" d="M639.1,450.6H755c4.1,0,7.4,3.3,7.4,7.4v24.7c0,4.1-3.3,7.4-7.4,7.4H639.1c-4.1,0-7.4-3.3-7.4-7.4V458
			C631.6,453.9,635,450.6,639.1,450.6z"/>
		<path class="st2" d="M775.9,490.1h115.9c4.1,0,7.4,3.3,7.4,7.4v24.7c0,4.1-3.3,7.4-7.4,7.4H775.9c-4.1,0-7.4-3.3-7.4-7.4v-24.7
			C768.5,493.5,771.8,490.1,775.9,490.1z"/>
		<path class="st2" d="M912.7,529.7h115.9c4.1,0,7.4,3.3,7.4,7.4v24.7c0,4.1-3.3,7.4-7.4,7.4H912.7c-4.1,0-7.4-3.3-7.4-7.4v-24.7
			C905.3,533,908.6,529.7,912.7,529.7z"/>
		<path class="st2" d="M639.1,391.3H755c4.1,0,7.4,3.3,7.4,7.4v24.7c0,4.1-3.3,7.4-7.4,7.4H639.1c-4.1,0-7.4-3.3-7.4-7.4v-24.7
			C631.6,394.7,635,391.3,639.1,391.3z"/>
		<path class="st2" d="M775.9,430.9h115.9c4.1,0,7.4,3.3,7.4,7.4V463c0,4.1-3.3,7.4-7.4,7.4H775.9c-4.1,0-7.4-3.3-7.4-7.4v-24.7
			C768.5,434.2,771.8,430.9,775.9,430.9z"/>
		<path class="st2" d="M912.7,470.4h115.9c4.1,0,7.4,3.3,7.4,7.4v24.7c0,4.1-3.3,7.4-7.4,7.4H912.7c-4.1,0-7.4-3.3-7.4-7.4v-24.7
			C905.3,473.7,908.6,470.4,912.7,470.4z"/>
		<path class="st2" d="M639.1,312.3H755c4.1,0,7.4,3.3,7.4,7.4v24.7c0,4.1-3.3,7.4-7.4,7.4H639.1c-4.1,0-7.4-3.3-7.4-7.4v-24.7
			C631.6,315.6,635,312.3,639.1,312.3z"/>
		<path class="st2" d="M775.9,351.8h115.9c4.1,0,7.4,3.3,7.4,7.4v24.7c0,4.1-3.3,7.4-7.4,7.4H775.9c-4.1,0-7.4-3.3-7.4-7.4v-24.7
			C768.5,355.1,771.8,351.8,775.9,351.8z"/>
		<path class="st2" d="M912.7,391.3h115.9c4.1,0,7.4,3.3,7.4,7.4v24.7c0,4.1-3.3,7.4-7.4,7.4H912.7c-4.1,0-7.4-3.3-7.4-7.4v-24.7
			C905.3,394.7,908.6,391.3,912.7,391.3z"/>
		<path class="st2" d="M639.1,253H755c4.1,0,7.4,3.3,7.4,7.4v24.7c0,4.1-3.3,7.4-7.4,7.4H639.1c-4.1,0-7.4-3.3-7.4-7.4v-24.7
			C631.6,256.3,635,253,639.1,253z"/>
		<path class="st2" d="M775.9,292.5h115.9c4.1,0,7.4,3.3,7.4,7.4v24.7c0,4.1-3.3,7.4-7.4,7.4H775.9c-4.1,0-7.4-3.3-7.4-7.4v-24.7
			C768.5,295.8,771.8,292.5,775.9,292.5z"/>
		<path class="st2" d="M912.7,332h115.9c4.1,0,7.4,3.3,7.4,7.4v24.7c0,4.1-3.3,7.4-7.4,7.4H912.7c-4.1,0-7.4-3.3-7.4-7.4v-24.7
			C905.3,335.4,908.6,332,912.7,332z"/>
	</g>
	<g class="st0">
		<path class="st1" d="M127.1,197.6H243c4.1,0,7.4,3.3,7.4,7.4v24.7c0,4.1-3.3,7.4-7.4,7.4H127.1c-4.1,0-7.4-3.3-7.4-7.4V205
			C119.6,200.9,123,197.6,127.1,197.6z"/>
		<path class="st1" d="M263.9,237.1h115.9c4.1,0,7.4,3.3,7.4,7.4v24.7c0,4.1-3.3,7.4-7.4,7.4H263.9c-4.1,0-7.4-3.3-7.4-7.4v-24.7
			C256.5,240.5,259.8,237.1,263.9,237.1z"/>
		<path class="st1" d="M400.7,276.7h115.9c4.1,0,7.4,3.3,7.4,7.4v24.7c0,4.1-3.3,7.4-7.4,7.4H400.7c-4.1,0-7.4-3.3-7.4-7.4v-24.7
			C393.3,280,396.6,276.7,400.7,276.7z"/>
		<path class="st1" d="M127.1,138.3H243c4.1,0,7.4,3.3,7.4,7.4v24.7c0,4.1-3.3,7.4-7.4,7.4H127.1c-4.1,0-7.4-3.3-7.4-7.4v-24.7
			C119.6,141.7,123,138.3,127.1,138.3z"/>
		<path class="st1" d="M263.9,177.9h115.9c4.1,0,7.4,3.3,7.4,7.4V210c0,4.1-3.3,7.4-7.4,7.4H263.9c-4.1,0-7.4-3.3-7.4-7.4v-24.7
			C256.5,181.2,259.8,177.9,263.9,177.9z"/>
		<path class="st1" d="M400.7,217.4h115.9c4.1,0,7.4,3.3,7.4,7.4v24.7c0,4.1-3.3,7.4-7.4,7.4H400.7c-4.1,0-7.4-3.3-7.4-7.4v-24.7
			C393.3,220.7,396.6,217.4,400.7,217.4z"/>
		<path class="st1" d="M127.1,59.3H243c4.1,0,7.4,3.3,7.4,7.4v24.7c0,4.1-3.3,7.4-7.4,7.4H127.1c-4.1,0-7.4-3.3-7.4-7.4V66.7
			C119.6,62.6,123,59.3,127.1,59.3z"/>
		<path class="st1" d="M263.9,98.8h115.9c4.1,0,7.4,3.3,7.4,7.4v24.7c0,4.1-3.3,7.4-7.4,7.4H263.9c-4.1,0-7.4-3.3-7.4-7.4v-24.7
			C256.5,102.1,259.8,98.8,263.9,98.8z"/>
		<path class="st1" d="M400.7,138.3h115.9c4.1,0,7.4,3.3,7.4,7.4v24.7c0,4.1-3.3,7.4-7.4,7.4H400.7c-4.1,0-7.4-3.3-7.4-7.4v-24.7
			C393.3,141.7,396.6,138.3,400.7,138.3z"/>
		<path class="st1" d="M127.1,0H243c4.1,0,7.4,3.3,7.4,7.4v24.7c0,4.1-3.3,7.4-7.4,7.4H127.1c-4.1,0-7.4-3.3-7.4-7.4V7.4
			C119.6,3.3,123,0,127.1,0z"/>
		<path class="st1" d="M263.9,39.5h115.9c4.1,0,7.4,3.3,7.4,7.4v24.7c0,4.1-3.3,7.4-7.4,7.4H263.9c-4.1,0-7.4-3.3-7.4-7.4V47
			C256.5,42.8,259.8,39.5,263.9,39.5z"/>
		<path class="st1" d="M400.7,79.1h115.9c4.1,0,7.4,3.3,7.4,7.4v24.7c0,4.1-3.3,7.4-7.4,7.4H400.7c-4.1,0-7.4-3.3-7.4-7.4V86.5
			C393.3,82.4,396.6,79.1,400.7,79.1z"/>
		<path class="st2" d="M127.1,197.6H243c4.1,0,7.4,3.3,7.4,7.4v24.7c0,4.1-3.3,7.4-7.4,7.4H127.1c-4.1,0-7.4-3.3-7.4-7.4V205
			C119.6,200.9,123,197.6,127.1,197.6z"/>
		<path class="st2" d="M263.9,237.1h115.9c4.1,0,7.4,3.3,7.4,7.4v24.7c0,4.1-3.3,7.4-7.4,7.4H263.9c-4.1,0-7.4-3.3-7.4-7.4v-24.7
			C256.5,240.5,259.8,237.1,263.9,237.1z"/>
		<path class="st2" d="M400.7,276.7h115.9c4.1,0,7.4,3.3,7.4,7.4v24.7c0,4.1-3.3,7.4-7.4,7.4H400.7c-4.1,0-7.4-3.3-7.4-7.4v-24.7
			C393.3,280,396.6,276.7,400.7,276.7z"/>
		<path class="st2" d="M127.1,138.3H243c4.1,0,7.4,3.3,7.4,7.4v24.7c0,4.1-3.3,7.4-7.4,7.4H127.1c-4.1,0-7.4-3.3-7.4-7.4v-24.7
			C119.6,141.7,123,138.3,127.1,138.3z"/>
		<path class="st2" d="M263.9,177.9h115.9c4.1,0,7.4,3.3,7.4,7.4V210c0,4.1-3.3,7.4-7.4,7.4H263.9c-4.1,0-7.4-3.3-7.4-7.4v-24.7
			C256.5,181.2,259.8,177.9,263.9,177.9z"/>
		<path class="st2" d="M400.7,217.4h115.9c4.1,0,7.4,3.3,7.4,7.4v24.7c0,4.1-3.3,7.4-7.4,7.4H400.7c-4.1,0-7.4-3.3-7.4-7.4v-24.7
			C393.3,220.7,396.6,217.4,400.7,217.4z"/>
		<path class="st2" d="M127.1,59.3H243c4.1,0,7.4,3.3,7.4,7.4v24.7c0,4.1-3.3,7.4-7.4,7.4H127.1c-4.1,0-7.4-3.3-7.4-7.4V66.7
			C119.6,62.6,123,59.3,127.1,59.3z"/>
		<path class="st2" d="M263.9,98.8h115.9c4.1,0,7.4,3.3,7.4,7.4v24.7c0,4.1-3.3,7.4-7.4,7.4H263.9c-4.1,0-7.4-3.3-7.4-7.4v-24.7
			C256.5,102.1,259.8,98.8,263.9,98.8z"/>
		<path class="st2" d="M400.7,138.3h115.9c4.1,0,7.4,3.3,7.4,7.4v24.7c0,4.1-3.3,7.4-7.4,7.4H400.7c-4.1,0-7.4-3.3-7.4-7.4v-24.7
			C393.3,141.7,396.6,138.3,400.7,138.3z"/>
		<path class="st2" d="M127.1,0H243c4.1,0,7.4,3.3,7.4,7.4v24.7c0,4.1-3.3,7.4-7.4,7.4H127.1c-4.1,0-7.4-3.3-7.4-7.4V7.4
			C119.6,3.3,123,0,127.1,0z"/>
		<path class="st2" d="M263.9,39.5h115.9c4.1,0,7.4,3.3,7.4,7.4v24.7c0,4.1-3.3,7.4-7.4,7.4H263.9c-4.1,0-7.4-3.3-7.4-7.4V47
			C256.5,42.8,259.8,39.5,263.9,39.5z"/>
		<path class="st2" d="M400.7,79.1h115.9c4.1,0,7.4,3.3,7.4,7.4v24.7c0,4.1-3.3,7.4-7.4,7.4H400.7c-4.1,0-7.4-3.3-7.4-7.4V86.5
			C393.3,82.4,396.6,79.1,400.7,79.1z"/>
	</g>
	<g class="st3">
		<path class="st4" d="M295.6,552.2c0,5.7-0.6,11.3-1.7,16.9c-0.2,1-0.5,2.1-0.7,3.1c-6.2,24.8-23.6,42.9-44.4,44
			c-0.7,0-1.4,0.1-2.1,0.1c-22,0-40.6-19-46.7-45.1c-0.2-0.7-0.3-1.4-0.5-2.1c-1.2-5.5-1.8-11.2-1.7-16.9c0-35.4,21.9-64,48.9-64
			S295.6,516.8,295.6,552.2z"/>
		<path class="st5" d="M295.6,552.2c0,5.7-0.6,11.3-1.7,16.9c-0.2,1-0.5,2.1-0.7,3.1c-0.7,0-1.5,0-2.2-0.1c-5.4-0.3-10.7-1-16-2.2
			c-4.7,1.4-9.4,2.5-14.3,3.3c-3.7,0.5-7.4,0.9-11.2,1c-1.3,0-2.5,0.1-3.8,0.1c-4.5,0-9-0.3-13.4-0.9c-7.2-1-14.2-2.7-21-5.2
			c-3.7,1.2-7.5,2.2-11.4,3c-0.2-0.7-0.3-1.4-0.5-2.1c-1.2-5.5-1.8-11.2-1.7-16.9c0-35.4,21.9-64,48.9-64S295.6,516.8,295.6,552.2z"
			/>
		<path class="st6" d="M400,432.9c0-15.6-3.6-30.9-10.6-44.8L331.8,406l50.5-29.7c-17.2-24.8-44.6-40.5-74.7-42.6
			c-2.4-3.6-4.9-7-7.8-10.3l-82.7,25.7l67.8-39.9c-43.6-33.4-106-25.1-139.5,18.5c-7.9,10.3-13.7,22-17.1,34.5l70.8,81.5l-76.9-55.5
			C77.5,420,66.9,482.1,98.7,526.9c25.3,35.7,71,50.7,112.6,36.8c20.5,7.5,42.9,8.1,63.7,1.8c53.7,11.9,106.8-22,118.7-75.7
			c1.6-7,2.3-14.2,2.3-21.4c0-2.2-0.1-4.4-0.2-6.6C398.6,452.4,400,442.7,400,432.9z"/>
		<path class="st5" d="M398.3,451.3c-30.4-5.8-61.6-6.2-92.1-1.2c-34.5,5.7-69.9,18.3-103.7,9.1c-19.8-5.4-37-17.9-56.3-24.8
			c-18.7-6.5-38.8-7.8-58.2-3.5c-21.2,50.7,2.7,109,53.4,130.2c22.2,9.3,47.1,10.2,69.9,2.6c20.5,7.5,42.8,8.1,63.7,1.8
			c53.7,11.9,106.8-22,118.7-75.7c1.6-7,2.3-14.2,2.3-21.4c0-2.2-0.1-4.4-0.2-6.6C396.8,458.4,397.6,454.9,398.3,451.3z"/>
	</g>
	<ellipse class="st2" cx="547" cy="699.6" rx="547" ry="99.5"/>
	<path class="st7" d="M726.7,711.1c2.5-10.2,12.8-16.4,23-13.9c2.3,0.6,4.5,1.6,6.4,2.9l0.8,0.6c16.7,12.5,6.8,35.5,0,36.1
		s-19.9,1.1-19.9,1.1S721.6,731.4,726.7,711.1z"/>
	<path class="st6" d="M877.6,695.4v4.2c0,0-68,4.7-75.3,4.7h-13.6c0,0-0.2,0.2-0.5,0.6c-0.6,0.6-1.5,1.7-2.6,3.1
		c-2.1,2.8-4.7,6.7-5.3,9.9c-1,5.8-4.7,7.8-4.7,7.8L762,722l-13-15.6l-1.9-1.8l-5.4-5.2L737,695l0.2-2.5v-0.4
		c1.1-5.4,2.5-10.7,4.3-15.9c0-0.1,0.1-0.3,0.1-0.4c3.8-11.3,10.1-25.1,19.1-29.2c0.7-0.3,1.4-0.6,2.2-0.9l0.9-0.3
		c17.4-5.8,50.2-3.5,50.2-3.5s25.1,7.3,27.2,10.5s25.9,29,25.9,29c2.1,1.6,4,3.4,5.7,5.3C875.1,689.1,877.2,692.2,877.6,695.4z"/>
	<ellipse class="st8" cx="734.9" cy="718.4" rx="7.3" ry="11.5"/>
	<path class="st5" d="M765.3,650.5c0,0-6,9.2-12.3,21v0.1c-1.7,3.1-3.4,6.5-5,9.8l-0.1,0.2c0,0-3.5-2.8-6.2-5.4
		c0-0.1,0.1-0.3,0.1-0.4c3.8-11.3,10.1-25.1,19.1-29.2c0.7-0.3,1.4-0.6,2.2-0.9L765.3,650.5z"/>
	<path class="st8" d="M747.5,681.3c0,0,37.1,11,44.4,6.3c0,0,2.6-33.5-14.6-35.5c0,0-9.9-2.6-12-1S747.5,681.3,747.5,681.3z"/>
	<path class="st8" d="M795.6,656.8c0,0,7.3,27.7,12.5,28.2s58-0.5,55.9-4.2s-25.1-27.2-25.1-27.2L795.6,656.8z"/>
	<path class="st7" d="M786.6,706.9c0,0,9.5-12.5,26.2,0.1s6.8,35.5,0,36.1s-19.8,1-19.8,1S772.4,735.6,786.6,706.9z"/>
	<path class="st7" d="M885.3,710.1c-2.8-7.9-11.4-12-19.3-9.2c-0.4,0.1-0.8,0.3-1.2,0.5c-1.9,0.9-3.6,2-5.3,3.2
		c-14.9,11.2-6,31.6,0,32.1c2.2,0.2,5.1,0.3,7.9,0.5c10.3,0.5,19-7.3,19.6-17.6c0.1-1.7-0.1-3.5-0.4-5.1
		C886.2,712.9,885.8,711.5,885.3,710.1z"/>
	<ellipse class="st8" cx="790.9" cy="724.7" rx="7.3" ry="11.5"/>
	<path class="st8" d="M811.2,702.8c0,0-1-15.2,15.2-8.9s5.8,13.1,5.8,13.1L811.2,702.8z"/>
	<path class="st8" d="M877.6,695.4v2.1l-2.6,1l-5.3-1c0,0-1.1-8.6,3.2-11C875.1,689.1,877.2,692.2,877.6,695.4z"/>
	<path class="st5" d="M877.6,695.5v4.1c0,0-68,4.7-75.3,4.7h-0.1c-3.8-2-7.5-2.9-10.7-1.6c-1,0.4-1.9,0.9-2.7,1.6
		c-0.2,0.2-0.5,0.4-0.7,0.6c-1,0.9-1.9,2-2.6,3.1c-4.7,7.6-3.7,19.3-3.7,19.3c-13.6,4.2-27.7-6.8-27.7-6.8c-2.6-7.7-5-12.7-7.1-16
		c-2-3-3.8-4.5-5.4-5.2l-4.7-4.4l0.2-2.5L775,720c0,0,3.7-23.5,12-22s25.1,1.6,25.1,1.6L877.6,695.5z"/>
	<path class="st6" d="M734.9,692.3c0,0-3.1,7.8,0,8.4s10.2-6,19.3,21.4c0,0,14.1,11,27.7,6.8c0,0-1.6-19.9,9.7-24.6
		s30.1,18.8,30.1,18.8v5.2l44.4-4.7c0,0,13.6-10.5,13.1-26.7l-66.9,4.2c0,0-16.7,0-25.1-1.6s-12,22-12,22L734.9,692.3z"/>
	<path class="st7" d="M546.8,549.3L546.8,549.3c15.5,0,28,12.5,28,28l0,0c0,15.4-12.5,28-28,28l0,0c-15.4,0-28-12.5-28-28l0,0
		C518.8,561.9,531.3,549.3,546.8,549.3z"/>
	<path class="st4" d="M532.1,649.3c3.8-3.3,7.6-6.6,10.3-10.8c2.5-3.8,3.9-8.2,5.3-12.6c3.9-12.5,7.3-25.1,10.1-37.8
		c-15.4-2.3-26.9-15.9-41.9-19.9c-0.4-0.1-11.9,69.1-12.7,75.4c-0.7,5.2-6.7,30.2,0.1,30.3c3.6,0.1,11.2-9,13.9-11.4L532.1,649.3z"
		/>
	<path class="st5" d="M532.1,649.3c3.8-3.3,7.6-6.6,10.3-10.8c2.5-3.8,3.9-8.2,5.3-12.6c3.9-12.5,7.3-25.1,10.1-37.8
		c-15.4-2.3-26.9-15.9-41.9-19.9c-0.4-0.1-11.9,69.1-12.7,75.4c-0.7,5.2-6.7,30.2,0.1,30.3c3.6,0.1,11.2-9,13.9-11.4L532.1,649.3z"
		/>
	<path class="st4" d="M341.9,474.8c-1.7,0.3-3.5,0.4-4.9,1.4c-2,1.4-2.5,4-3.5,6.3c-1.2,2.9-3.4,5.3-6,7c-2.3,1.4-5.1,2.3-6.5,4.6
		c-0.8,1.5-1.1,3.3-1.1,5c-0.2,5.1,0.1,10.3,0.7,15.3c0.3,2.5,0.7,5.2,0.2,7.7c-0.6,2.9-2.5,5.4-4.2,7.8c-4.2,5.8-8.3,12.2-8.6,19.3
		c-0.2,3.6,0.6,7.3-0.3,10.8c-1.6,6.2-8.2,10.2-9.5,16.5c-0.4,1.8-0.3,3.8-1,5.5c-1.3,3-4.7,4.6-5.6,7.7c-0.7,2.3,0.3,4.8,0.4,7.2
		c0.1,3.5-1.8,6.8-3.5,9.8l-10.4,17.7c-3.4,5.7-6.8,11.7-7.4,18.4c-0.5,5.9,1.3,11.7,3.3,17.3c4.5,12.3,11.1,25.4,23.4,30.2
		c7.2,2.8,15.2,2.2,23,1.6c10.6-0.9,21.2-1.8,31.4-4.7c5-1.4,10-3.3,15.1-4.4c3.4-0.7,6.9-1,10.2-2.1c7.2-2.6,12.4-8.9,13.6-16.5
		c4.4,1.7,8.4-4,7.8-8.6s-3.7-8.6-5-13.1c-1.8-6.2,0-13,3-18.7s7.1-10.8,10.4-16.3c3.6-6.2,6.2-13.1,7.5-20.2
		c1.8-9.6,1.2-19.4,0.7-29.2l-2.1-37.2c-0.4-6.8-0.8-13.8-3.8-20c-3.3-6.7-9.3-11.6-15.3-16.1c-8.8-6.7-18.1-12.9-27.8-18.4
		c-6.2-3.5-5.8-2.1-10.7,2C351.6,471.8,346.9,474,341.9,474.8z"/>
	<path class="st4" d="M426,578.3c-7.1,5.6-14.2,11.2-19.7,18.4c-6.6,8.7-10.3,19.3-10.7,30.2c-0.1,5.1,0.3,10.2,1.1,15.3
		c1.1,8.3,3,17.4,10,22c4.4,2.9,10.4,3.6,13.4,7.9c0.9,1.3,1.5,3,2.6,4.2c2,2.2,5.1,2.6,8,2.8c4.3,0.2,8.6,0.1,12.9-0.4
		c4.9-0.6,9.9-1.7,14.7-0.7c9.4,1.8,16.4,10.7,26,11.8c7.9,1,15.4-3.6,22-8c6.8-4.5,14-9.4,17.7-16.7c3.6-7.1,3.4-15.5,3.1-23.5
		c-0.3-8.9-0.6-17.8-3-26.4c-0.7-2.2-1.3-4.5-1.7-6.9c-0.7-6,2-11.9,4-17.6c3.1-8.7,4.5-19.5-1.7-26.4c-2.6-2.9-6.2-4.7-9.9-6
		c-16.3-5.8-34.2-3.6-50.9-1C448,559.6,438.5,568.4,426,578.3z"/>
	<path class="st9" d="M563.8,543.7c-6.4,9.7-12.9,19.4-17.5,30c-3.2,7.7-5.8,15.6-8,23.6c-6.4,22.2-12.8,44.9-25.6,64.1
		c-1.8,2.8-3.9,5.6-4.1,8.9c-0.2,3.1,1.3,6,2.7,8.8c3,5.8,6.1,11.7,10.4,16.8s9.4,8.8,14.6,12.7c10.7,8,22.6,16.5,36,15.9
		c2.8-0.1,5.7-0.8,7.6-2.8s2.1-4.9,1.8-7.6c-1-8.2-7.2-14.7-12.8-20.8s-11.3-13.2-10.8-21.5c0.3-6.9,4.8-12.7,9.2-18.1
		c4.9-6.1,9.9-12.3,14.5-18.6c20.1-27.5,34.6-58.7,46.1-90.7c4.8-13.5,9.3-27.7,7.8-42c-11-2.7-33-11.7-42.3-2.4
		c-5.6,5.6-9.6,14-14,20.7L563.8,543.7z"/>
	<path class="st6" d="M656.7,449.8c-7,12.2-12.4,25.1-16.2,38.6c-0.9,3.3-1.8,6.7-1,10c0.8,3.5,3.2,6.5,5,9.6s3.1,7.1,1.5,10.3
		c-7.8,0.6-15.5-1.5-23.1-3.6l-23.6-6.6c-2-0.4-3.8-1.2-5.3-2.5c-2.7-2.6-2.5-6.9-2-10.7c4.6-30.5,19.5-58.5,25.1-88.8
		c0.8-4.4,1.7-9.2,5.1-12c10-7.9,32.6-1.2,37.8,10.2C665.6,417,663.2,438.4,656.7,449.8z"/>
	<path class="st9" d="M530.1,345.7c-0.9,0.5-1.9,1-2.2,1.9c-0.1,1,0.2,2.1,0.9,2.8l10.1,14.2c10,14,19.9,28.1,31.4,40.9
		c8.7,9.6,18.2,18.5,28.4,26.5c2.9,2.2,6,4.6,7.4,7.9c-6.3-18.6-5.2-38.9,3.1-56.8c3.3-7,7.7-13.5,11.1-20.5c1-1.2,0.9-3.1-0.3-4.1
		c-0.4-0.3-0.8-0.5-1.2-0.6c-8.7-4.5-18.3-7.2-27-11.8c-6.8-3.6-13-8.3-19.1-12.9c-5.5-4.1-12.8-11.4-19.5-13.1
		c-7.3-1.9-7,4.8-9.3,10.3C541.2,337,536.3,342.4,530.1,345.7z"/>
	<path class="st5" d="M530.1,345.7c-0.9,0.5-1.9,1-2.2,1.9c-0.1,1,0.2,2.1,0.9,2.8l10.1,14.2c10,14,19.9,28.1,31.4,40.9
		c8.7,9.6,18.2,18.5,28.4,26.5c2.9,2.2,6,4.6,7.4,7.9c-6.3-18.6-5.2-38.9,3.1-56.8c3.3-7,7.7-13.5,11.1-20.5c1-1.2,0.9-3.1-0.3-4.1
		c-0.4-0.3-0.8-0.5-1.2-0.6c-8.7-4.5-18.3-7.2-27-11.8c-6.8-3.6-13-8.3-19.1-12.9c-5.5-4.1-12.8-11.4-19.5-13.1
		c-7.3-1.9-7,4.8-9.3,10.3C541.2,337,536.3,342.4,530.1,345.7z"/>
	<path class="st6" d="M592,402.3c-4.6-5.2-10.7-8.6-16.2-12.9c-7.8-6.2-13.9-14.1-19.9-22c-10.9-14.6-21.9-32.5-16.5-50
		c-5.8-0.6-10.8,4.2-13.5,9.3s-4.1,10.9-7.5,15.6c-5.2,7.1-13.9,10.5-22.1,13.7c-17.9,7.2-35.3,15.8-51.8,25.8
		c-6.6,4-13.3,8.3-18.4,14.1c-5.4,6.3-8.9,14-13.5,20.9c-9,13.5-22.7,23.6-37.9,29.3c-5,1.9-10.4,3.4-14.8,6.4
		c-9.6,6.5-13.6,19.4-11.3,30.7s10,21,19.3,27.9c9.3,6.9,19.9,10.9,30.6,14.9c9,3.3,18,6.4,27.1,9.4c6.7,2.3,13.5,4.2,20.5,5.6
		c12.8,2.3,25.9,1.8,38.9,3.2c11.8,1.3,23.4,4.3,35.3,5.1c11.9,0.8,24.4-0.8,34.1-7.7c7.7-5.5,12.8-13.8,17.5-22
		c12.3-21.2,23.2-43.1,32.8-65.7c2.8-6.7,29.1-44.5,22.5-49.3c-32.9-24.6-22,14.5-25.1,11.5C598.2,412.1,595.8,406.6,592,402.3z"/>
	<path class="st7" d="M551.2,379.7c-7.1-14.2-11.8-29.4-16.6-44.6c-1.3-4.2-2.6-8.7-1.2-12.9c1.7-5,7.1-9.3,5.5-14.3
		c-12.7,4-27.5,10.3-30,23.4c-0.5,2.9-0.5,5.9-1.8,8.5c-2.6,5.1-9.2,6.1-14.8,7c-16.3,2.6-32.5,9.2-43.7,21.4c-1.9,2-3.6,4.3-6,5.8
		c-1.7,1-3.5,1.8-5.4,2.4c-10.9,3.9-22.2,8.8-29.2,18.1c-3.6,4.8-6,10.5-10,14.9c-5.5,6-13.5,9-19.5,14.6c-4,3.7-6.9,8.4-9.5,13.2
		c-10.2,18.4-17.6,39.9-12.2,60.2c2.8,10.6,9,20.1,12.3,30.5c4.6,14.3,4.1,30.5,12.8,42.8c5.4,7.7,13.8,12.8,22.4,16.6
		c19.1,8.5,40.2,11.9,61,9.8c7.7-0.9,15.4-2.2,23-3.9c18.1-3.7,36.5-7.8,52.9-16.3c28.1-14.4,48.3-40.2,67.6-65.2
		c3.7-4.8,7.4-9.6,10-15c2.6-5.2,4.1-10.8,5.8-16.3c5.8-18.6,14.1-37.1,13.3-56.6c0-2.3-0.4-4.6-1.3-6.8c-0.8-1.6-2-3-2.7-4.6
		c-1.2-2.9-0.7-6.2-1.5-9.2c-2.4-8.4-13.4-10-22.2-9.9l-2.8,49.3c-0.4,7.4-1.2,15.6-6.7,20.6c-4.8,4.2-11.8,4.7-17.2,1.4
		c-5.9-3.8-6.7-10.5-6.7-16.8c0.1-8-0.6-15.3-3.1-23C568.4,408.6,558.6,394.6,551.2,379.7z"/>
	<path class="st9" d="M554.7,520.2c34.8,17.7,69.8,35.4,101,58.9c7.2,5.4,14.2,11.2,21.8,16c21.8,13.9,48.9,20.6,65.7,40.2
		c3.5,4.1,6.5,8.7,10.6,12.3c3.5,2.9,7.5,5.3,11.7,7c13.5,6,28.2,9,42.9,8.8c3.9,0,7.8-0.3,11.3-2c9.4-4.5,11.5-16.7,12.5-27.1
		c0.3-3.5,0.4-7.7-2.4-9.8c-1.5-1.2-3.5-1.5-5.3-1.8c-30.4-4.8-58.5-19.4-83.9-36.8s-48.7-37.7-73.8-55.6C658,524,649,518,640,512
		l-29.2-19.4c-15.4-10.3-31.7-20.8-50.1-22.7c-1-0.2-2.1-0.1-3.1,0.2c-1.6,0.6-2.5,2.3-3.3,3.8c-5.4,10.5-12,20.1-18.6,29.9
		c-3.5,5.2-4,6.6,2.2,9.4C543.4,515.7,549.2,517.4,554.7,520.2z"/>
	<path d="M623.1,811.4c0.8,0,1.5-0.7,1.5-1.5s-0.7-1.5-1.5-1.5s-1.5,0.7-1.5,1.5S622.3,811.4,623.1,811.4z"/>
	<circle class="st9" cx="634" cy="317.5" r="95.7"/>
	<path class="st7" d="M558.9,354.9c1.7-8.6,11.6-12.9,20.3-13.5c18-1,35.1,7.7,44.9,22.8c2-5.4,3.4-10.9,4.1-16.6l16,1.2
		c1.8,0.3,3.6,0.1,5.3-0.5c2.1-0.9,3.3-3,4.4-5c7-13.1,11.7-29.1,24.8-36v18c7.3-1.4,13.5-6.1,16.8-12.8c0.9,5,2.3,9.9,4.3,14.5
		c0.3,0.8,0.8,1.6,1.6,1.8c0.8,0.1,1.6-0.2,2.2-0.8c6.1-4.6,11.7-10,16.5-16l19,32.9c22.7-57.3-0.3-122.6-53.8-153.1
		c-4.4-2.5-9-4.7-13.7-6.5c-12.4-4.7-25.7-6.1-38.9-7.1c-18.8-1.3-38.5-1.2-55,7.8c-8.8,4.8-16.2,11.9-23.3,19.1
		c-9.6,9.7-19.2,19.9-24.3,32.5c-3.5,8.7-4.7,18.2-5.8,27.5c-0.7,5.6-1.3,11.5,0.4,16.9c1.1,3.8,3.2,7.2,4.7,10.8
		c2.4,6.1,2.7,12.8,3.6,19.2c2,14.3,6.7,28.1,13.8,40.7c1.5,2.7,3.4,5.5,6.4,6.2s6.6-2.6,5-5.2"/>
	<path class="st10" d="M558.9,354.9c1.7-8.6,11.6-12.9,20.3-13.5c18-1,35.1,7.7,44.9,22.8c2-5.4,3.4-10.9,4.1-16.6l16,1.2
		c1.8,0.3,3.6,0.1,5.3-0.5c2.1-0.9,3.3-3,4.4-5c7-13.1,11.7-29.1,24.8-36v18c7.3-1.4,13.5-6.1,16.8-12.8c0.9,5,2.3,9.9,4.3,14.5
		c0.3,0.8,0.8,1.6,1.6,1.8c0.8,0.1,1.6-0.2,2.2-0.8c6.1-4.6,11.7-10,16.5-16l19,32.9c22.7-57.3-0.3-122.6-53.8-153.1
		c-4.4-2.5-9-4.7-13.7-6.5c-12.4-4.7-25.7-6.1-38.9-7.1c-18.8-1.3-38.5-1.2-55,7.8c-8.8,4.8-16.2,11.9-23.3,19.1
		c-9.6,9.7-19.2,19.9-24.3,32.5c-3.5,8.7-4.7,18.2-5.8,27.5c-0.7,5.6-1.3,11.5,0.4,16.9c1.1,3.8,3.2,7.2,4.7,10.8
		c2.4,6.1,2.7,12.8,3.6,19.2c2,14.3,6.7,28.1,13.8,40.7c1.5,2.7,3.4,5.5,6.4,6.2s6.6-2.6,5-5.2"/>
	<path class="st6" d="M449.1,446.6c3.9,10.6,13.6,17.8,22.8,24.4l24,17.1c6.4,4.5,12.9,9.3,17.1,15.9c-6.1,2.3-8.8,10.1-6.8,16.3
		s7.7,10.6,13.9,12.6s12.8,1.9,19.3,1.6c7.5-0.4,15.3-1.3,21.4-5.5l-13.5-8.3c-3.6-2.2-7.7-5.7-6.3-9.7l14.3-0.1
		c1.5,0,3.1-0.1,4.3-1s1.6-2.4,2.1-3.7c4.3-11.2,14.6-19,26.6-20.1c3.5-0.3,7.6-0.1,10-2.7c1.6-1.7,1.9-4.2,2.2-6.6
		c0.5-4.4,1-9,0.2-13.4s-3.4-8.7-7.5-10.5c-3-1.4-6.5-1.2-9.8-1.7c-15.1-2-25.5-15.7-33.7-28.6s-16.8-27.1-31.2-32
		c-4.5-1.3-9.2-2.1-13.9-2.1c-10.4-0.4-21.1,0.4-30.6,4.7C456.2,401.3,442.2,427.8,449.1,446.6z"/>
	<path class="st5" d="M739.1,327.2l-19-32.9c-4.8,6-10.4,11.4-16.5,16c-0.6,0.6-1.4,0.9-2.2,0.8c-0.8-0.2-1.3-1.1-1.6-1.8
		c-1.9-4.7-3.4-9.6-4.3-14.5c-3.3,6.7-9.5,11.4-16.8,12.8v-18c-13.1,6.9-17.8,23-24.8,36c-1.1,2-2.3,4-4.4,5
		c-1.7,0.6-3.5,0.8-5.3,0.5l-16-1.2c-0.7,5.7-2,11.3-4.1,16.6c-9.8-15.1-26.9-23.8-44.9-22.8c-8.7,0.6-18.6,4.9-20.3,13.5l-0.8-0.9
		c1.6,2.6-2,5.9-5,5.2s-4.9-3.5-6.4-6.2c-7.1-12.6-11.7-26.4-13.7-40.8c-0.9-6.5-1.3-13.1-3.6-19.2c-1.4-3.7-3.5-7.1-4.7-10.8
		c0-0.1-0.1-0.3-0.1-0.4c-0.1,0.8-0.2,1.5-0.3,2.3c-0.7,5.7-1.3,11.5,0.4,17c1.1,3.8,3.2,7.2,4.7,10.8c2.4,6.1,2.7,12.8,3.6,19.3
		c2,14.3,6.7,28.1,13.7,40.8c1.5,2.7,3.4,5.5,6.4,6.2s6.6-2.6,5-5.2l0.8,0.9c1.7-8.6,11.6-12.9,20.3-13.5c18-1,35.1,7.7,44.9,22.8
		c2-5.4,3.4-10.9,4.1-16.6l16,1.2c1.8,0.3,3.6,0.1,5.3-0.5c2.1-0.9,3.3-3,4.4-5c7-13.1,11.7-29.1,24.8-36v18
		c7.3-1.4,13.5-6.1,16.8-12.8c0.9,5,2.3,9.9,4.3,14.5c0.3,0.8,0.8,1.6,1.6,1.8c0.8,0.1,1.6-0.2,2.2-0.8c6.1-4.6,11.7-10,16.5-16
		l19,32.9c6.9-17.5,9.7-36.3,8.3-55C746.5,303.4,743.7,315.6,739.1,327.2z"/>
</g>
</svg>
